<svg width="609" height="500" viewBox="0 0 609 500" fill="none" xmlns="http://www.w3.org/2000/svg">
<rect x="411.632" y="254.981" width="67.7754" height="30.8175" fill="#626262"/>
<rect x="411.632" y="246.37" width="67.7754" height="30.8175" fill="#B366FF"/>
<path d="M335.317 498.773H555.722" stroke="#626262" stroke-width="1.5" stroke-linecap="round" stroke-linejoin="round"/>
<path d="M445.52 279.454V498.773" stroke="#626262" stroke-width="1.5" stroke-linecap="round" stroke-linejoin="round"/>
<path d="M277.498 283.024V394.851H6.0166" stroke="#626262" stroke-width="1.5" stroke-linecap="round" stroke-linejoin="round"/>
<path d="M333.281 498.69V296.09" stroke="#626262" stroke-width="1.5" stroke-linecap="round" stroke-linejoin="round"/>
<path d="M45.4922 150.182H225.257" stroke="#626262" stroke-width="1.5" stroke-linecap="round" stroke-linejoin="round"/>
<path d="M141.758 150.182V394.851" stroke="#626262" stroke-width="1.5" stroke-linecap="round" stroke-linejoin="round"/>
<path d="M141.758 272.517H280.58" stroke="#626262" stroke-width="1.5" stroke-linecap="round" stroke-linejoin="round"/>
<rect x="23.9219" y="370.165" width="10.372" height="69.6325" fill="#EDEEEF"/>
<path d="M34.294 439.798H23.9219V370.166" stroke="#626262" stroke-width="1.5" stroke-linecap="round" stroke-linejoin="round"/>
<path d="M26.6382 383.192H34.294" stroke="#626262" stroke-width="1.5" stroke-linecap="round" stroke-linejoin="round"/>
<path d="M26.6382 385.996H34.294" stroke="#626262" stroke-width="1.5" stroke-linecap="round" stroke-linejoin="round"/>
<path d="M26.6382 388.8H34.294" stroke="#626262" stroke-width="1.5" stroke-linecap="round" stroke-linejoin="round"/>
<rect x="36.686" y="370.165" width="10.372" height="69.6325" fill="#D6D6D6"/>
<path d="M47.0571 439.798H36.6851V370.166" stroke="#626262" stroke-width="1.5" stroke-linecap="round" stroke-linejoin="round"/>
<path d="M39.4023 383.192H47.0581" stroke="#626262" stroke-width="1.5" stroke-linecap="round" stroke-linejoin="round"/>
<path d="M39.4023 385.996H47.0581" stroke="#626262" stroke-width="1.5" stroke-linecap="round" stroke-linejoin="round"/>
<path d="M39.4023 388.8H47.0581" stroke="#626262" stroke-width="1.5" stroke-linecap="round" stroke-linejoin="round"/>
<rect x="49.4507" y="370.165" width="10.372" height="69.6325" fill="#EDEEEF"/>
<path d="M59.8228 439.798H49.4507V370.166" stroke="#626262" stroke-width="1.5" stroke-linecap="round" stroke-linejoin="round"/>
<path d="M52.167 383.192H59.8228" stroke="#626262" stroke-width="1.5" stroke-linecap="round" stroke-linejoin="round"/>
<path d="M52.167 385.996H59.8228" stroke="#626262" stroke-width="1.5" stroke-linecap="round" stroke-linejoin="round"/>
<path d="M52.167 388.8H59.8228" stroke="#626262" stroke-width="1.5" stroke-linecap="round" stroke-linejoin="round"/>
<rect x="62.2153" y="370.165" width="10.372" height="69.6325" fill="#D6D6D6"/>
<path d="M72.5874 439.798H62.2153V370.166" stroke="#626262" stroke-width="1.5" stroke-linecap="round" stroke-linejoin="round"/>
<path d="M64.9316 383.192H72.5874" stroke="#626262" stroke-width="1.5" stroke-linecap="round" stroke-linejoin="round"/>
<path d="M64.9316 385.996H72.5874" stroke="#626262" stroke-width="1.5" stroke-linecap="round" stroke-linejoin="round"/>
<path d="M64.9316 388.8H72.5874" stroke="#626262" stroke-width="1.5" stroke-linecap="round" stroke-linejoin="round"/>
<rect x="72.7456" y="325.165" width="10.372" height="69.6325" fill="#EDEEEF"/>
<path d="M83.1169 394.798H72.7456V325.166" stroke="#626262" stroke-width="1.5" stroke-linecap="round" stroke-linejoin="round"/>
<path d="M75.4619 338.192H83.1177" stroke="#626262" stroke-width="1.5" stroke-linecap="round" stroke-linejoin="round"/>
<path d="M75.4619 340.996H83.1177" stroke="#626262" stroke-width="1.5" stroke-linecap="round" stroke-linejoin="round"/>
<path d="M75.4619 343.8H83.1177" stroke="#626262" stroke-width="1.5" stroke-linecap="round" stroke-linejoin="round"/>
<rect width="10.3635" height="69.6905" transform="matrix(0.961318 -0.275441 0.280918 0.959732 84.458 327.967)" fill="#D6D6D6"/>
<path d="M113.999 391.996L104.036 394.851L84.4585 327.967" stroke="#626262" stroke-width="1.5" stroke-linecap="round" stroke-linejoin="round"/>
<path d="M90.7295 339.732L98.0831 337.625" stroke="#626262" stroke-width="1.5" stroke-linecap="round" stroke-linejoin="round"/>
<path d="M91.5176 342.425L98.8712 340.318" stroke="#626262" stroke-width="1.5" stroke-linecap="round" stroke-linejoin="round"/>
<path d="M92.3066 345.119L99.6603 343.012" stroke="#626262" stroke-width="1.5" stroke-linecap="round" stroke-linejoin="round"/>
<path d="M291.08 217.227L243.933 202.383L242.436 498.352H296.937L291.08 485.401C317.437 391.889 291.08 217.227 291.08 217.227Z" fill="#B366FF"/>
<path d="M277.471 399.179C277.471 329.859 263.247 273.663 245.7 273.663C244.981 273.667 244.265 273.764 243.571 273.95L242.436 498.352H265.174C272.656 475.388 277.471 439.508 277.471 399.179Z" fill="#626262"/>
<path d="M275.537 220.845C275.537 220.845 286.794 402.629 254.999 488.698L261.641 498.352H205.091C205.091 498.352 199.576 275.753 199.576 225.847L275.537 220.845Z" fill="#B366FF"/>
<path d="M263.528 80.1964V103.821L233.948 111.014V71.1462L263.528 63.9531V80.1964V80.1964Z" fill="#EDEEEF"/>
<path d="M243.934 92.5611C243.934 92.5611 251.136 90.2162 253.506 93.8024C253.506 93.8024 256.512 90.4663 260.384 93.1589" stroke="#B366FF" stroke-width="1.5" stroke-linecap="round" stroke-linejoin="round"/>
<path d="M246.819 88.3702C247.256 88.3702 247.61 88.0199 247.61 87.5877C247.61 87.1555 247.256 86.8052 246.819 86.8052C246.382 86.8052 246.028 87.1555 246.028 87.5877C246.028 88.0199 246.382 88.3702 246.819 88.3702Z" fill="#626262"/>
<path d="M258.966 88.3702C259.403 88.3702 259.757 88.0199 259.757 87.5877C259.757 87.1555 259.403 86.8052 258.966 86.8052C258.529 86.8052 258.175 87.1555 258.175 87.5877C258.175 88.0199 258.529 88.3702 258.966 88.3702Z" fill="#626262"/>
<path d="M255.402 92.256V80.1968H261.508" stroke="#626262" stroke-width="1.5"/>
<path d="M245.328 80.1964H251.434" stroke="#626262" stroke-width="1.5"/>
<path d="M235.896 86.3757V90.5635C233.613 90.5635 231.762 88.7322 231.762 86.4733C231.762 86.3477 231.768 86.2236 231.779 86.101C232.011 83.5611 235.896 83.8255 235.896 86.3757Z" fill="#EDEEEF"/>
<path d="M235.896 90.5633C233.613 90.5633 231.762 88.7321 231.762 86.4731" stroke="#626262" stroke-width="1.5"/>
<path d="M251.809 95.2288C250.517 95.2288 249.47 94.1929 249.47 92.915" stroke="#B366FF" stroke-width="1.5" stroke-linecap="round" stroke-linejoin="round"/>
<path d="M242.436 108.95L233.948 111.014" stroke="#626262" stroke-width="1.5"/>
<path d="M255.402 92.2652L252.731 92.9147" stroke="#626262" stroke-width="1.5" stroke-linecap="round"/>
<path d="M291.08 153.319V217.227L199.576 239.478V168.303C199.576 143.065 216.99 121.088 241.762 115.065H241.762C253.641 112.176 266.203 114.85 275.83 122.318C285.457 129.785 291.081 141.216 291.081 153.319L291.08 153.319Z" fill="#EDEEEF"/>
<path d="M237.35 87.5876C237.35 87.5876 232.889 102.078 243.298 109.618C252.99 116.638 268.266 112.528 264.652 96.107C263.901 92.6802 263.524 89.1835 263.528 85.6772V84.6987" stroke="#B366FF" stroke-width="1.5" stroke-linecap="round" stroke-linejoin="round"/>
<path d="M233.829 84.3265C233.829 84.3265 223.989 66.497 239.141 63.2845C239.141 63.2845 245.302 55.6698 254.067 59.3582C262.831 63.0465 267.04 60.4576 267.16 63.9532C267.281 67.4488 267.711 73.2788 263.528 76.2533" stroke="#B366FF" stroke-width="1.5" stroke-linecap="round" stroke-linejoin="round"/>
<path d="M239.952 84.3239L242.436 74.3081C242.436 74.3081 260.522 74.584 263.527 69.7104" stroke="#B366FF" stroke-width="1.5" stroke-linecap="round" stroke-linejoin="round"/>
<path d="M275.537 220.845C275.537 220.845 286.794 402.629 255 488.698L261.641 498.352" stroke="#626262" stroke-width="1.5"/>
<path d="M218.329 127.19C218.329 127.19 202.962 187.227 221.55 209.664C240.138 232.1 327.13 218.859 352.41 194.583C352.41 194.583 361.332 192.377 363.191 187.963C363.191 187.963 371.741 194.216 371.369 190.17C370.998 186.124 368.023 173.515 352.781 176.693C337.539 179.871 263.528 181.342 263.528 181.342L265.194 149.71" stroke="#626262" stroke-width="1.5"/>
<path d="M286.862 135.621C286.862 135.621 298.042 157.06 296.601 180.419" stroke="#626262" stroke-width="1.5"/>
<path d="M292.973 231.084C292.973 231.084 322.759 242.789 335.354 205.628" stroke="#626262" stroke-width="1.5"/>
<path d="M306.706 180.044C306.706 180.044 338.266 163.916 343.116 170.676L347.966 177.435" stroke="#626262" stroke-width="1.5"/>
<rect x="88.0649" y="12.6567" width="72.74" height="103.352" fill="#B366FF"/>
<path d="M147.682 66.9078L138.551 75.9424L109.474 47.1743L88.0649 68.356V116.009H160.805V79.8912L147.682 66.9078V66.9078Z" fill="#626262"/>
<path fill-rule="evenodd" clip-rule="evenodd" d="M172.19 93.0173C170.358 95.0982 169.155 98.604 169.155 102.579C169.155 107.769 171.205 112.16 174.029 113.622V127.665H166.041C164.757 124.928 161.088 122.952 156.76 122.952C153.4 122.952 150.438 124.143 148.679 125.955C146.92 124.143 143.957 122.952 140.598 122.952C137.238 122.952 134.275 124.143 132.516 125.955C130.758 124.143 127.795 122.952 124.435 122.952C121.076 122.952 118.113 124.143 116.354 125.955C114.595 124.143 111.632 122.952 108.273 122.952C104.913 122.952 101.95 124.143 100.192 125.955C98.4329 124.143 95.4699 122.952 92.1104 122.952C87.7822 122.952 84.1136 124.928 82.8295 127.665H74.8418V113.622C77.6653 112.16 79.7156 107.769 79.7156 102.579C79.7156 98.604 78.5124 95.0982 76.6805 93.0173C78.5124 90.9364 79.7156 87.4307 79.7156 83.4556C79.7156 79.4807 78.5124 75.9751 76.6805 73.894C78.5124 71.8132 79.7156 68.3074 79.7156 64.3325C79.7156 60.3574 78.5124 56.8518 76.6805 54.7709C78.5124 52.6899 79.7156 49.1842 79.7156 45.2092C79.7156 41.2343 78.5124 37.7285 76.6805 35.6476C78.5124 33.5667 79.7156 30.061 79.7156 26.0861C79.7156 20.8964 77.6653 16.5054 74.8418 15.0428V1H82.8295C84.1136 3.7365 87.7822 5.71264 92.1104 5.71264C95.4699 5.71264 98.4329 4.52214 100.192 2.7097C101.95 4.52214 104.913 5.71264 108.273 5.71264C111.632 5.71264 114.595 4.52214 116.354 2.7097C118.113 4.52214 121.076 5.71264 124.435 5.71264C127.795 5.71264 130.758 4.52214 132.516 2.7097C134.275 4.52214 137.238 5.71264 140.598 5.71264C143.957 5.71264 146.92 4.52214 148.679 2.7097C150.438 4.52214 153.4 5.71264 156.76 5.71264C161.088 5.71264 164.757 3.7365 166.041 1H174.029V15.0428C171.205 16.5054 169.155 20.8964 169.155 26.0861C169.155 30.061 170.358 33.5667 172.19 35.6476C170.358 37.7285 169.155 41.2343 169.155 45.2092C169.155 49.1842 170.358 52.6899 172.19 54.7709C170.358 56.8518 169.155 60.3574 169.155 64.3325C169.155 68.3074 170.358 71.8132 172.19 73.894C170.358 75.9751 169.155 79.4807 169.155 83.4556C169.155 87.4307 170.358 90.9364 172.19 93.0173ZM88.0649 116.008H160.805V12.6565H88.0649V116.008Z" fill="#EDEEEF"/>
<path d="M138.055 36.6748C136.052 36.6748 134.428 38.2815 134.428 40.2634H141.682C141.682 39.3116 141.3 38.3989 140.62 37.7259C139.939 37.0529 139.017 36.6748 138.055 36.6748V36.6748Z" fill="#EDEEEF"/>
<path d="M150.563 37.353C148.938 37.353 147.621 38.6561 147.621 40.2634H153.504C153.504 38.6561 152.187 37.353 150.563 37.353Z" fill="#EDEEEF"/>
<path d="M143.788 33.0898C139.783 33.0899 136.537 36.3016 136.537 40.2636H151.039C151.039 36.3016 147.792 33.0898 143.788 33.0898V33.0898Z" fill="#EDEEEF"/>
<path d="M133.703 40.2639H154.912" stroke="#626262" stroke-width="1.5" stroke-linecap="round" stroke-linejoin="round"/>
<path d="M115.408 59.563C113.405 59.563 111.781 61.1696 111.781 63.1516H119.035C119.035 61.1696 117.411 59.563 115.408 59.563Z" fill="#EDEEEF"/>
<path d="M127.917 60.2412C126.292 60.2412 124.975 61.5442 124.975 63.1516H130.858C130.858 61.5442 129.541 60.2412 127.917 60.2412Z" fill="#EDEEEF"/>
<path d="M121.141 55.9775C117.137 55.9775 113.891 59.1893 113.891 63.1513H128.392C128.392 59.1893 125.146 55.9775 121.141 55.9775Z" fill="#EDEEEF"/>
<path d="M111.057 63.1516H132.266" stroke="#626262" stroke-width="1.5" stroke-linecap="round" stroke-linejoin="round"/>
<path d="M135.688 50.9668C134.535 50.9668 133.6 51.8916 133.6 53.0324H137.776C137.776 51.8916 136.841 50.9668 135.688 50.9668V50.9668Z" fill="#EDEEEF"/>
<path d="M142.888 51.3574C141.952 51.3574 141.194 52.1074 141.194 53.0327H144.581C144.581 52.1074 143.823 51.3574 142.888 51.3574Z" fill="#EDEEEF"/>
<path d="M138.988 48.9033C136.683 48.9033 134.815 50.752 134.815 53.0326H143.162C143.162 50.752 141.293 48.9033 138.988 48.9033V48.9033Z" fill="#EDEEEF"/>
<path d="M133.183 53.0325H145.391" stroke="#626262" stroke-width="1.5" stroke-linecap="round" stroke-linejoin="round"/>
<path d="M123.366 33.0898C120.513 33.0882 117.812 31.8156 116.013 29.625C114.214 27.4343 113.508 24.5585 114.091 21.7954C109.547 22.9212 106.517 27.1629 106.96 31.7764C107.403 36.39 111.187 39.9906 115.864 40.249C120.541 40.5074 124.707 37.3459 125.666 32.8099C124.914 32.9959 124.141 33.0899 123.366 33.0898V33.0898Z" fill="#EDEEEF"/>
<path d="M74.8418 113.622V127.665H82.8295C84.1136 124.928 87.7822 122.952 92.1104 122.952C95.4699 122.952 98.4329 124.143 100.192 125.955C101.95 124.143 104.913 122.952 108.273 122.952C111.632 122.952 114.595 124.143 116.354 125.955C118.113 124.143 121.076 122.952 124.435 122.952C127.795 122.952 130.758 124.143 132.516 125.955C134.275 124.143 137.238 122.952 140.598 122.952C143.957 122.952 146.92 124.143 148.679 125.955C150.438 124.143 153.4 122.952 156.76 122.952C161.088 122.952 164.757 124.928 166.041 127.665H174.029V113.622C171.205 112.159 169.155 107.769 169.155 102.579C169.155 98.604 170.358 95.0982 172.19 93.0173C170.358 90.9364 169.155 87.4307 169.155 83.4556C169.155 79.4807 170.358 75.9751 172.19 73.894C170.358 71.8132 169.155 68.3074 169.155 64.3325C169.155 60.3574 170.358 56.8518 172.19 54.7709C170.358 52.6899 169.155 49.1842 169.155 45.2092C169.155 41.2343 170.358 37.7285 172.19 35.6476C170.358 33.5667 169.155 30.061 169.155 26.086C169.155 20.8964 171.205 16.5054 174.029 15.0428V1H166.041" stroke="#626262" stroke-width="1.5" stroke-linecap="round" stroke-linejoin="round"/>
<path d="M88.0649 116.009V12.6567H160.805" stroke="#626262" stroke-width="1.5" stroke-linecap="round" stroke-linejoin="round"/>
<path d="M404.271 385.752H404.271C413.058 385.752 420.181 392.799 420.181 401.493V465.732H388.361V401.493C388.361 392.799 395.484 385.752 404.271 385.752V385.752Z" fill="#626262"/>
<rect x="380.325" y="462.85" width="47.8915" height="29.5469" fill="#B366FF"/>
<path d="M388.884 498.163H380.325V483.208H397.078L388.884 498.163V498.163Z" fill="#B366FF"/>
<path d="M419.657 498.163H428.216V483.208H411.463L419.657 498.163V498.163Z" fill="#B366FF"/>
<path d="M396.632 443.647H389.078C379.248 443.636 371.281 435.754 371.27 426.028V418.555C371.272 414.546 374.557 411.298 378.608 411.298C382.659 411.298 385.943 414.546 385.945 418.555V426.028C385.947 427.739 387.349 429.125 389.078 429.127H396.632C400.684 429.127 403.969 432.378 403.969 436.387C403.969 440.397 400.684 443.647 396.632 443.647V443.647Z" fill="#626262"/>
<path d="M411.91 453.262H419.464C429.294 453.251 437.261 445.369 437.272 435.643V428.17C437.272 424.16 433.986 420.91 429.934 420.91C425.881 420.91 422.596 424.16 422.596 428.17V435.643C422.594 437.354 421.193 438.74 419.464 438.742H411.91C407.857 438.742 404.572 441.993 404.572 446.002C404.572 450.012 407.857 453.262 411.91 453.262V453.262Z" fill="#626262"/>
<path d="M519.524 237.125H512.542L547.103 127.315L551.74 132.05L519.524 237.125V237.125Z" fill="#626262"/>
<path d="M512.514 237.125H386.49L421.052 127.315H547.076L512.514 237.125V237.125Z" fill="#B366FF"/>
<path d="M506.132 231.284H397.696L427.434 136.799H535.87L506.132 231.284V231.284Z" fill="#EDEEEF"/>
<path d="M517.34 244.718H327.246V231.284H521.225L517.34 244.718V244.718Z" fill="#626262"/>
<path d="M517.34 244.718H327.246V231.284H521.225L517.34 244.718V244.718Z" fill="#626262"/>
<rect x="471.746" y="236.443" width="7.72763" height="3.11533" rx="1.55766" fill="#D6D6D6"/>
<rect x="485.797" y="236.443" width="7.72764" height="3.11533" rx="1.55766" fill="#D6D6D6"/>
<rect x="499.847" y="236.443" width="7.72764" height="3.11533" rx="1.55766" fill="#D6D6D6"/>
<path d="M397.696 231.284L427.434 136.799H535.87" stroke="#626262" stroke-width="1.5" stroke-linecap="round" stroke-linejoin="round"/>
<path d="M333.489 244.718H545.496" stroke="#626262" stroke-width="1.5" stroke-linecap="round" stroke-linejoin="round"/>
<path d="M0 499L609 499" stroke="#626262" stroke-width="1.5"/>
</svg>
