<svg width="4413" height="3783" viewBox="0 0 4413 3783" fill="none" xmlns="http://www.w3.org/2000/svg">
<path d="M2921.28 2838.29H3355.7L3538.86 3053.96H3104.43L2921.28 2838.29Z" fill="black"/>
<path d="M3104.43 3053.96L2921.28 2838.29H3355.7" stroke="black" stroke-width="14"/>
<rect x="3104.48" y="3053.97" width="675.15" height="720.237" fill="#4DA1FF"/>
<rect x="3779.64" y="3053.97" width="434.428" height="720.237" fill="#E2E2E2"/>
<path d="M4214.06 3053.96V3774.2H3104.48" stroke="black" stroke-width="14"/>
<path d="M4397.22 2838.29H3962.79L3779.64 3053.96H4214.07L4397.22 2838.29Z" fill="#EDEEEF"/>
<path d="M4214.07 3053.96L4397.22 2838.29H3962.8" stroke="black" stroke-width="14"/>
<rect x="3345.27" y="3053.97" width="193.601" height="211.274" fill="#4DA1FF"/>
<rect x="799.262" y="2344.65" width="459.373" height="179.371" fill="black"/>
<rect x="799.262" y="2294.53" width="459.373" height="179.371" fill="#4DA1FF"/>
<path d="M1028.95 2487.09V3763.62" stroke="black" stroke-width="14" stroke-linecap="round" stroke-linejoin="round"/>
<rect x="3108.83" y="1143.76" width="351.382" height="968.336" fill="#EDEEEF"/>
<path d="M3311.49 1130.23V2111.04" stroke="black" stroke-width="14"/>
<path d="M3108.83 2098.57V1130.23H3460.21" stroke="black" stroke-width="14"/>
<path d="M3458.37 1467.17H3110.25" stroke="black" stroke-width="14"/>
<path d="M3465.83 1844.52H3110.25" stroke="black" stroke-width="14"/>
<path d="M7 975.339V7H358.382" stroke="black" stroke-width="14"/>
<path d="M661.133 313.497V333.004C664.443 333.004 667.618 330.997 669.959 327.424C672.3 323.851 673.615 319.004 673.615 313.951C673.615 313.367 673.598 312.788 673.564 312.217C672.865 300.386 661.133 301.617 661.133 313.497Z" fill="#EDEEEF"/>
<path d="M1029.55 2294.53C1494.48 2294.53 1871.37 1830.72 1871.37 1258.58C1871.37 686.439 1494.48 222.628 1029.55 222.628C564.628 222.628 187.732 686.439 187.732 1258.58C187.732 1830.72 564.628 2294.53 1029.55 2294.53Z" fill="#4DA1FF"/>
<path d="M1029.56 1958.81C1343.82 1958.81 1598.57 1645.3 1598.57 1258.58C1598.57 871.855 1343.82 558.354 1029.56 558.354C715.308 558.354 460.555 871.855 460.555 1258.58C460.555 1645.3 715.308 1958.81 1029.56 1958.81Z" fill="#EDEEEF"/>
<path d="M746.547 1522.98V1978.69L1355.76 2137.36V1629.82C1355.76 1449.86 1239.82 1293.14 1074.9 1250.19L1074.9 1250.19C907.851 1206.68 746.547 1340.69 746.547 1522.98L746.547 1522.98Z" fill="#4DA1FF"/>
<path d="M988.356 1045.61V1075.47C973.155 1075.47 960.832 1062.41 960.832 1046.3C960.832 1045.41 960.87 1044.52 960.945 1043.65C962.487 1025.54 988.356 1027.42 988.356 1045.61Z" fill="#EDEEEF"/>
<path d="M800.661 1352.79L598.834 1716.16" stroke="black" stroke-width="14" stroke-linecap="round" stroke-linejoin="round"/>
<path d="M648.246 1786.54L1010.1 1882.48V1428.73" stroke="black" stroke-width="14" stroke-linecap="round" stroke-linejoin="round"/>
<path d="M1871.37 1258.58C1871.37 1830.72 1494.48 2294.53 1029.55 2294.53C564.628 2294.53 187.732 1830.72 187.732 1258.58" stroke="black" stroke-width="14" stroke-linecap="round" stroke-linejoin="round"/>
<path d="M460.555 1258.58C460.555 871.855 715.308 558.354 1029.56 558.354" stroke="black" stroke-width="14" stroke-linecap="round" stroke-linejoin="round"/>
<path d="M2979.94 3457.33L2439.82 2401.53L2382.51 1724.29L2001.95 1613.42C2001.95 1613.42 1722.23 2605.06 2088.14 3005.75C2454.06 3406.45 2727.73 3657.78 2727.73 3657.78V3774.07L2979.94 3457.33Z" fill="#4DA1FF"/>
<path d="M2706.27 3015.29C2706.27 2981.74 2705.25 2948.78 2703.22 2916.4L2439.83 2401.52L2431.39 2301.84C2415.22 2296.26 2398.46 2293.42 2381.62 2293.4C2209.31 2293.4 2068.38 2591.91 2057.65 2969.03C2067.28 2981.75 2077.45 2993.98 2088.15 3005.75C2305.44 3243.7 2490.21 3428.98 2604.45 3540.23C2667.14 3408.62 2706.27 3222.12 2706.27 3015.29Z" fill="black"/>
<path d="M2088.15 1603.01L2507.05 1569L2583.21 1605.76L2619.01 3774.07H2229.93L2271.07 3686.69L2088.15 1603.01Z" fill="#4DA1FF"/>
<path d="M2001.95 1122.25V1613.42L2589 1784.44V1237.41C2589 1043.44 2477.28 874.529 2318.36 828.233H2318.36C2242.14 806.03 2161.55 826.585 2099.79 883.977C2038.02 941.369 2001.95 1029.23 2001.95 1122.25V1122.25Z" fill="#EDEEEF"/>
<path d="M2229.93 3774.07L2271.07 3686.7L2088.15 1603.01" stroke="black" stroke-width="14" stroke-linecap="round" stroke-linejoin="round"/>
<path d="M2534.97 1014.1C2534.97 1014.1 2750.69 1417.45 2643.37 1671.88C2536.04 1926.3 1954.08 1660.57 2039.95 1414.63C2039.95 1414.63 1987.47 1360.92 2016.1 1349.61C2044.72 1338.3 2178.31 1394.63 2178.31 1394.63" stroke="black" stroke-width="14" stroke-linecap="round" stroke-linejoin="round"/>
<path d="M2304.79 1425.49L2552.73 1511.2" stroke="black" stroke-width="14" stroke-linecap="round" stroke-linejoin="round"/>
<path d="M2103.36 880.756C2103.36 880.756 1962.23 972.405 1970.78 1338.3C1970.78 1338.3 1946.93 1021.69 1856.29 936.878C1765.66 852.07 1693.25 900.746 1700.41 912.053C1707.56 923.361 1765.66 945.358 1765.66 945.358C1765.66 945.358 1722.73 987.762 1768.05 1047.13C1768.05 1047.13 1713.09 1786.08 1972.77 1733.33" stroke="black" stroke-width="14" stroke-linecap="round" stroke-linejoin="round"/>
<path d="M116.41 3775.8L4244.14 3775.8" stroke="black" stroke-width="14"/>
<path d="M2058.71 569.497V646.614C2058.71 706.244 2099.42 758.17 2157.33 772.402L2280.05 802.564V501.052L2178.01 475.973C2149.27 468.91 2118.89 475.449 2095.6 493.705C2072.31 511.961 2058.71 539.908 2058.71 569.497V569.497Z" fill="#EDEEEF"/>
<path d="M2183.74 631.313C2187.01 631.313 2189.66 628.663 2189.66 625.395C2189.66 622.126 2187.01 619.477 2183.74 619.477C2180.47 619.477 2177.82 622.126 2177.82 625.395C2177.82 628.663 2180.47 631.313 2183.74 631.313Z" fill="black"/>
<path d="M2092.84 631.313C2096.11 631.313 2098.76 628.663 2098.76 625.395C2098.76 622.126 2096.11 619.477 2092.84 619.477C2089.57 619.477 2086.92 622.126 2086.92 625.395C2086.92 628.663 2089.57 631.313 2092.84 631.313Z" fill="black"/>
<path d="M2119.51 660.7V569.496H2073.82" stroke="black" stroke-width="14" stroke-linecap="round" stroke-linejoin="round"/>
<path d="M2194.88 569.501H2149.2" stroke="black" stroke-width="14" stroke-linecap="round" stroke-linejoin="round"/>
<path d="M2265.46 616.229V647.9C2282.54 647.9 2296.39 634.051 2296.39 616.967C2296.39 616.018 2296.35 615.079 2296.27 614.151C2294.53 594.942 2265.46 596.942 2265.46 616.229Z" fill="#EDEEEF"/>
<path d="M2265.46 647.901C2282.54 647.901 2296.39 634.052 2296.39 616.968" stroke="black" stroke-width="14" stroke-linecap="round" stroke-linejoin="round"/>
<path d="M2144.48 671.358C2148.33 675.2 2153.54 677.358 2158.97 677.358C2164.4 677.358 2169.61 675.2 2173.45 671.358" stroke="#4DA1FF" stroke-width="14" stroke-linecap="round" stroke-linejoin="round"/>
<path d="M2119.51 660.771L2139.49 665.683" stroke="black" stroke-width="14" stroke-linecap="round" stroke-linejoin="round"/>
<path d="M2058.71 600.718C2058.71 600.718 2157.91 595.583 2185.2 520.472C2185.81 518.888 2187.38 517.89 2189.08 518.013C2190.77 518.137 2192.18 519.353 2192.55 521.008C2198.71 547.661 2217.09 597.985 2268.85 606.35" stroke="black" stroke-width="14" stroke-linecap="round" stroke-linejoin="round"/>
<path d="M2058.7 625.398C2058.7 625.398 2004.64 589.307 2035.94 523.242C2067.23 457.177 2186.84 421.66 2252.91 473.146C2252.91 473.146 2386.78 457.051 2373.22 646.617C2359.66 836.184 2378.43 874.78 2327.32 883.125C2276.21 891.47 2144.1 834.097 2177.82 785.07C2211.53 736.042 2280.04 644.255 2280.04 644.255" stroke="black" stroke-width="14" stroke-linecap="round" stroke-linejoin="round"/>
<path d="M2048.97 616.967C2048.97 616.967 1988.64 763.164 2006.72 795.153C2024.8 827.143 2114.03 811.148 2114.03 811.148" stroke="black" stroke-width="14" stroke-linecap="round" stroke-linejoin="round"/>
<path d="M2058.69 646.618C2058.68 706.253 2099.39 758.186 2157.31 772.406L2169.36 775.368" stroke="black" stroke-width="14" stroke-linecap="round" stroke-linejoin="round"/>
<path d="M1117.55 984.318V1061.44C1117.55 1121.07 1076.85 1172.99 1018.94 1187.22L896.221 1217.39V915.874L998.26 890.794C1026.99 883.732 1057.38 890.27 1080.67 908.526C1103.95 926.782 1117.55 954.729 1117.55 984.318V984.318Z" fill="#EDEEEF"/>
<path d="M992.525 1046.13C989.257 1046.13 986.607 1043.48 986.607 1040.22C986.607 1036.95 989.257 1034.3 992.525 1034.3C995.794 1034.3 998.443 1036.95 998.443 1040.22C998.443 1043.48 995.794 1046.13 992.525 1046.13Z" fill="black"/>
<path d="M1083.43 1046.13C1080.16 1046.13 1077.51 1043.48 1077.51 1040.22C1077.51 1036.95 1080.16 1034.3 1083.43 1034.3C1086.69 1034.3 1089.34 1036.95 1089.34 1040.22C1089.34 1043.48 1086.69 1046.13 1083.43 1046.13Z" fill="black"/>
<path d="M1056.76 1075.52V984.317H1102.45" stroke="black" stroke-width="14" stroke-linecap="round" stroke-linejoin="round"/>
<path d="M981.381 984.323H1027.07" stroke="black" stroke-width="14" stroke-linecap="round" stroke-linejoin="round"/>
<path d="M910.807 1031.05V1062.72C893.723 1062.72 879.873 1048.87 879.873 1031.79C879.873 1030.84 879.915 1029.9 880 1028.97C881.733 1009.76 910.807 1011.76 910.807 1031.05Z" fill="#EDEEEF"/>
<path d="M910.807 1062.72C893.723 1062.72 879.873 1048.87 879.873 1031.79" stroke="black" stroke-width="14" stroke-linecap="round" stroke-linejoin="round"/>
<path d="M1031.78 1086.18C1027.94 1090.02 1022.73 1092.18 1017.3 1092.18C1011.87 1092.18 1006.66 1090.02 1002.81 1086.18" stroke="#4DA1FF" stroke-width="14" stroke-linecap="round" stroke-linejoin="round"/>
<path d="M1056.77 1075.59L1036.79 1080.5" stroke="black" stroke-width="14" stroke-linecap="round" stroke-linejoin="round"/>
<path d="M1117.55 1015.54C1117.55 1015.54 1018.35 1010.4 991.062 935.293C990.454 933.71 988.881 932.711 987.19 932.834C985.498 932.958 984.087 934.174 983.716 935.829C977.554 962.482 959.171 1012.81 907.413 1021.17" stroke="black" stroke-width="14" stroke-linecap="round" stroke-linejoin="round"/>
<path d="M1117.56 1040.22C1117.56 1040.22 1171.62 1004.13 1140.33 938.063C1109.04 871.998 989.423 836.481 923.357 887.968C923.357 887.968 789.488 871.872 803.049 1061.44C816.609 1251 797.833 1289.6 848.947 1297.95C900.06 1306.29 1032.17 1248.92 998.45 1199.89C964.735 1150.86 896.228 1059.08 896.228 1059.08" stroke="black" stroke-width="14" stroke-linecap="round" stroke-linejoin="round"/>
<path d="M1127.29 1031.79C1127.29 1031.79 1187.62 1177.99 1169.54 1209.98C1151.46 1241.97 1062.23 1225.97 1062.23 1225.97" stroke="black" stroke-width="14" stroke-linecap="round" stroke-linejoin="round"/>
<path d="M1117.55 1061.44C1117.57 1121.08 1076.85 1173.01 1018.94 1187.23L1006.89 1190.19" stroke="black" stroke-width="14" stroke-linecap="round" stroke-linejoin="round"/>
</svg>
