<svg width="644" height="552" viewBox="0 0 644 552" fill="none" xmlns="http://www.w3.org/2000/svg">
<path d="M426.295 414.184H489.693L516.422 445.658H453.024L426.295 414.184V414.184Z" fill="#626262"/>
<path d="M453.024 445.658L426.295 414.184H489.693" stroke="#626262" stroke-width="1.5"/>
<rect x="453.032" y="445.659" width="98.5281" height="105.108" fill="#4DA1FF"/>
<rect x="551.56" y="445.659" width="63.3983" height="105.108" fill="#E2E2E2"/>
<path d="M614.958 445.658V550.766H453.032" stroke="#626262" stroke-width="1.5"/>
<path d="M641.686 414.184H578.289L551.56 445.658H614.958L641.686 414.184V414.184Z" fill="#EDEEEF"/>
<path d="M614.958 445.658L641.686 414.184H578.289" stroke="#626262" stroke-width="1.5"/>
<rect x="488.17" y="445.659" width="28.2531" height="30.8323" fill="#4DA1FF"/>
<rect x="116.619" y="342.145" width="67.0387" height="26.1765" fill="#626262"/>
<rect x="116.619" y="334.831" width="67.0387" height="26.1765" fill="#4DA1FF"/>
<path d="M150.138 362.932V549.222" stroke="#626262" stroke-width="1.5" stroke-linecap="round" stroke-linejoin="round"/>
<rect x="453.667" y="166.893" width="51.2789" height="141.314" fill="#EDEEEF"/>
<path d="M483.241 164.918V308.053" stroke="#626262" stroke-width="1.5"/>
<path d="M453.667 306.233V164.918H504.945" stroke="#626262" stroke-width="1.5"/>
<path d="M504.677 214.091H453.874" stroke="#626262" stroke-width="1.5"/>
<path d="M505.766 269.159H453.874" stroke="#626262" stroke-width="1.5"/>
<path d="M1 142.315V1H52.2789" stroke="#626262" stroke-width="1.5"/>
<path d="M96.4609 45.7286V48.5754C96.9441 48.5754 97.4074 48.2825 97.749 47.761C98.0906 47.2396 98.2825 46.5323 98.2825 45.7949C98.2825 45.7096 98.2801 45.6252 98.2751 45.5418C98.173 43.8152 96.4609 43.995 96.4609 45.7286Z" fill="#EDEEEF"/>
<path d="M150.226 334.831C218.075 334.831 273.077 267.145 273.077 183.649C273.077 100.154 218.075 32.4678 150.226 32.4678C82.3773 32.4678 27.375 100.154 27.375 183.649C27.375 267.145 82.3773 334.831 150.226 334.831Z" fill="#4DA1FF"/>
<path d="M150.227 285.837C196.088 285.837 233.266 240.086 233.266 183.649C233.266 127.213 196.088 81.4619 150.227 81.4619C104.366 81.4619 67.189 127.213 67.189 183.649C67.189 240.086 104.366 285.837 150.227 285.837Z" fill="#EDEEEF"/>
<path d="M108.926 222.234V288.739L197.831 311.895V237.827C197.831 211.564 180.912 188.694 156.844 182.425L156.844 182.425C132.466 176.076 108.926 195.632 108.926 222.234L108.926 222.234Z" fill="#4DA1FF"/>
<path d="M144.214 152.57V156.928C141.996 156.928 140.197 155.022 140.197 152.671C140.197 152.541 140.203 152.412 140.214 152.284C140.439 149.641 144.214 149.916 144.214 152.57Z" fill="#EDEEEF"/>
<path d="M116.822 197.397L87.3682 250.426" stroke="#626262" stroke-width="1.5" stroke-linecap="round" stroke-linejoin="round"/>
<path d="M94.5806 260.698L147.387 274.698V208.48" stroke="#626262" stroke-width="1.5" stroke-linecap="round" stroke-linejoin="round"/>
<path d="M273.077 183.649C273.077 267.145 218.075 334.831 150.226 334.831C82.3773 334.831 27.375 267.145 27.375 183.649" stroke="#626262" stroke-width="1.5" stroke-linecap="round" stroke-linejoin="round"/>
<path d="M67.189 183.649C67.189 127.213 104.366 81.4619 150.227 81.4619" stroke="#626262" stroke-width="1.5" stroke-linecap="round" stroke-linejoin="round"/>
<path d="M434.857 504.524L356.035 350.446L347.672 251.613L292.134 235.434C292.134 235.434 251.313 380.147 304.713 438.623C358.113 497.098 398.051 533.777 398.051 533.777V550.748L434.857 504.524Z" fill="#4DA1FF"/>
<path d="M394.918 440.015C394.918 435.119 394.77 430.309 394.474 425.585L356.035 350.446L354.804 335.898C352.443 335.084 349.998 334.67 347.54 334.667C322.394 334.667 301.827 378.229 300.262 433.265C301.668 435.12 303.151 436.906 304.712 438.623C336.423 473.348 363.387 500.387 380.059 516.623C389.207 497.416 394.918 470.2 394.918 440.015Z" fill="#626262"/>
<path d="M304.713 233.914L365.845 228.951L376.961 234.316L382.185 550.748H325.405L331.408 537.997L304.713 233.914Z" fill="#4DA1FF"/>
<path d="M292.133 163.754V235.433L377.805 260.391V180.56C377.805 152.253 361.501 127.603 338.309 120.847H338.309C327.187 117.607 315.425 120.606 306.412 128.982C297.398 137.357 292.133 150.179 292.133 163.754V163.754Z" fill="#EDEEEF"/>
<path d="M325.405 550.748L331.408 537.997L304.713 233.914" stroke="#626262" stroke-width="1.5" stroke-linecap="round" stroke-linejoin="round"/>
<path d="M369.919 147.971C369.919 147.971 401.401 206.835 385.738 243.964C370.075 281.093 285.148 242.314 297.678 206.422C297.678 206.422 290.021 198.584 294.197 196.934C298.374 195.283 317.87 203.504 317.87 203.504" stroke="#626262" stroke-width="1.5" stroke-linecap="round" stroke-linejoin="round"/>
<path d="M336.328 208.008L372.512 220.515" stroke="#626262" stroke-width="1.5" stroke-linecap="round" stroke-linejoin="round"/>
<path d="M306.933 128.512C306.933 128.512 286.337 141.887 287.585 195.283C287.585 195.283 284.104 149.078 270.878 136.702C257.651 124.325 247.084 131.429 248.128 133.079C249.173 134.729 257.651 137.94 257.651 137.94C257.651 137.94 251.386 144.128 257.999 152.791C257.999 152.791 249.979 260.63 287.876 252.932" stroke="#626262" stroke-width="1.5" stroke-linecap="round" stroke-linejoin="round"/>
<path d="M16.9668 551L619.347 551" stroke="#626262" stroke-width="1.5"/>
<path d="M300.415 83.0885V94.3426C300.415 103.045 306.355 110.622 314.806 112.699L332.715 117.101V73.1L317.824 69.44C313.63 68.4094 309.196 69.3635 305.798 72.0277C302.4 74.6919 300.415 78.7704 300.415 83.0885V83.0885Z" fill="#EDEEEF"/>
<path d="M318.661 92.1091C319.137 92.1091 319.524 91.7225 319.524 91.2455C319.524 90.7685 319.137 90.3818 318.661 90.3818C318.184 90.3818 317.797 90.7685 317.797 91.2455C317.797 91.7225 318.184 92.1091 318.661 92.1091Z" fill="#626262"/>
<path d="M305.395 92.1091C305.872 92.1091 306.259 91.7225 306.259 91.2455C306.259 90.7685 305.872 90.3818 305.395 90.3818C304.918 90.3818 304.532 90.7685 304.532 91.2455C304.532 91.7225 304.918 92.1091 305.395 92.1091Z" fill="#626262"/>
<path d="M309.287 96.3977V83.0879H302.62" stroke="#626262" stroke-width="1.5" stroke-linecap="round" stroke-linejoin="round"/>
<path d="M320.288 83.0882H313.62" stroke="#626262" stroke-width="1.5" stroke-linecap="round" stroke-linejoin="round"/>
<path d="M330.587 89.9078V94.5297C333.08 94.5297 335.101 92.5086 335.101 90.0154C335.101 89.8769 335.095 89.7399 335.083 89.6045C334.83 86.8013 330.587 87.0932 330.587 89.9078Z" fill="#EDEEEF"/>
<path d="M330.587 94.5299C333.08 94.5299 335.101 92.5088 335.101 90.0156" stroke="#626262" stroke-width="1.5" stroke-linecap="round" stroke-linejoin="round"/>
<path d="M312.933 97.9531C313.494 98.5137 314.254 98.8286 315.047 98.8286C315.84 98.8286 316.6 98.5137 317.16 97.9531" stroke="#4DA1FF" stroke-width="1.5" stroke-linecap="round" stroke-linejoin="round"/>
<path d="M309.287 96.4082L312.203 97.125" stroke="#626262" stroke-width="1.5" stroke-linecap="round" stroke-linejoin="round"/>
<path d="M300.415 87.6437C300.415 87.6437 314.892 86.8944 318.874 75.933C318.963 75.702 319.193 75.5562 319.439 75.5743C319.686 75.5923 319.892 75.7698 319.946 76.0113C320.846 79.9008 323.528 87.245 331.082 88.4657" stroke="#626262" stroke-width="1.5" stroke-linecap="round" stroke-linejoin="round"/>
<path d="M300.414 91.2459C300.414 91.2459 292.525 85.9791 297.092 76.3378C301.658 66.6965 319.114 61.5134 328.755 69.0271C328.755 69.0271 348.292 66.6782 346.313 94.3426C344.334 122.007 347.074 127.639 339.615 128.857C332.155 130.075 312.876 121.702 317.797 114.548C322.717 107.393 332.715 93.9978 332.715 93.9978" stroke="#626262" stroke-width="1.5" stroke-linecap="round" stroke-linejoin="round"/>
<path d="M298.994 90.0156C298.994 90.0156 290.19 111.351 292.829 116.019C295.468 120.688 308.489 118.353 308.489 118.353" stroke="#626262" stroke-width="1.5" stroke-linecap="round" stroke-linejoin="round"/>
<path d="M300.414 94.3428C300.412 103.046 306.354 110.624 314.805 112.7L316.564 113.132" stroke="#626262" stroke-width="1.5" stroke-linecap="round" stroke-linejoin="round"/>
<path d="M163.069 143.626V154.88C163.069 163.582 157.128 171.16 148.677 173.237L130.768 177.639V133.638L145.66 129.978C149.853 128.947 154.287 129.901 157.686 132.565C161.084 135.23 163.069 139.308 163.069 143.626V143.626Z" fill="#EDEEEF"/>
<path d="M144.822 152.647C144.345 152.647 143.959 152.26 143.959 151.783C143.959 151.306 144.345 150.919 144.822 150.919C145.299 150.919 145.686 151.306 145.686 151.783C145.686 152.26 145.299 152.647 144.822 152.647Z" fill="#626262"/>
<path d="M158.088 152.647C157.611 152.647 157.224 152.26 157.224 151.783C157.224 151.306 157.611 150.919 158.088 150.919C158.565 150.919 158.951 151.306 158.951 151.783C158.951 152.26 158.565 152.647 158.088 152.647Z" fill="#626262"/>
<path d="M154.196 156.936V143.626H160.863" stroke="#626262" stroke-width="1.5" stroke-linecap="round" stroke-linejoin="round"/>
<path d="M143.196 143.626H149.863" stroke="#626262" stroke-width="1.5" stroke-linecap="round" stroke-linejoin="round"/>
<path d="M132.896 150.445V155.067C130.403 155.067 128.382 153.046 128.382 150.553C128.382 150.415 128.388 150.278 128.401 150.142C128.654 147.339 132.896 147.631 132.896 150.445Z" fill="#EDEEEF"/>
<path d="M132.896 155.067C130.403 155.067 128.382 153.046 128.382 150.553" stroke="#626262" stroke-width="1.5" stroke-linecap="round" stroke-linejoin="round"/>
<path d="M150.551 158.491C149.99 159.051 149.23 159.366 148.437 159.366C147.644 159.366 146.884 159.051 146.323 158.491" stroke="#4DA1FF" stroke-width="1.5" stroke-linecap="round" stroke-linejoin="round"/>
<path d="M154.196 156.946L151.28 157.663" stroke="#626262" stroke-width="1.5" stroke-linecap="round" stroke-linejoin="round"/>
<path d="M163.069 148.181C163.069 148.181 148.592 147.432 144.609 136.471C144.52 136.24 144.291 136.094 144.044 136.112C143.797 136.13 143.591 136.307 143.537 136.549C142.638 140.438 139.955 147.783 132.402 149.003" stroke="#626262" stroke-width="1.5" stroke-linecap="round" stroke-linejoin="round"/>
<path d="M163.069 151.784C163.069 151.784 170.958 146.517 166.391 136.875C161.824 127.234 144.369 122.051 134.727 129.565C134.727 129.565 115.191 127.216 117.17 154.88C119.149 182.545 116.409 188.177 123.868 189.395C131.328 190.613 150.606 182.24 145.686 175.085C140.766 167.93 130.768 154.535 130.768 154.535" stroke="#626262" stroke-width="1.5" stroke-linecap="round" stroke-linejoin="round"/>
<path d="M164.489 150.553C164.489 150.553 173.293 171.888 170.655 176.557C168.016 181.225 154.994 178.891 154.994 178.891" stroke="#626262" stroke-width="1.5" stroke-linecap="round" stroke-linejoin="round"/>
<path d="M163.069 154.88C163.071 163.583 157.129 171.162 148.677 173.237L146.919 173.669" stroke="#626262" stroke-width="1.5" stroke-linecap="round" stroke-linejoin="round"/>
</svg>
