<svg width="4588" height="3765" viewBox="0 0 4588 3765" fill="none" xmlns="http://www.w3.org/2000/svg">
<rect x="3100.46" y="1920.02" width="510.493" height="232.122" fill="black"/>
<rect x="3100.46" y="1855.16" width="510.493" height="232.122" fill="#B366FF"/>
<path d="M2525.65 3756.29H4185.77" stroke="black" stroke-width="14" stroke-linecap="round" stroke-linejoin="round"/>
<path d="M3355.71 2104.34V3756.29" stroke="black" stroke-width="14" stroke-linecap="round" stroke-linejoin="round"/>
<path d="M2090.15 2131.24V2973.54H45.3105" stroke="black" stroke-width="14" stroke-linecap="round" stroke-linejoin="round"/>
<path d="M2510.31 3755.67V2229.66" stroke="black" stroke-width="14" stroke-linecap="round" stroke-linejoin="round"/>
<path d="M342.639 1130.66H1696.65" stroke="black" stroke-width="14" stroke-linecap="round" stroke-linejoin="round"/>
<path d="M1067.74 1130.66V2973.54" stroke="black" stroke-width="14" stroke-linecap="round" stroke-linejoin="round"/>
<path d="M1067.74 2052.1H2113.37" stroke="black" stroke-width="14" stroke-linecap="round" stroke-linejoin="round"/>
<rect x="163.354" y="2448.65" width="78.1232" height="524.481" fill="#EDEEEF"/>
<path d="M241.477 2973.13H163.354V2448.65" stroke="black" stroke-width="14" stroke-linecap="round" stroke-linejoin="round"/>
<path d="M183.801 2546.77H241.465" stroke="black" stroke-width="14" stroke-linecap="round" stroke-linejoin="round"/>
<path d="M183.801 2567.89H241.465" stroke="black" stroke-width="14" stroke-linecap="round" stroke-linejoin="round"/>
<path d="M183.801 2589.02H241.465" stroke="black" stroke-width="14" stroke-linecap="round" stroke-linejoin="round"/>
<rect x="259.49" y="2448.65" width="78.1232" height="524.481" fill="#D6D6D6"/>
<path d="M337.6 2973.13H259.477V2448.65" stroke="black" stroke-width="14" stroke-linecap="round" stroke-linejoin="round"/>
<path d="M279.953 2546.77H337.617" stroke="black" stroke-width="14" stroke-linecap="round" stroke-linejoin="round"/>
<path d="M279.953 2567.89H337.617" stroke="black" stroke-width="14" stroke-linecap="round" stroke-linejoin="round"/>
<path d="M279.953 2589.02H337.617" stroke="black" stroke-width="14" stroke-linecap="round" stroke-linejoin="round"/>
<rect x="355.629" y="2448.65" width="78.1232" height="524.481" fill="#EDEEEF"/>
<path d="M433.753 2973.13H355.629V2448.65" stroke="black" stroke-width="14" stroke-linecap="round" stroke-linejoin="round"/>
<path d="M376.092 2546.77H433.756" stroke="black" stroke-width="14" stroke-linecap="round" stroke-linejoin="round"/>
<path d="M376.092 2567.89H433.756" stroke="black" stroke-width="14" stroke-linecap="round" stroke-linejoin="round"/>
<path d="M376.092 2589.02H433.756" stroke="black" stroke-width="14" stroke-linecap="round" stroke-linejoin="round"/>
<rect x="451.781" y="2448.65" width="78.1232" height="524.481" fill="#D6D6D6"/>
<path d="M529.905 2973.13H451.781V2448.65" stroke="black" stroke-width="14" stroke-linecap="round" stroke-linejoin="round"/>
<path d="M472.229 2546.77H529.893" stroke="black" stroke-width="14" stroke-linecap="round" stroke-linejoin="round"/>
<path d="M472.229 2567.89H529.893" stroke="black" stroke-width="14" stroke-linecap="round" stroke-linejoin="round"/>
<path d="M472.229 2589.02H529.893" stroke="black" stroke-width="14" stroke-linecap="round" stroke-linejoin="round"/>
<rect x="547.918" y="2448.65" width="78.1232" height="524.481" fill="#EDEEEF"/>
<path d="M626.036 2973.13H547.918V2448.65" stroke="black" stroke-width="14" stroke-linecap="round" stroke-linejoin="round"/>
<path d="M568.381 2546.77H626.045" stroke="black" stroke-width="14" stroke-linecap="round" stroke-linejoin="round"/>
<path d="M568.381 2567.89H626.045" stroke="black" stroke-width="14" stroke-linecap="round" stroke-linejoin="round"/>
<path d="M568.381 2589.02H626.045" stroke="black" stroke-width="14" stroke-linecap="round" stroke-linejoin="round"/>
<rect width="78.0593" height="524.918" transform="matrix(0.961318 -0.275441 0.280918 0.959732 636.141 2469.76)" fill="#D6D6D6"/>
<path d="M858.641 2952.03L783.601 2973.54L636.141 2469.76" stroke="black" stroke-width="14" stroke-linecap="round" stroke-linejoin="round"/>
<path d="M683.379 2558.37L738.767 2542.5" stroke="black" stroke-width="14" stroke-linecap="round" stroke-linejoin="round"/>
<path d="M689.307 2578.66L744.695 2562.79" stroke="black" stroke-width="14" stroke-linecap="round" stroke-linejoin="round"/>
<path d="M695.25 2598.95L750.638 2583.08" stroke="black" stroke-width="14" stroke-linecap="round" stroke-linejoin="round"/>
<path d="M2192.45 1635.65L1837.33 1523.84L1826.05 3753.12H2236.57L2192.45 3655.57C2390.97 2951.23 2192.45 1635.65 2192.45 1635.65Z" fill="#B366FF"/>
<path d="M2089.94 3006.14C2089.94 2484.01 1982.8 2060.73 1850.64 2060.73C1845.22 2060.76 1839.83 2061.49 1834.6 2062.9L1826.05 3753.12H1997.32C2053.68 3580.15 2089.94 3309.89 2089.94 3006.14Z" fill="black"/>
<path d="M2075.36 1662.9C2075.36 1662.9 2160.15 3032.12 1920.67 3680.4L1970.7 3753.11H1544.75C1544.75 3753.11 1503.22 2076.47 1503.22 1700.57L2075.36 1662.9Z" fill="#B366FF"/>
<path d="M1984.92 603.518V781.462L1762.12 835.641V535.35L1984.92 481.171V603.518Z" fill="#EDEEEF"/>
<path d="M1837.34 696.646C1837.34 696.646 1891.59 678.984 1909.44 705.996C1909.44 705.996 1932.08 680.868 1961.25 701.149" stroke="#B366FF" stroke-width="14" stroke-linecap="round" stroke-linejoin="round"/>
<path d="M1859.07 665.087C1862.36 665.087 1865.02 662.448 1865.02 659.193C1865.02 655.938 1862.36 653.299 1859.07 653.299C1855.78 653.299 1853.11 655.938 1853.11 659.193C1853.11 662.448 1855.78 665.087 1859.07 665.087Z" fill="black"/>
<path d="M1950.55 665.087C1953.84 665.087 1956.51 662.448 1956.51 659.193C1956.51 655.938 1953.84 653.299 1950.55 653.299C1947.26 653.299 1944.6 655.938 1944.6 659.193C1944.6 662.448 1947.26 665.087 1950.55 665.087Z" fill="black"/>
<path d="M1923.72 694.348V603.517H1969.71" stroke="black" stroke-width="14"/>
<path d="M1847.84 603.517H1893.84" stroke="black" stroke-width="14"/>
<path d="M1776.8 650.061V681.603C1759.6 681.603 1745.66 667.81 1745.66 650.795C1745.66 649.85 1745.7 648.915 1745.79 647.991C1747.53 628.86 1776.8 630.852 1776.8 650.061Z" fill="#EDEEEF"/>
<path d="M1776.8 681.607C1759.6 681.607 1745.66 667.814 1745.66 650.799" stroke="black" stroke-width="14"/>
<path d="M1896.65 716.743C1886.92 716.743 1879.03 708.94 1879.03 699.315" stroke="#B366FF" stroke-width="14" stroke-linecap="round" stroke-linejoin="round"/>
<path d="M1826.06 820.095L1762.12 835.642" stroke="black" stroke-width="14"/>
<path d="M1923.71 694.421L1903.6 699.313" stroke="black" stroke-width="14" stroke-linecap="round"/>
<path d="M2192.44 1154.29V1635.65L1503.22 1803.25V1267.15C1503.22 1077.05 1634.39 911.521 1820.96 866.15H1820.96C1910.44 844.391 2005.06 864.535 2077.57 920.78C2150.09 977.024 2192.44 1063.13 2192.44 1154.29L2192.44 1154.29Z" fill="#EDEEEF"/>
<path d="M1787.74 659.193C1787.74 659.193 1754.14 768.336 1832.54 825.129C1905.54 878.007 2020.61 847.048 1993.38 723.362C1987.73 697.551 1984.89 671.214 1984.91 644.803V637.434" stroke="#B366FF" stroke-width="14" stroke-linecap="round" stroke-linejoin="round"/>
<path d="M1761.23 634.626C1761.23 634.626 1687.11 500.332 1801.24 476.135C1801.24 476.135 1847.65 418.78 1913.66 446.562C1979.68 474.343 2011.38 454.842 2012.29 481.172C2013.19 507.501 2016.44 551.413 1984.92 573.818" stroke="#B366FF" stroke-width="14" stroke-linecap="round" stroke-linejoin="round"/>
<path d="M1807.34 634.611L1826.05 559.17C1826.05 559.17 1962.28 561.248 1984.92 524.54" stroke="#B366FF" stroke-width="14" stroke-linecap="round" stroke-linejoin="round"/>
<path d="M2075.37 1662.9C2075.37 1662.9 2160.16 3032.12 1920.68 3680.4L1970.7 3753.11" stroke="black" stroke-width="14"/>
<path d="M1644.47 957.476C1644.47 957.476 1528.73 1409.68 1668.74 1578.68C1808.75 1747.67 2463.98 1647.94 2654.39 1465.09C2654.39 1465.09 2721.59 1448.47 2735.59 1415.22C2735.59 1415.22 2799.99 1462.32 2797.19 1431.85C2794.39 1401.37 2771.99 1306.4 2657.19 1330.34C2542.38 1354.28 1984.92 1365.36 1984.92 1365.36L1997.47 1127.1" stroke="black" stroke-width="14"/>
<path d="M2160.68 1020.98C2160.68 1020.98 2244.88 1182.47 2234.03 1358.41" stroke="black" stroke-width="14"/>
<path d="M2206.71 1740.03C2206.71 1740.03 2431.06 1828.19 2525.92 1548.29" stroke="black" stroke-width="14"/>
<path d="M2310.14 1355.58C2310.14 1355.58 2547.86 1234.11 2584.39 1285.02L2620.92 1335.93" stroke="black" stroke-width="14"/>
<rect x="663.312" y="94.7959" width="547.887" height="778.46" fill="#B366FF"/>
<path d="M1112.36 503.422L1043.58 571.472L824.567 354.787L663.312 514.33V873.256H1211.2V601.215L1112.36 503.422Z" fill="black"/>
<path fill-rule="evenodd" clip-rule="evenodd" d="M1296.95 700.086C1283.16 715.76 1274.09 742.166 1274.09 772.105C1274.09 811.194 1289.54 844.268 1310.8 855.285V961.057H1250.64C1240.97 940.445 1213.34 925.56 1180.74 925.56C1155.43 925.56 1133.11 934.527 1119.87 948.179C1106.62 934.527 1084.3 925.56 1059 925.56C1033.69 925.56 1011.38 934.527 998.129 948.179C984.882 934.527 962.565 925.56 937.261 925.56C911.956 925.56 889.639 934.527 876.392 948.179C863.145 934.527 840.828 925.56 815.523 925.56C790.218 925.56 767.901 934.527 754.655 948.179C741.408 934.527 719.091 925.56 693.786 925.56C661.185 925.56 633.553 940.445 623.881 961.057H563.717V855.285C584.984 844.268 600.427 811.194 600.427 772.105C600.427 742.166 591.364 715.76 577.566 700.086C591.364 684.413 600.427 658.007 600.427 628.066C600.427 598.127 591.364 571.722 577.566 556.047C591.364 540.374 600.427 513.968 600.427 484.028C600.427 454.088 591.364 427.683 577.566 412.009C591.364 396.335 600.427 369.93 600.427 339.989C600.427 310.05 591.364 283.644 577.566 267.97C591.364 252.297 600.427 225.891 600.427 195.951C600.427 156.862 584.984 123.789 563.717 112.772V7H623.881C633.553 27.6117 661.185 42.4962 693.786 42.4962C719.091 42.4962 741.408 33.5292 754.655 19.8776C767.901 33.5292 790.218 42.4962 815.523 42.4962C840.828 42.4962 863.145 33.5292 876.392 19.8776C889.639 33.5292 911.956 42.4962 937.261 42.4962C962.565 42.4962 984.882 33.5292 998.129 19.8776C1011.38 33.5292 1033.69 42.4962 1059 42.4962C1084.3 42.4962 1106.62 33.5292 1119.87 19.8776C1133.11 33.5292 1155.43 42.4962 1180.74 42.4962C1213.34 42.4962 1240.97 27.6117 1250.64 7H1310.8V112.772C1289.54 123.789 1274.09 156.862 1274.09 195.951C1274.09 225.891 1283.16 252.297 1296.95 267.97C1283.16 283.644 1274.09 310.05 1274.09 339.989C1274.09 369.93 1283.16 396.335 1296.95 412.009C1283.16 427.683 1274.09 454.088 1274.09 484.028C1274.09 513.968 1283.16 540.374 1296.95 556.047C1283.16 571.722 1274.09 598.127 1274.09 628.066C1274.09 658.007 1283.16 684.413 1296.95 700.086ZM663.312 873.256H1211.2V94.7964H663.312V873.256Z" fill="#EDEEEF"/>
<path d="M1039.85 275.707C1024.76 275.707 1012.53 287.809 1012.53 302.737H1067.17C1067.17 295.568 1064.29 288.693 1059.16 283.624C1054.04 278.555 1047.09 275.707 1039.85 275.707Z" fill="#EDEEEF"/>
<path d="M1134.06 280.819C1121.82 280.819 1111.9 290.634 1111.9 302.741H1156.21C1156.21 290.634 1146.29 280.819 1134.06 280.819Z" fill="#EDEEEF"/>
<path d="M1083.03 248.705C1052.87 248.705 1028.41 272.897 1028.41 302.739H1137.64C1137.64 272.897 1113.19 248.705 1083.03 248.705Z" fill="#EDEEEF"/>
<path d="M1007.07 302.741H1166.82" stroke="black" stroke-width="14" stroke-linecap="round" stroke-linejoin="round"/>
<path d="M869.271 448.101C854.183 448.101 841.951 460.202 841.951 475.13H896.59C896.59 460.202 884.359 448.101 869.271 448.101Z" fill="#EDEEEF"/>
<path d="M963.481 453.213C951.244 453.213 941.324 463.027 941.324 475.134H985.637C985.637 463.027 975.717 453.213 963.481 453.213Z" fill="#EDEEEF"/>
<path d="M912.451 421.098C882.289 421.098 857.838 445.289 857.838 475.131H967.064C967.064 445.289 942.613 421.098 912.451 421.098Z" fill="#EDEEEF"/>
<path d="M836.492 475.134H996.242" stroke="black" stroke-width="14" stroke-linecap="round" stroke-linejoin="round"/>
<path d="M1022.01 383.356C1013.33 383.356 1006.29 390.322 1006.29 398.915H1037.74C1037.74 390.322 1030.7 383.356 1022.01 383.356V383.356Z" fill="#EDEEEF"/>
<path d="M1076.25 386.299C1069.21 386.299 1063.5 391.948 1063.5 398.917H1089.01C1089.01 391.948 1083.3 386.299 1076.25 386.299Z" fill="#EDEEEF"/>
<path d="M1046.88 367.814C1029.51 367.814 1015.44 381.739 1015.44 398.916H1078.31C1078.31 381.739 1064.24 367.814 1046.88 367.814V367.814Z" fill="#EDEEEF"/>
<path d="M1003.16 398.915H1095.11" stroke="black" stroke-width="14" stroke-linecap="round" stroke-linejoin="round"/>
<path d="M929.213 248.708C907.725 248.697 887.385 239.111 873.835 222.611C860.285 206.11 854.966 184.45 859.354 163.638C825.13 172.117 802.304 204.066 805.644 238.816C808.983 273.566 837.486 300.686 872.712 302.633C907.938 304.579 939.315 280.766 946.544 246.6C940.876 248.001 935.055 248.709 929.213 248.708Z" fill="#EDEEEF"/>
<path d="M563.717 855.285V961.057H623.881C633.553 940.445 661.185 925.56 693.786 925.56C719.091 925.56 741.408 934.527 754.655 948.179C767.901 934.527 790.218 925.56 815.523 925.56C840.828 925.56 863.145 934.527 876.392 948.179C889.639 934.527 911.956 925.56 937.261 925.56C962.565 925.56 984.882 934.527 998.129 948.179C1011.38 934.527 1033.69 925.56 1059 925.56C1084.3 925.56 1106.62 934.527 1119.87 948.179C1133.11 934.527 1155.43 925.56 1180.74 925.56C1213.34 925.56 1240.97 940.445 1250.64 961.057H1310.8V855.285C1289.54 844.268 1274.09 811.194 1274.09 772.105C1274.09 742.166 1283.16 715.76 1296.95 700.086C1283.16 684.413 1274.09 658.007 1274.09 628.066C1274.09 598.127 1283.16 571.722 1296.95 556.047C1283.16 540.374 1274.09 513.968 1274.09 484.028C1274.09 454.088 1283.16 427.683 1296.95 412.009C1283.16 396.335 1274.09 369.93 1274.09 339.989C1274.09 310.05 1283.16 283.644 1296.95 267.97C1283.16 252.297 1274.09 225.891 1274.09 195.951C1274.09 156.862 1289.54 123.789 1310.8 112.772V7H1250.64" stroke="black" stroke-width="14" stroke-linecap="round" stroke-linejoin="round"/>
<path d="M663.312 873.255V94.7959H1211.2" stroke="black" stroke-width="14" stroke-linecap="round" stroke-linejoin="round"/>
<path d="M3045.02 2905H3045.02C3111.2 2905 3164.85 2958.08 3164.85 3023.56V3507.42H2925.19V3023.56C2925.19 2958.08 2978.84 2905 3045.02 2905Z" fill="black"/>
<rect x="2864.65" y="3485.71" width="360.725" height="222.551" fill="#B366FF"/>
<path d="M2929.11 3751.7H2864.65V3639.05H2990.84L2929.11 3751.7Z" fill="#B366FF"/>
<path d="M3160.91 3751.7H3225.38V3639.05H3099.19L3160.91 3751.7Z" fill="#B366FF"/>
<path d="M2987.48 3341.07H2930.58C2856.54 3340.99 2796.53 3281.62 2796.45 3208.36V3152.07C2796.46 3121.88 2821.2 3097.42 2851.72 3097.42C2882.23 3097.42 2906.97 3121.88 2906.99 3152.07V3208.36C2907 3221.25 2917.56 3231.69 2930.58 3231.71H2987.48C3018 3231.71 3042.75 3256.19 3042.75 3286.39C3042.75 3316.59 3018 3341.07 2987.48 3341.07Z" fill="black"/>
<path d="M3102.56 3413.5H3159.45C3233.5 3413.42 3293.5 3354.05 3293.59 3280.79V3224.5C3293.59 3194.3 3268.84 3169.82 3238.32 3169.82C3207.79 3169.82 3183.05 3194.3 3183.05 3224.5V3280.79C3183.03 3293.68 3172.48 3304.12 3159.45 3304.14H3102.56C3072.03 3304.14 3047.29 3328.62 3047.29 3358.82C3047.29 3389.02 3072.03 3413.5 3102.56 3413.5Z" fill="black"/>
<path d="M3913.12 1785.52H3860.52L4120.85 958.416L4155.77 994.08L3913.12 1785.52Z" fill="black"/>
<path d="M3860.31 1785.52H2911.08L3171.4 958.416H4120.63L3860.31 1785.52Z" fill="#B366FF"/>
<path d="M3812.24 1741.52H2995.49L3219.48 1029.85H4036.23L3812.24 1741.52Z" fill="#EDEEEF"/>
<path d="M3896.66 1842.71H2464.84V1741.52H3925.92L3896.66 1842.71Z" fill="black"/>
<path d="M3896.66 1842.71H2464.84V1741.52H3925.92L3896.66 1842.71Z" fill="black"/>
<rect x="3553.24" y="1780.38" width="58.2055" height="23.4651" rx="4" fill="#D6D6D6"/>
<rect x="3659.07" y="1780.38" width="58.2056" height="23.4651" rx="4" fill="#D6D6D6"/>
<rect x="3764.9" y="1780.38" width="58.2056" height="23.4651" rx="4" fill="#D6D6D6"/>
<path d="M2995.49 1741.52L3219.48 1029.85H4036.23" stroke="black" stroke-width="14" stroke-linecap="round" stroke-linejoin="round"/>
<path d="M2511.88 1842.71H4108.74" stroke="black" stroke-width="14" stroke-linecap="round" stroke-linejoin="round"/>
<path d="M0 3758L4587.07 3758" stroke="black" stroke-width="14"/>
</svg>
