<svg width="3985" height="3878" viewBox="0 0 3985 3878" fill="none" xmlns="http://www.w3.org/2000/svg">
<path d="M3428.48 781.235H3428.48C3409.23 752.104 3379.38 731.547 3345.22 723.892L3343.17 723.434C3343.17 723.434 3355.46 809.242 3445.32 820.257L3448.52 1052.51V847.853C3448.52 824.174 3441.55 801.014 3428.48 781.235Z" fill="#EDEEEF"/>
<path d="M3553.87 750.973L3551.82 751.431C3517.66 759.086 3487.81 779.643 3468.56 808.773L3468.56 808.774C3455.49 828.553 3448.52 851.713 3448.52 875.392V1080.05L3453.63 840.641C3543.49 829.626 3553.87 750.973 3553.87 750.973Z" fill="#EDEEEF"/>
<rect x="3379.39" y="1025.08" width="138.265" height="332.339" fill="#EDEEEF"/>
<path d="M3448.53 1052.51V847.853C3448.53 824.174 3441.57 801.014 3428.5 781.235V781.235C3409.24 752.104 3379.4 731.548 3345.23 723.892L3343.19 723.434C3343.19 723.434 3337.66 806.047 3427.52 817.062" stroke="black" stroke-width="14" stroke-linecap="round" stroke-linejoin="round"/>
<path d="M3448.52 1080.05V875.392C3448.52 851.713 3455.49 828.553 3468.56 808.774V808.774C3487.81 779.643 3517.66 759.087 3551.82 751.431L3553.87 750.973C3553.87 750.973 3559.4 833.586 3469.54 844.601" stroke="black" stroke-width="14" stroke-linecap="round" stroke-linejoin="round"/>
<path d="M3448.54 1038.27V919.399C3448.54 905.646 3444.49 892.193 3436.9 880.705V880.705C3425.71 863.785 3408.38 851.845 3388.54 847.398L3387.35 847.132C3387.35 847.132 3384.14 895.117 3436.33 901.515" stroke="black" stroke-width="14" stroke-linecap="round" stroke-linejoin="round"/>
<path d="M3705.17 1206.21C3689.45 1206.21 3676.71 1218.99 3676.71 1234.75C3676.71 1250.51 3689.45 1263.29 3705.17 1263.29C3720.89 1263.29 3733.63 1250.51 3733.63 1234.75C3733.63 1218.99 3720.89 1206.21 3705.17 1206.21Z" fill="#FFAB65"/>
<rect x="3642.93" y="1227.39" width="130.128" height="130.45" fill="#D6D6D6"/>
<path d="M3773.06 1227.39V1357.84H3642.93" stroke="black" stroke-width="14" stroke-linecap="round" stroke-linejoin="round"/>
<rect x="475.73" y="2250.17" width="492.879" height="204.759" fill="black"/>
<rect x="475.73" y="2192.95" width="492.879" height="204.759" fill="#FFAB65"/>
<path d="M722.176 2412.77V3869.98" stroke="black" stroke-width="14" stroke-linecap="round" stroke-linejoin="round"/>
<path d="M721.826 2192.95C1116.61 2192.95 1436.65 1773.93 1436.65 1257.04C1436.65 740.146 1116.61 321.123 721.826 321.123C327.038 321.123 7 740.146 7 1257.04C7 1773.93 327.038 2192.95 721.826 2192.95Z" fill="#FFAB65"/>
<path d="M721.818 1889.65C988.665 1889.65 1204.99 1606.42 1204.99 1257.04C1204.99 907.657 988.665 624.429 721.818 624.429C454.971 624.429 238.648 907.657 238.648 1257.04C238.648 1606.42 454.971 1889.65 721.818 1889.65Z" fill="#EDEEEF"/>
<path d="M481.527 1495.9V1907.61L998.836 2050.96V1592.43C998.836 1429.85 900.387 1288.26 760.347 1249.46L760.346 1249.46C618.497 1210.15 481.527 1331.22 481.527 1495.9L481.527 1495.9Z" fill="#FFAB65"/>
<path d="M686.852 1064.64V1091.61C673.944 1091.61 663.48 1079.82 663.48 1065.26C663.48 1064.46 663.512 1063.66 663.576 1062.87C664.885 1046.5 686.852 1048.21 686.852 1064.64Z" fill="#EDEEEF"/>
<path d="M527.45 1342.15L356.07 1670.43" stroke="black" stroke-width="14" stroke-linecap="round" stroke-linejoin="round"/>
<path d="M398.035 1734.02L705.297 1820.69V1410.76" stroke="black" stroke-width="14" stroke-linecap="round" stroke-linejoin="round"/>
<path d="M1436.65 1257.04C1436.65 1773.93 1116.61 2192.95 721.826 2192.95C327.038 2192.95 7 1773.93 7 1257.04" stroke="black" stroke-width="14" stroke-linecap="round" stroke-linejoin="round"/>
<path d="M238.648 1257.04C238.648 907.657 454.971 624.429 721.818 624.429" stroke="black" stroke-width="14" stroke-linecap="round" stroke-linejoin="round"/>
<rect width="1376.68" height="48.8221" transform="matrix(-1 0 0 1 3875.21 1359.83)" fill="#FFAB65"/>
<path d="M3588.98 1408.65L3523.16 1442.11V1408.65H3588.98Z" fill="black"/>
<path d="M2850.57 1408.65L2784.75 1442.11V1408.65H2850.57Z" fill="black"/>
<path d="M2498.53 1359.83V1408.65H3875.21" stroke="black" stroke-width="14" stroke-linecap="round" stroke-linejoin="round"/>
<path d="M1739.98 1631.12C1740.3 1658.5 1742.24 1685.82 1745.82 1712.96C1786.39 1760.51 1888.44 1866.28 2024.78 1916.51C2037.64 1904.6 2049.28 1891.44 2059.52 1877.21L2059.51 1877.2C1930.78 1802.89 1802.76 1692.25 1740.08 1631.2L1739.98 1631.12Z" fill="#EDEEEF"/>
<path d="M1688.16 1518.81L1641.27 1302.29H1787.56L1823.2 1498.12" fill="#FFAB65"/>
<path d="M1641.27 1302.29H1787.56L1811.08 1431.51" stroke="black" stroke-width="14" stroke-linecap="round" stroke-linejoin="round"/>
<path d="M2370.37 1913.73L2044.35 1953.14C2044.35 1953.14 1546.38 2291.92 1743.31 2737.68C1940.24 3183.44 2086.53 3335.79 2086.53 3335.79V3448.64L2308.64 3341.43L2181.43 2636.11L2308.64 2478.12L2370.37 1913.73Z" fill="#FFAB65"/>
<path d="M2140.82 1943.9L2659.91 1913.73V2478.08V3869.98H2251.95L2295.08 3792.46L2140.82 1943.9Z" fill="#FFAB65"/>
<path d="M2295.08 3792.45L2140.82 1943.9" stroke="black" stroke-width="14" stroke-linecap="round" stroke-linejoin="round"/>
<path d="M2044.37 1517.39V1953.14L2659.92 2104.86V1619.55C2659.92 1447.47 2542.77 1297.62 2376.14 1256.55H2376.14C2296.22 1236.85 2211.72 1255.09 2146.96 1306.01C2082.2 1356.92 2044.37 1434.86 2044.37 1517.39V1517.39Z" fill="#EDEEEF"/>
<path d="M2618.47 1595.3C2618.47 1595.3 2515.05 1873.34 2330.88 1943.9C2146.71 2014.47 1755.96 1655.88 1705.67 1595.3C1664.66 1545.9 1650.65 1447.33 1705.67 1449.84C1760.69 1452.35 1810.71 1489.97 1810.71 1489.97C1810.71 1489.97 1810.71 1439.71 1830.71 1449.79C1838.72 1453.82 1846.72 1463.47 1853.44 1473.59C1868.76 1496.27 1889.92 1514.37 1914.68 1525.96L2231.2 1676.76L2352.14 1424.76" stroke="black" stroke-width="14" stroke-linecap="round" stroke-linejoin="round"/>
<path d="M2330.86 1943.9C2260.43 1970.88 2159.78 1935.08 2059.52 1877.2C2099.07 1947.88 2188.17 1997.19 2291.82 1997.19C2432.2 1997.19 2545.99 1906.8 2545.99 1795.3C2546.35 1780.22 2543.89 1765.2 2538.74 1751.02C2490.01 1827.23 2419.87 1909.79 2330.86 1943.9Z" fill="black"/>
<path d="M2131.68 1318.97C2131.68 1318.97 2002.01 1442.32 1974.5 1562.7" stroke="black" stroke-width="14" stroke-linecap="round" stroke-linejoin="round"/>
<path d="M1739.99 1631.12C1739.99 1631.12 1738.65 1868.63 1850.71 1943.9C1962.78 2019.17 2059.53 1877.21 2059.53 1877.21" stroke="black" stroke-width="14" stroke-linecap="round" stroke-linejoin="round"/>
<path d="M1906.96 1518.8C1906.96 1518.8 1903.21 1378.36 1863.2 1350.77C1823.19 1323.18 1791.93 1326.38 1793.22 1333.44C1794.5 1340.5 1820.69 1365.82 1839.44 1377.1" stroke="black" stroke-width="14" stroke-linecap="round" stroke-linejoin="round"/>
<path d="M2181.43 1018.8V1088.33C2181.43 1142.09 2218.02 1188.91 2270.08 1201.74L2380.41 1228.93V957.096L2288.67 934.485C2262.84 928.118 2235.52 934.012 2214.59 950.472C2193.65 966.931 2181.43 992.127 2181.43 1018.8V1018.8Z" fill="#EDEEEF"/>
<path d="M2293.84 1074.53C2296.78 1074.53 2299.16 1072.14 2299.16 1069.2C2299.16 1066.25 2296.78 1063.86 2293.84 1063.86C2290.91 1063.86 2288.52 1066.25 2288.52 1069.2C2288.52 1072.14 2290.91 1074.53 2293.84 1074.53Z" fill="black"/>
<path d="M2212.13 1074.53C2215.07 1074.53 2217.45 1072.14 2217.45 1069.2C2217.45 1066.25 2215.07 1063.86 2212.13 1063.86C2209.19 1063.86 2206.81 1066.25 2206.81 1069.2C2206.81 1072.14 2209.19 1074.53 2212.13 1074.53Z" fill="black"/>
<path d="M2236.08 1101.03V1018.8H2195" stroke="black" stroke-width="14" stroke-linecap="round" stroke-linejoin="round"/>
<path d="M2303.85 1018.8H2262.77" stroke="black" stroke-width="14" stroke-linecap="round" stroke-linejoin="round"/>
<path d="M2367.32 1060.93V1089.49C2382.68 1089.49 2395.13 1077 2395.13 1061.6C2395.13 1060.74 2395.09 1059.89 2395.01 1059.06C2393.45 1041.74 2367.32 1043.54 2367.32 1060.93Z" fill="#EDEEEF"/>
<path d="M2367.32 1089.49C2382.68 1089.49 2395.13 1077 2395.13 1061.6" stroke="black" stroke-width="14" stroke-linecap="round" stroke-linejoin="round"/>
<path d="M2258.54 1110.63C2262 1114.1 2266.68 1116.04 2271.56 1116.04C2276.45 1116.04 2281.13 1114.1 2284.59 1110.63" stroke="#FFAB65" stroke-width="14" stroke-linecap="round" stroke-linejoin="round"/>
<path d="M2236.09 1101.09L2254.05 1105.52" stroke="black" stroke-width="14" stroke-linecap="round" stroke-linejoin="round"/>
<path d="M2181.43 1046.95C2181.43 1046.95 2270.61 1042.32 2295.15 974.601C2295.69 973.173 2297.11 972.273 2298.63 972.384C2300.15 972.496 2301.42 973.592 2301.75 975.084C2307.29 999.114 2323.82 1044.49 2370.35 1052.03" stroke="black" stroke-width="14" stroke-linecap="round" stroke-linejoin="round"/>
<path d="M2181.43 1069.2C2181.43 1069.2 2132.83 1036.66 2160.96 977.099C2189.1 917.536 2296.63 885.514 2356.03 931.934C2356.03 931.934 2476.38 917.422 2464.19 1088.33C2452 1259.24 2468.88 1294.04 2422.92 1301.56C2376.97 1309.08 2258.21 1257.36 2288.52 1213.16C2318.83 1168.95 2380.42 1086.2 2380.42 1086.2" stroke="black" stroke-width="14" stroke-linecap="round" stroke-linejoin="round"/>
<path d="M2172.7 1061.6C2172.7 1061.6 2118.46 1193.41 2134.72 1222.25C2150.97 1251.09 2231.19 1236.67 2231.19 1236.67" stroke="black" stroke-width="14" stroke-linecap="round" stroke-linejoin="round"/>
<path d="M2181.45 1088.33C2181.44 1142.1 2218.04 1188.92 2270.11 1201.74L2280.94 1204.41" stroke="black" stroke-width="14" stroke-linecap="round" stroke-linejoin="round"/>
<path d="M849.426 1005.28V1082.39C849.426 1142.01 808.837 1193.93 751.1 1208.16L628.742 1238.32V936.843L730.482 911.766C759.132 904.705 789.428 911.242 812.646 929.496C835.864 947.75 849.426 975.694 849.426 1005.28V1005.28Z" fill="#EDEEEF"/>
<path d="M724.748 1067.09C721.489 1067.09 718.847 1064.44 718.847 1061.17C718.847 1057.9 721.489 1055.25 724.748 1055.25C728.007 1055.25 730.648 1057.9 730.648 1061.17C730.648 1064.44 728.007 1067.09 724.748 1067.09Z" fill="black"/>
<path d="M815.373 1067.09C812.114 1067.09 809.472 1064.44 809.472 1061.17C809.472 1057.9 812.114 1055.25 815.373 1055.25C818.632 1055.25 821.273 1057.9 821.273 1061.17C821.273 1064.44 818.632 1067.09 815.373 1067.09Z" fill="black"/>
<path d="M788.8 1096.47V1005.28H834.355" stroke="black" stroke-width="14" stroke-linecap="round" stroke-linejoin="round"/>
<path d="M713.641 1005.28H759.195" stroke="black" stroke-width="14" stroke-linecap="round" stroke-linejoin="round"/>
<path d="M643.266 1052V1083.67C626.232 1083.67 612.423 1069.82 612.423 1052.74C612.423 1051.79 612.465 1050.85 612.549 1049.92C614.277 1030.72 643.266 1032.72 643.266 1052Z" fill="#EDEEEF"/>
<path d="M643.266 1083.67C626.232 1083.67 612.423 1069.82 612.423 1052.74" stroke="black" stroke-width="14" stroke-linecap="round" stroke-linejoin="round"/>
<path d="M763.895 1107.12C760.064 1110.97 754.87 1113.12 749.453 1113.12C744.037 1113.12 738.842 1110.97 735.012 1107.12" stroke="#FFAB65" stroke-width="14" stroke-linecap="round" stroke-linejoin="round"/>
<path d="M788.785 1096.54L768.861 1101.45" stroke="black" stroke-width="14" stroke-linecap="round" stroke-linejoin="round"/>
<path d="M849.426 1036.49C849.426 1036.49 750.516 1031.36 723.305 956.253C722.699 954.67 721.13 953.671 719.444 953.794C717.758 953.918 716.351 955.134 715.98 956.789C709.837 983.439 691.508 1033.76 639.901 1042.12" stroke="black" stroke-width="14" stroke-linecap="round" stroke-linejoin="round"/>
<path d="M849.415 1061.17C849.415 1061.17 903.319 1025.08 872.116 959.026C840.914 892.968 721.653 857.455 655.781 908.936C655.781 908.936 522.305 892.842 535.826 1082.39C549.347 1271.93 530.626 1310.52 581.59 1318.87C632.553 1327.21 764.27 1269.85 730.654 1220.82C697.038 1171.8 628.732 1080.02 628.732 1080.02" stroke="black" stroke-width="14" stroke-linecap="round" stroke-linejoin="round"/>
<path d="M859.116 1052.74C859.116 1052.74 919.266 1198.92 901.238 1230.9C883.21 1262.89 794.245 1246.9 794.245 1246.9" stroke="black" stroke-width="14" stroke-linecap="round" stroke-linejoin="round"/>
<path d="M849.398 1082.39C849.412 1142.01 808.817 1193.94 751.073 1208.16L739.059 1211.12" stroke="black" stroke-width="14" stroke-linecap="round" stroke-linejoin="round"/>
<path d="M137.918 3869.98L3985.01 3869.98" stroke="black" stroke-width="14"/>
<path d="M3033.74 3104.82C3033.74 3104.82 3558.57 3259.6 3783.11 3031.68C4007.64 2803.76 3808.44 2105.7 3558.93 2152.88C3309.41 2200.06 3168.8 2876.64 3168.8 2876.64C3168.8 2876.64 2611.34 2946.69 3033.74 3104.82Z" fill="#EDEEEF"/>
<path d="M2894.07 3030.09C2788.69 2924.4 3168.79 2876.64 3168.79 2876.64C3168.79 2876.64 3151.63 3009.09 3014 3056.51C2972.15 3070.93 2925.36 3061.47 2894.07 3030.09Z" fill="black"/>
<path d="M3033.75 3104.83C3033.75 3104.83 3558.58 3259.61 3783.12 3031.68" stroke="black" stroke-width="14" stroke-linecap="round" stroke-linejoin="round"/>
<path d="M3408.43 3156.09V3870.4" stroke="black" stroke-width="14" stroke-linecap="round" stroke-linejoin="round"/>
<path d="M1736.7 631.672C1757.53 631.672 1774.42 614.737 1774.42 593.845C1774.42 572.954 1757.53 556.018 1736.7 556.018C1715.87 556.018 1698.98 572.954 1698.98 593.845C1698.98 614.737 1715.87 631.672 1736.7 631.672Z" fill="#FFAB65"/>
<path d="M1979.93 584.195C1844.96 451.048 1628.45 451.048 1493.47 584.195H1979.93Z" fill="#EDEEEF"/>
<path d="M1736.69 7.73633V485.716" stroke="black" stroke-width="14" stroke-linecap="round" stroke-linejoin="round"/>
<path d="M1493.47 584.195H1979.93C1915.12 520.102 1827.73 484.22 1736.7 484.335" stroke="black" stroke-width="14" stroke-linecap="round" stroke-linejoin="round"/>
<path d="M2961.58 1096.11C2949.32 1096.11 2939.38 1106.08 2939.38 1118.38C2939.38 1130.68 2949.32 1140.64 2961.58 1140.64C2973.84 1140.64 2983.79 1130.68 2983.79 1118.38C2983.79 1106.08 2973.84 1096.11 2961.58 1096.11Z" fill="#FFAB65"/>
<rect x="3019.25" y="1359.43" width="115.317" height="235.376" transform="rotate(-180 3019.25 1359.43)" fill="#EDEEEF"/>
<path d="M2903.93 1359.43L2903.93 1124.05L3019.25 1124.05" stroke="black" stroke-width="14" stroke-linecap="round" stroke-linejoin="round"/>
<path d="M3125.64 1019.88C3109.92 1019.88 3097.18 1032.66 3097.18 1048.42C3097.18 1064.18 3109.92 1076.96 3125.64 1076.96C3141.35 1076.96 3154.09 1064.18 3154.09 1048.42C3154.09 1032.66 3141.35 1019.88 3125.64 1019.88Z" fill="#FFAB65"/>
<rect x="3199.54" y="1357.38" width="147.803" height="301.683" transform="rotate(-180 3199.54 1357.38)" fill="#EDEEEF"/>
<path d="M3051.73 1357.38L3051.73 1055.7L3199.54 1055.7" stroke="black" stroke-width="14" stroke-linecap="round" stroke-linejoin="round"/>
<path d="M3676.73 1280.22H3733.29" stroke="black" stroke-width="14"/>
<path d="M3676.73 1301.23H3733.29" stroke="black" stroke-width="14"/>
</svg>
