<svg width="596" height="580" viewBox="0 0 596 580" fill="none" xmlns="http://www.w3.org/2000/svg">
<path d="M512.761 116.695H512.761C509.882 112.338 505.417 109.263 500.307 108.118L500.001 108.049C500.001 108.049 501.84 120.884 515.28 122.531L515.758 157.27V126.659C515.758 123.117 514.716 119.653 512.761 116.695V116.695Z" fill="#EDEEEF"/>
<path d="M531.515 112.168L531.209 112.236C526.1 113.382 521.635 116.456 518.755 120.813L518.755 120.813C516.8 123.772 515.758 127.236 515.758 130.778V161.389L516.523 125.58C529.963 123.932 531.515 112.168 531.515 112.168Z" fill="#EDEEEF"/>
<rect x="505.418" y="153.167" width="20.6806" height="49.7088" fill="#EDEEEF"/>
<path d="M515.759 157.27V126.659C515.759 123.117 514.717 119.653 512.761 116.695V116.695C509.882 112.338 505.417 109.263 500.308 108.118L500.002 108.049C500.002 108.049 499.175 120.406 512.615 122.054" stroke="#626262" stroke-width="1.5" stroke-linecap="round" stroke-linejoin="round"/>
<path d="M515.758 161.389V130.778C515.758 127.236 516.8 123.772 518.755 120.813V120.813C521.635 116.456 526.1 113.382 531.209 112.237L531.515 112.168C531.515 112.168 532.342 124.525 518.902 126.172" stroke="#626262" stroke-width="1.5" stroke-linecap="round" stroke-linejoin="round"/>
<path d="M515.759 155.14V137.36C515.759 135.303 515.154 133.291 514.018 131.572V131.572C512.346 129.042 509.752 127.256 506.785 126.591L506.607 126.551C506.607 126.551 506.126 133.728 513.933 134.685" stroke="#626262" stroke-width="1.5" stroke-linecap="round" stroke-linejoin="round"/>
<path d="M554.148 180.26C551.797 180.26 549.891 182.171 549.891 184.528C549.891 186.886 551.797 188.797 554.148 188.797C556.499 188.797 558.404 186.886 558.404 184.528C558.404 182.171 556.499 180.26 554.148 180.26Z" fill="#FFAB65"/>
<rect x="544.838" y="183.427" width="19.4635" height="19.5118" fill="#D6D6D6"/>
<path d="M564.301 183.427V202.939H544.838" stroke="#626262" stroke-width="1.5" stroke-linecap="round" stroke-linejoin="round"/>
<rect x="71.1113" y="336.406" width="73.7213" height="30.6263" fill="#626262"/>
<rect x="71.1113" y="327.849" width="73.7213" height="30.6263" fill="#FFAB65"/>
<path d="M107.972 360.727V578.685" stroke="#626262" stroke-width="1.5" stroke-linecap="round" stroke-linejoin="round"/>
<path d="M107.918 327.848C166.968 327.848 214.837 265.174 214.837 187.861C214.837 110.548 166.968 47.8735 107.918 47.8735C48.869 47.8735 1 110.548 1 187.861C1 265.174 48.869 327.848 107.918 327.848Z" fill="#FFAB65"/>
<path d="M107.918 282.482C147.831 282.482 180.187 240.119 180.187 187.861C180.187 135.603 147.831 93.2397 107.918 93.2397C68.0053 93.2397 35.6494 135.603 35.6494 187.861C35.6494 240.119 68.0053 282.482 107.918 282.482Z" fill="#EDEEEF"/>
<path d="M71.9746 223.589V285.169L149.35 306.61V238.027C149.35 213.708 134.625 192.531 113.678 186.727L113.678 186.727C92.4616 180.848 71.9746 198.956 71.9746 223.589L71.9746 223.589Z" fill="#FFAB65"/>
<path d="M102.686 159.083V163.118C100.756 163.118 99.1904 161.353 99.1904 159.177C99.1904 159.056 99.1952 158.936 99.2047 158.818C99.4006 156.371 102.686 156.625 102.686 159.083Z" fill="#EDEEEF"/>
<path d="M78.8466 200.591L53.2129 249.693" stroke="#626262" stroke-width="1.5" stroke-linecap="round" stroke-linejoin="round"/>
<path d="M59.4897 259.205L105.448 272.168V210.854" stroke="#626262" stroke-width="1.5" stroke-linecap="round" stroke-linejoin="round"/>
<path d="M214.837 187.861C214.837 265.174 166.968 327.848 107.918 327.848C48.869 327.848 1 265.174 1 187.861" stroke="#626262" stroke-width="1.5" stroke-linecap="round" stroke-linejoin="round"/>
<path d="M35.6494 187.861C35.6494 135.603 68.0053 93.2397 107.918 93.2397" stroke="#626262" stroke-width="1.5" stroke-linecap="round" stroke-linejoin="round"/>
<rect width="205.913" height="7.30245" transform="matrix(-1 0 0 1 579.578 203.236)" fill="#FFAB65"/>
<path d="M536.767 210.54L526.922 215.543V210.54H536.767V210.54Z" fill="#626262"/>
<path d="M426.32 210.54L416.476 215.543V210.54H426.32V210.54Z" fill="#626262"/>
<path d="M373.665 203.236V210.539H579.578" stroke="#626262" stroke-width="1.5" stroke-linecap="round" stroke-linejoin="round"/>
<path d="M260.208 243.814C260.255 247.908 260.546 251.996 261.081 256.055C267.149 263.167 282.413 278.988 302.806 286.5C304.729 284.719 306.47 282.75 308.003 280.622L308 280.62C288.746 269.507 269.598 252.957 260.222 243.825L260.208 243.814Z" fill="#EDEEEF"/>
<path d="M252.456 227.015L245.442 194.63H267.325L272.655 223.92" fill="#FFAB65"/>
<path d="M245.442 194.63H267.325L270.842 213.958" stroke="#626262" stroke-width="1.5" stroke-linecap="round" stroke-linejoin="round"/>
<path d="M354.496 286.083L305.733 291.978C305.733 291.978 231.25 342.651 260.706 409.324C290.161 475.998 312.042 498.785 312.042 498.785V515.664L345.263 499.629L326.237 394.133L345.263 370.502L354.496 286.083Z" fill="#FFAB65"/>
<path d="M320.16 290.597L397.802 286.083V370.495V578.685H336.782L343.234 567.09L320.16 290.597Z" fill="#FFAB65"/>
<path d="M343.234 567.091L320.16 290.597" stroke="#626262" stroke-width="1.5" stroke-linecap="round" stroke-linejoin="round"/>
<path d="M305.733 226.802V291.978L397.803 314.672V242.083C397.803 216.345 380.281 193.931 355.357 187.788H355.357C343.404 184.842 330.764 187.569 321.078 195.185C311.391 202.8 305.733 214.459 305.733 226.802V226.802Z" fill="#EDEEEF"/>
<path d="M391.604 238.456C391.604 238.456 376.135 280.042 348.588 290.597C321.041 301.152 262.596 247.517 255.074 238.456C248.94 231.066 246.845 216.324 255.074 216.699C263.303 217.074 270.785 222.701 270.785 222.701C270.785 222.701 270.785 215.183 273.777 216.691C274.974 217.294 276.171 218.737 277.176 220.25C279.467 223.644 282.633 226.351 286.336 228.084L333.678 250.639L351.768 212.948" stroke="#626262" stroke-width="1.5" stroke-linecap="round" stroke-linejoin="round"/>
<path d="M348.588 290.597C338.053 294.634 322.999 289.278 308.002 280.622C313.919 291.193 327.246 298.568 342.749 298.568C363.746 298.568 380.766 285.049 380.766 268.371C380.819 266.115 380.451 263.869 379.681 261.748C372.393 273.147 361.901 285.496 348.588 290.597Z" fill="#626262"/>
<path d="M318.794 197.124C318.794 197.124 299.4 215.574 295.286 233.579" stroke="#626262" stroke-width="1.5" stroke-linecap="round" stroke-linejoin="round"/>
<path d="M260.208 243.814C260.208 243.814 260.008 279.339 276.77 290.597C293.532 301.856 308.003 280.622 308.003 280.622" stroke="#626262" stroke-width="1.5" stroke-linecap="round" stroke-linejoin="round"/>
<path d="M285.185 227.014C285.185 227.014 284.624 206.008 278.64 201.882C272.655 197.755 267.98 198.233 268.172 199.289C268.364 200.345 272.281 204.132 275.086 205.82" stroke="#626262" stroke-width="1.5" stroke-linecap="round" stroke-linejoin="round"/>
<path d="M326.239 152.228V162.627C326.239 170.668 331.713 177.67 339.5 179.59L356.002 183.657V142.998L342.28 139.616C338.416 138.663 334.33 139.545 331.199 142.007C328.068 144.469 326.239 148.237 326.239 152.228V152.228Z" fill="#EDEEEF"/>
<path d="M343.052 160.563C343.491 160.563 343.847 160.206 343.847 159.765C343.847 159.325 343.491 158.967 343.052 158.967C342.612 158.967 342.256 159.325 342.256 159.765C342.256 160.206 342.612 160.563 343.052 160.563Z" fill="#626262"/>
<path d="M330.829 160.563C331.268 160.563 331.624 160.206 331.624 159.765C331.624 159.325 331.268 158.967 330.829 158.967C330.389 158.967 330.033 159.325 330.033 159.765C330.033 160.206 330.389 160.563 330.829 160.563Z" fill="#626262"/>
<path d="M334.414 164.526V152.227H328.271" stroke="#626262" stroke-width="1.5" stroke-linecap="round" stroke-linejoin="round"/>
<path d="M344.551 152.228H338.407" stroke="#626262" stroke-width="1.5" stroke-linecap="round" stroke-linejoin="round"/>
<path d="M354.041 158.529V162.8C356.338 162.8 358.2 160.933 358.2 158.629C358.2 158.501 358.194 158.374 358.183 158.249C357.95 155.659 354.041 155.928 354.041 158.529Z" fill="#EDEEEF"/>
<path d="M354.041 162.8C356.338 162.8 358.2 160.932 358.2 158.628" stroke="#626262" stroke-width="1.5" stroke-linecap="round" stroke-linejoin="round"/>
<path d="M337.773 165.963C338.29 166.481 338.991 166.772 339.721 166.772C340.452 166.772 341.152 166.481 341.669 165.963" stroke="#FFAB65" stroke-width="1.5" stroke-linecap="round" stroke-linejoin="round"/>
<path d="M334.414 164.536L337.101 165.198" stroke="#626262" stroke-width="1.5" stroke-linecap="round" stroke-linejoin="round"/>
<path d="M326.239 156.437C326.239 156.437 339.578 155.744 343.248 145.616C343.33 145.402 343.541 145.267 343.769 145.284C343.996 145.301 344.186 145.465 344.236 145.688C345.065 149.282 347.537 156.068 354.497 157.196" stroke="#626262" stroke-width="1.5" stroke-linecap="round" stroke-linejoin="round"/>
<path d="M326.239 159.765C326.239 159.765 318.969 154.899 323.177 145.99C327.385 137.081 343.47 132.291 352.353 139.234C352.353 139.234 370.355 137.064 368.531 162.627C366.708 188.19 369.233 193.395 362.359 194.52C355.486 195.646 337.722 187.909 342.256 181.297C346.789 174.686 356.001 162.308 356.001 162.308" stroke="#626262" stroke-width="1.5" stroke-linecap="round" stroke-linejoin="round"/>
<path d="M324.93 158.628C324.93 158.628 316.818 178.343 319.249 182.657C321.68 186.971 333.679 184.814 333.679 184.814" stroke="#626262" stroke-width="1.5" stroke-linecap="round" stroke-linejoin="round"/>
<path d="M326.239 162.627C326.237 170.669 331.712 177.672 339.5 179.59L341.12 179.989" stroke="#626262" stroke-width="1.5" stroke-linecap="round" stroke-linejoin="round"/>
<path d="M127.002 150.205V161.739C127.002 170.657 120.931 178.422 112.296 180.551L93.9942 185.062V139.969L109.212 136.218C113.497 135.162 118.028 136.14 121.501 138.87C124.974 141.6 127.002 145.78 127.002 150.205V150.205Z" fill="#EDEEEF"/>
<path d="M108.357 159.45C107.869 159.45 107.474 159.054 107.474 158.565C107.474 158.076 107.869 157.68 108.357 157.68C108.844 157.68 109.239 158.076 109.239 158.565C109.239 159.054 108.844 159.45 108.357 159.45Z" fill="#626262"/>
<path d="M121.911 159.45C121.424 159.45 121.029 159.054 121.029 158.565C121.029 158.076 121.424 157.68 121.911 157.68C122.399 157.68 122.794 158.076 122.794 158.565C122.794 159.054 122.399 159.45 121.911 159.45Z" fill="#626262"/>
<path d="M117.935 163.845V150.205H124.749" stroke="#626262" stroke-width="1.5" stroke-linecap="round" stroke-linejoin="round"/>
<path d="M106.694 150.205H113.507" stroke="#626262" stroke-width="1.5" stroke-linecap="round" stroke-linejoin="round"/>
<path d="M96.168 157.194V161.931C93.6202 161.931 91.5548 159.859 91.5548 157.304C91.5548 157.162 91.5611 157.022 91.5736 156.883C91.8321 154.01 96.168 154.309 96.168 157.194Z" fill="#EDEEEF"/>
<path d="M96.168 161.93C93.6202 161.93 91.5548 159.859 91.5548 157.304" stroke="#626262" stroke-width="1.5" stroke-linecap="round" stroke-linejoin="round"/>
<path d="M114.21 165.438C113.637 166.013 112.86 166.336 112.05 166.336C111.24 166.336 110.463 166.013 109.89 165.438" stroke="#FFAB65" stroke-width="1.5" stroke-linecap="round" stroke-linejoin="round"/>
<path d="M117.935 163.855L114.955 164.59" stroke="#626262" stroke-width="1.5" stroke-linecap="round" stroke-linejoin="round"/>
<path d="M127.002 154.873C127.002 154.873 112.208 154.105 108.138 142.872C108.048 142.635 107.813 142.486 107.561 142.504C107.308 142.523 107.098 142.705 107.043 142.952C106.124 146.938 103.382 154.465 95.6633 155.716" stroke="#626262" stroke-width="1.5" stroke-linecap="round" stroke-linejoin="round"/>
<path d="M127.002 158.565C127.002 158.565 135.065 153.167 130.398 143.287C125.731 133.406 107.893 128.095 98.04 135.795C98.04 135.795 78.0756 133.388 80.098 161.738C82.1204 190.089 79.3202 195.861 86.9429 197.11C94.5657 198.358 114.267 189.777 109.239 182.445C104.211 175.112 93.9941 161.385 93.9941 161.385" stroke="#626262" stroke-width="1.5" stroke-linecap="round" stroke-linejoin="round"/>
<path d="M128.454 157.304C128.454 157.304 137.451 179.168 134.754 183.953C132.058 188.737 118.751 186.345 118.751 186.345" stroke="#626262" stroke-width="1.5" stroke-linecap="round" stroke-linejoin="round"/>
<path d="M127.002 161.739C127.005 170.658 120.933 178.424 112.296 180.551L110.499 180.994" stroke="#626262" stroke-width="1.5" stroke-linecap="round" stroke-linejoin="round"/>
<path d="M20.5806 578.685L596 578.685" stroke="#626262" stroke-width="1.5"/>
<path d="M453.72 464.24C453.72 464.24 532.221 487.39 565.805 453.3C599.389 419.209 569.594 314.797 532.273 321.855C494.952 328.912 473.922 430.11 473.922 430.11C473.922 430.11 390.54 440.587 453.72 464.24Z" fill="#EDEEEF"/>
<path d="M432.831 453.061C417.069 437.254 473.921 430.109 473.921 430.109C473.921 430.109 471.355 449.92 450.768 457.013C444.509 459.17 437.511 457.755 432.831 453.061Z" fill="#626262"/>
<path d="M453.72 464.239C453.72 464.239 532.221 487.39 565.805 453.299" stroke="#626262" stroke-width="1.5" stroke-linecap="round" stroke-linejoin="round"/>
<path d="M509.762 471.907V578.749" stroke="#626262" stroke-width="1.5" stroke-linecap="round" stroke-linejoin="round"/>
<path d="M259.716 94.3237C262.832 94.3237 265.358 91.7906 265.358 88.6658C265.358 85.541 262.832 83.0078 259.716 83.0078C256.6 83.0078 254.074 85.541 254.074 88.6658C254.074 91.7906 256.6 94.3237 259.716 94.3237Z" fill="#FFAB65"/>
<path d="M296.097 87.2229C275.908 67.3078 243.525 67.3078 223.336 87.2229H296.097Z" fill="#EDEEEF"/>
<path d="M259.716 1V72.4927" stroke="#626262" stroke-width="1.5" stroke-linecap="round" stroke-linejoin="round"/>
<path d="M223.336 87.223H296.097C286.403 77.6363 273.331 72.2694 259.716 72.2867" stroke="#626262" stroke-width="1.5" stroke-linecap="round" stroke-linejoin="round"/>
<path d="M442.926 163.79C441.092 163.79 439.605 165.281 439.605 167.121C439.605 168.96 441.092 170.451 442.926 170.451C444.76 170.451 446.247 168.96 446.247 167.121C446.247 165.281 444.76 163.79 442.926 163.79Z" fill="#FFAB65"/>
<rect x="451.55" y="203.176" width="17.2483" height="35.2058" transform="rotate(-180 451.55 203.176)" fill="#EDEEEF"/>
<path d="M434.302 203.176L434.302 167.97L451.55 167.97" stroke="#626262" stroke-width="1.5" stroke-linecap="round" stroke-linejoin="round"/>
<path d="M467.463 152.39C465.112 152.39 463.206 154.301 463.206 156.658C463.206 159.016 465.112 160.927 467.463 160.927C469.814 160.927 471.719 159.016 471.719 156.658C471.719 154.301 469.814 152.39 467.463 152.39Z" fill="#FFAB65"/>
<rect x="478.516" y="202.87" width="22.1072" height="45.1235" transform="rotate(-180 478.516 202.87)" fill="#EDEEEF"/>
<path d="M456.409 202.87L456.409 157.747L478.516 157.747" stroke="#626262" stroke-width="1.5" stroke-linecap="round" stroke-linejoin="round"/>
<path d="M549.891 191.329H558.351" stroke="#626262" stroke-width="1.5"/>
<path d="M549.891 194.47H558.351" stroke="#626262" stroke-width="1.5"/>
</svg>
