<svg width="336" height="125" viewBox="0 0 336 125" fill="none" xmlns="http://www.w3.org/2000/svg">
<rect width="336" height="125" rx="10" fill="url(#paint0_linear_915_2381)"/>
<path opacity="0.12" d="M0 10C0 4.47715 4.47715 0 10 0H326C331.523 0 336 4.47715 336 10V115C336 120.523 331.523 125 326 125H10C4.47715 125 0 120.523 0 115V10Z" fill="#004187"/>
<path d="M76.3892 32.0865C74.5811 22.7733 63.9439 24.294 58.4589 29.0603C47.6477 38.3356 50.0536 56.788 60.5394 65.5186C58.0655 70.8372 56.8247 74.7486 56.5221 77.5176C55.4327 76.7081 39.6207 33.7358 37.1165 27.6682H28C28 27.6682 46.4978 74.6351 49.8039 83.0102C52.1719 82.995 53.8136 83.048 55.7126 83.0631C57.9747 83.0556 58.4664 82.8891 58.2849 80.9145C57.2181 65.7986 77.4484 47.3008 76.3892 32.0865ZM69.4062 33.2364C75.8748 39.9698 64.9047 54.8739 61.5002 63.6878C54.5853 58.0287 50.447 45.1143 55.4327 36.5048C58.1411 31.6552 65.0031 29.4764 69.4062 33.2364Z" fill="white"/>
<path d="M51.4379 56.9774C51.3849 57.4389 51.3547 57.8853 51.3471 58.3392C51.3093 61.8572 52.7013 65.3298 55.0391 67.9323C55.4476 68.3862 55.8789 68.8099 56.3404 69.2109C56.7262 68.2349 57.1499 67.206 57.6265 66.1241C55.024 63.6048 52.9056 60.45 51.4379 56.9774ZM66.4479 44.3429C62.9678 45.0465 58.9051 46.4537 55.947 48.852C56.4236 51.6739 57.4525 54.4354 58.8597 56.8337C58.958 52.2111 62.3928 47.8836 67.0683 46.4159C67.3936 45.6442 67.6811 44.8725 67.9308 44.1235C67.4617 44.1765 66.9624 44.2521 66.4479 44.3429ZM93.2527 82.1934C88.3956 71.5638 73.847 71.4957 64.7533 66.2452C63.6563 68.4468 62.6954 70.6256 61.9767 72.7364C65.3055 74.3101 69.9735 75.8156 73.1207 77.0337C87.4953 80.9677 91.3386 93.6249 79.3169 99.7303C69.1413 103.649 57.1499 97.5514 58.2166 85.7794C58.2847 85.5676 57.7627 85.4617 56.9683 85.4238C56.0453 85.3709 54.7592 85.4011 53.6319 85.439H53.526C52.2777 85.4768 51.2639 85.5071 51.1807 85.4465C54.8878 93.0802 58.8446 103.574 73.0224 102.507C83.6671 103.059 97.3608 94.1621 93.2527 82.1934ZM76.2075 44.5699C76.0032 45.0768 75.7838 45.5837 75.5644 46.0906C89.9238 49.5556 87.3288 69.3244 65.4644 64.8531C65.2753 65.2238 65.0786 65.6021 64.8894 65.9653C92.133 72.918 99.4791 49.828 76.2075 44.5699Z" fill="white"/>
<path d="M226.972 14.2573C235.458 14.2597 243.796 16.4906 251.161 20.7292C258.525 24.9677 264.661 31.0669 268.96 38.4227C273.259 45.7785 275.572 54.1358 275.671 62.6668C275.769 71.1979 273.649 79.6068 269.521 87.0609" stroke="white" stroke-width="10"/>
<path opacity="0.494" d="M226.121 112.146C252.999 112.618 275.167 91.0945 275.637 64.0726C276.106 37.0507 254.698 14.7627 227.82 14.291C200.943 13.8194 178.774 35.3426 178.305 62.3645C177.836 89.3864 199.244 111.674 226.121 112.146Z" stroke="white" stroke-width="10"/>
<path d="M226.971 109.608C252.455 109.608 273.113 88.8392 273.113 63.219C273.113 37.5989 252.455 16.8296 226.971 16.8296C201.488 16.8296 180.83 37.5989 180.83 63.219C180.83 88.8392 201.488 109.608 226.971 109.608Z" stroke="white"/>
<path opacity="0.304" d="M262.912 63.2753C262.911 71.8622 259.851 80.1669 254.284 86.6967C248.716 93.2265 241.006 97.553 232.539 98.8986C224.072 100.244 215.403 98.5207 208.091 94.0377C200.779 89.5548 195.304 82.6065 192.648 74.4418C189.993 66.2771 190.333 57.4316 193.606 49.4953C196.879 41.559 202.872 35.0524 210.506 31.1451C218.14 27.2378 226.915 26.186 235.254 28.1789C243.593 30.1719 250.949 35.0787 255.999 42.0174C260.492 48.1916 262.913 55.635 262.912 63.2753Z" stroke="white"/>
<path d="M258.86 46.2386C256.649 42.3464 253.842 38.8252 250.543 35.8032" stroke="white" stroke-width="2" stroke-linecap="round"/>
<path d="M236.383 98.2275C240.662 96.9299 244.712 94.969 248.385 92.416" stroke="white" stroke-width="2" stroke-linecap="round"/>
<path d="M205.525 92.4907C209.207 95.031 213.264 96.9777 217.548 98.2602" stroke="white" stroke-width="2" stroke-linecap="round"/>
<path d="M190.749 64.7563C191.064 69.2235 192.075 73.6138 193.747 77.7673" stroke="white" stroke-width="2" stroke-linecap="round"/>
<path d="M263.034 64.7563C262.719 69.2235 261.708 73.6138 260.036 77.7673" stroke="white" stroke-width="2" stroke-linecap="round"/>
<path d="M203.171 35.8867C199.883 38.9204 197.089 42.4513 194.892 46.351" stroke="white" stroke-width="2" stroke-linecap="round"/>
<path d="M233.569 27.6231C229.153 26.9258 224.655 26.9258 220.238 27.6231" stroke="white" stroke-width="2" stroke-linecap="round"/>
<path d="M221.946 41.1285H223.726V54.1885H221.366V43.9485C221.013 44.1085 220.666 44.2318 220.326 44.3185C219.986 44.4051 219.646 44.4485 219.306 44.4485V42.1885C219.759 42.1418 220.199 42.0385 220.626 41.8785C221.053 41.7118 221.493 41.4618 221.946 41.1285ZM226.475 54.1885L232.415 43.4885H226.075V41.2085H235.195V43.4685L229.655 54.1885H226.475ZM204.829 65.1885V59.4555H208.371V60.1935H205.684V61.9305H208.168V62.664H205.684V65.1885H204.829ZM212.122 65.1885L212.014 64.194V62.3895C212.014 62.0355 211.94 61.779 211.793 61.62C211.646 61.458 211.414 61.377 211.096 61.377C210.916 61.377 210.755 61.404 210.614 61.458C210.476 61.509 210.367 61.587 210.286 61.692C210.208 61.797 210.169 61.929 210.169 62.088H209.224C209.224 61.77 209.302 61.512 209.458 61.314C209.614 61.116 209.831 60.972 210.11 60.882C210.392 60.789 210.721 60.7425 211.096 60.7425C211.447 60.7425 211.756 60.801 212.023 60.918C212.29 61.032 212.497 61.212 212.644 61.458C212.794 61.704 212.869 62.022 212.869 62.412V65.1885H212.122ZM210.673 65.3055C210.31 65.3055 210.008 65.2425 209.768 65.1165C209.528 64.9875 209.348 64.8195 209.228 64.6125C209.111 64.4055 209.053 64.185 209.053 63.951C209.053 63.666 209.125 63.432 209.269 63.249C209.416 63.063 209.618 62.925 209.876 62.835C210.134 62.745 210.431 62.7 210.767 62.7C210.998 62.7 211.223 62.721 211.442 62.763C211.661 62.805 211.877 62.8605 212.09 62.9295V63.447C211.916 63.384 211.723 63.3345 211.51 63.2985C211.3 63.2595 211.103 63.24 210.92 63.24C210.647 63.24 210.419 63.294 210.236 63.402C210.053 63.51 209.962 63.693 209.962 63.951C209.962 64.14 210.034 64.3035 210.178 64.4415C210.322 64.5765 210.55 64.644 210.862 64.644C211.09 64.644 211.291 64.593 211.465 64.491C211.639 64.386 211.774 64.2555 211.87 64.0995C211.966 63.9435 212.014 63.7875 212.014 63.6315H212.221C212.221 63.9315 212.159 64.209 212.036 64.464C211.916 64.716 211.741 64.92 211.51 65.076C211.279 65.229 211 65.3055 210.673 65.3055ZM216.072 65.3055C215.718 65.3055 215.388 65.211 215.082 65.022C214.776 64.833 214.53 64.5675 214.344 64.2255C214.158 63.8835 214.065 63.4815 214.065 63.0195C214.065 62.5335 214.158 62.1225 214.344 61.7865C214.53 61.4475 214.776 61.1895 215.082 61.0125C215.388 60.8325 215.718 60.7425 216.072 60.7425C216.333 60.7425 216.566 60.7845 216.77 60.8685C216.974 60.9495 217.149 61.0605 217.296 61.2015C217.443 61.3395 217.562 61.4955 217.652 61.6695C217.745 61.8435 217.809 62.0235 217.845 62.2095L216.977 62.2545C216.914 62.0295 216.803 61.8495 216.644 61.7145C216.488 61.5765 216.294 61.5075 216.063 61.5075C215.868 61.5075 215.684 61.563 215.51 61.674C215.339 61.782 215.199 61.9485 215.091 62.1735C214.986 62.3955 214.934 62.6775 214.934 63.0195C214.934 63.3375 214.983 63.609 215.082 63.834C215.181 64.059 215.316 64.2315 215.487 64.3515C215.658 64.4715 215.85 64.5315 216.063 64.5315C216.369 64.5315 216.597 64.458 216.747 64.311C216.9 64.161 216.977 63.9555 216.977 63.6945H217.845C217.845 63.9975 217.775 64.2705 217.634 64.5135C217.493 64.7565 217.289 64.95 217.022 65.094C216.758 65.235 216.441 65.3055 216.072 65.3055ZM219.686 59.937C219.515 59.937 219.38 59.8905 219.281 59.7975C219.185 59.7015 219.137 59.5725 219.137 59.4105C219.137 59.2545 219.185 59.1315 219.281 59.0415C219.38 58.9485 219.515 58.902 219.686 58.902C219.854 58.902 219.986 58.9485 220.082 59.0415C220.181 59.1315 220.23 59.2545 220.23 59.4105C220.23 59.5725 220.181 59.7015 220.082 59.7975C219.986 59.8905 219.854 59.937 219.686 59.937ZM219.258 65.1885V60.846H220.113V65.1885H219.258ZM224.699 65.1885L224.591 64.194V62.3895C224.591 62.0355 224.518 61.779 224.371 61.62C224.224 61.458 223.991 61.377 223.673 61.377C223.493 61.377 223.333 61.404 223.192 61.458C223.054 61.509 222.944 61.587 222.863 61.692C222.785 61.797 222.746 61.929 222.746 62.088H221.801C221.801 61.77 221.879 61.512 222.035 61.314C222.191 61.116 222.409 60.972 222.688 60.882C222.97 60.789 223.298 60.7425 223.673 60.7425C224.024 60.7425 224.333 60.801 224.6 60.918C224.867 61.032 225.074 61.212 225.221 61.458C225.371 61.704 225.446 62.022 225.446 62.412V65.1885H224.699ZM223.25 65.3055C222.887 65.3055 222.586 65.2425 222.346 65.1165C222.106 64.9875 221.926 64.8195 221.806 64.6125C221.689 64.4055 221.63 64.185 221.63 63.951C221.63 63.666 221.702 63.432 221.846 63.249C221.993 63.063 222.196 62.925 222.454 62.835C222.712 62.745 223.009 62.7 223.345 62.7C223.576 62.7 223.801 62.721 224.02 62.763C224.239 62.805 224.455 62.8605 224.668 62.9295V63.447C224.494 63.384 224.3 63.3345 224.087 63.2985C223.877 63.2595 223.681 63.24 223.498 63.24C223.225 63.24 222.997 63.294 222.814 63.402C222.631 63.51 222.539 63.693 222.539 63.951C222.539 64.14 222.611 64.3035 222.755 64.4415C222.899 64.5765 223.127 64.644 223.439 64.644C223.667 64.644 223.868 64.593 224.042 64.491C224.216 64.386 224.351 64.2555 224.447 64.0995C224.543 63.9435 224.591 63.7875 224.591 63.6315H224.798C224.798 63.9315 224.737 64.209 224.614 64.464C224.494 64.716 224.318 64.92 224.087 65.076C223.856 65.229 223.577 65.3055 223.25 65.3055ZM227.074 65.1885V59.037H227.929V65.1885H227.074ZM233.79 65.3055C233.4 65.3055 233.042 65.2365 232.715 65.0985C232.388 64.9575 232.124 64.749 231.923 64.473C231.725 64.197 231.621 63.852 231.612 63.438H232.449C232.449 63.687 232.509 63.891 232.629 64.05C232.752 64.209 232.914 64.3275 233.115 64.4055C233.316 64.4805 233.538 64.518 233.781 64.518C234.027 64.518 234.245 64.4805 234.434 64.4055C234.623 64.3305 234.768 64.23 234.87 64.104C234.975 63.978 235.028 63.834 235.028 63.672C235.028 63.453 234.96 63.2775 234.825 63.1455C234.69 63.0105 234.485 62.8965 234.209 62.8035L233.142 62.4075C232.683 62.2365 232.334 62.04 232.094 61.818C231.854 61.593 231.734 61.281 231.734 60.882C231.734 60.429 231.911 60.0615 232.265 59.7795C232.619 59.4945 233.117 59.352 233.759 59.352C234.368 59.352 234.84 59.493 235.176 59.775C235.515 60.057 235.709 60.441 235.757 60.927H234.915C234.873 60.681 234.758 60.486 234.569 60.342C234.383 60.198 234.113 60.126 233.759 60.126C233.417 60.126 233.15 60.201 232.958 60.351C232.766 60.498 232.67 60.684 232.67 60.909C232.67 61.095 232.73 61.2435 232.85 61.3545C232.973 61.4655 233.163 61.566 233.421 61.656L234.636 62.1015C235.053 62.2485 235.379 62.4465 235.613 62.6955C235.847 62.9445 235.964 63.261 235.964 63.645C235.964 63.969 235.88 64.2555 235.712 64.5045C235.544 64.7535 235.298 64.95 234.974 65.094C234.65 65.235 234.255 65.3055 233.79 65.3055ZM237.446 65.1885V59.037H238.301V65.1885H237.446ZM238.179 62.619L240.236 60.8595H241.41L238.179 63.5145V62.619ZM240.47 65.1885L238.463 62.4435L239.3 62.268L241.514 65.1885H240.47ZM243.117 59.937C242.946 59.937 242.811 59.8905 242.712 59.7975C242.616 59.7015 242.568 59.5725 242.568 59.4105C242.568 59.2545 242.616 59.1315 242.712 59.0415C242.811 58.9485 242.946 58.902 243.117 58.902C243.285 58.902 243.417 58.9485 243.513 59.0415C243.612 59.1315 243.662 59.2545 243.662 59.4105C243.662 59.5725 243.612 59.7015 243.513 59.7975C243.417 59.8905 243.285 59.937 243.117 59.937ZM242.69 65.1885V60.846H243.545V65.1885H242.69ZM248.45 65.1885V62.6505C248.45 62.2755 248.36 61.992 248.18 61.8C248.003 61.605 247.763 61.5075 247.46 61.5075C247.22 61.5075 247.01 61.5735 246.83 61.7055C246.653 61.8345 246.515 62.025 246.416 62.277C246.32 62.526 246.272 62.8305 246.272 63.1905H245.966C245.966 62.6595 246.034 62.2125 246.169 61.8495C246.307 61.4865 246.503 61.212 246.758 61.026C247.013 60.837 247.319 60.7425 247.676 60.7425C248.024 60.7425 248.318 60.8205 248.558 60.9765C248.801 61.1325 248.986 61.3545 249.112 61.6425C249.238 61.9275 249.301 62.2635 249.301 62.6505V65.1885H248.45ZM245.417 65.1885V60.8595H246.16L246.272 61.7955V65.1885H245.417ZM209.843 76.1885V70.4555H213.385V71.1935H210.698V72.9305H213.182V73.664H210.698V76.1885H209.843ZM215.922 76.3055C215.55 76.3055 215.214 76.2095 214.914 76.0175C214.614 75.8255 214.376 75.5585 214.199 75.2165C214.025 74.8745 213.938 74.4785 213.938 74.0285C213.938 73.5515 214.025 73.1435 214.199 72.8045C214.373 72.4625 214.61 72.2 214.91 72.017C215.21 71.834 215.547 71.7425 215.922 71.7425C216.258 71.7425 216.546 71.8115 216.786 71.9495C217.026 72.0845 217.22 72.2675 217.367 72.4985C217.514 72.7265 217.614 72.986 217.668 73.277C217.725 73.568 217.736 73.868 217.7 74.177H214.622V73.682H217.115L216.908 73.817C216.917 73.655 216.908 73.493 216.881 73.331C216.857 73.169 216.809 73.0205 216.737 72.8855C216.665 72.7475 216.563 72.638 216.431 72.557C216.302 72.473 216.137 72.431 215.936 72.431C215.684 72.431 215.472 72.494 215.301 72.62C215.133 72.746 215.006 72.9155 214.919 73.1285C214.832 73.3385 214.788 73.5695 214.788 73.8215V74.168C214.788 74.447 214.83 74.6945 214.914 74.9105C214.998 75.1265 215.123 75.2975 215.288 75.4235C215.456 75.5465 215.667 75.608 215.922 75.608C216.171 75.608 216.377 75.5495 216.539 75.4325C216.704 75.3155 216.806 75.14 216.845 74.906H217.718C217.673 75.188 217.569 75.434 217.407 75.644C217.245 75.854 217.037 76.0175 216.782 76.1345C216.53 76.2485 216.243 76.3055 215.922 76.3055ZM221.768 76.1885L221.66 75.194V73.3895C221.66 73.0355 221.586 72.779 221.439 72.62C221.292 72.458 221.06 72.377 220.742 72.377C220.562 72.377 220.401 72.404 220.26 72.458C220.122 72.509 220.013 72.587 219.932 72.692C219.854 72.797 219.815 72.929 219.815 73.088H218.87C218.87 72.77 218.948 72.512 219.104 72.314C219.26 72.116 219.477 71.972 219.756 71.882C220.038 71.789 220.367 71.7425 220.742 71.7425C221.093 71.7425 221.402 71.801 221.669 71.918C221.936 72.032 222.143 72.212 222.29 72.458C222.44 72.704 222.515 73.022 222.515 73.412V76.1885H221.768ZM220.319 76.3055C219.956 76.3055 219.654 76.2425 219.414 76.1165C219.174 75.9875 218.994 75.8195 218.874 75.6125C218.757 75.4055 218.699 75.185 218.699 74.951C218.699 74.666 218.771 74.432 218.915 74.249C219.062 74.063 219.264 73.925 219.522 73.835C219.78 73.745 220.077 73.7 220.413 73.7C220.644 73.7 220.869 73.721 221.088 73.763C221.307 73.805 221.523 73.8605 221.736 73.9295V74.447C221.562 74.384 221.369 74.3345 221.156 74.2985C220.946 74.2595 220.749 74.24 220.566 74.24C220.293 74.24 220.065 74.294 219.882 74.402C219.699 74.51 219.608 74.693 219.608 74.951C219.608 75.14 219.68 75.3035 219.824 75.4415C219.968 75.5765 220.196 75.644 220.508 75.644C220.736 75.644 220.937 75.593 221.111 75.491C221.285 75.386 221.42 75.2555 221.516 75.0995C221.612 74.9435 221.66 74.7875 221.66 74.6315H221.867C221.867 74.9315 221.805 75.209 221.682 75.464C221.562 75.716 221.387 75.92 221.156 76.076C220.925 76.229 220.646 76.3055 220.319 76.3055ZM225.534 76.3055C225.288 76.3055 225.066 76.259 224.868 76.166C224.67 76.073 224.512 75.9335 224.395 75.7475C224.281 75.5585 224.224 75.3215 224.224 75.0365V70.6805H225.075V75.0095C225.075 75.4175 225.265 75.6215 225.646 75.6215C225.763 75.6215 225.877 75.6095 225.988 75.5855C226.099 75.5585 226.225 75.5195 226.366 75.4685L226.488 76.076C226.329 76.142 226.171 76.196 226.015 76.238C225.862 76.283 225.702 76.3055 225.534 76.3055ZM223.563 72.44V71.8595H226.357V72.44H223.563ZM230.513 71.846H231.373V76.1885H230.513V71.846ZM227.489 71.846H228.344V74.528C228.344 74.855 228.424 75.1025 228.583 75.2705C228.745 75.4385 228.971 75.5225 229.262 75.5225C229.508 75.5225 229.724 75.458 229.91 75.329C230.099 75.2 230.246 75.017 230.351 74.78C230.459 74.543 230.513 74.2625 230.513 73.9385H230.788C230.788 74.4455 230.719 74.8715 230.581 75.2165C230.443 75.5615 230.249 75.824 230 76.004C229.751 76.181 229.46 76.2695 229.127 76.2695C228.809 76.2695 228.526 76.211 228.277 76.094C228.031 75.977 227.837 75.797 227.696 75.554C227.558 75.308 227.489 74.9915 227.489 74.6045V71.846ZM233.126 76.1885V71.846H233.981V76.1885H233.126ZM233.747 74.2535C233.747 73.6985 233.804 73.238 233.918 72.872C234.035 72.503 234.197 72.2285 234.404 72.0485C234.614 71.8685 234.86 71.7785 235.142 71.7785C235.226 71.7785 235.304 71.7845 235.376 71.7965C235.451 71.8085 235.524 71.825 235.596 71.846L235.565 72.6965C235.484 72.6755 235.395 72.6575 235.299 72.6425C235.206 72.6245 235.121 72.6155 235.043 72.6155C234.797 72.6155 234.596 72.6815 234.44 72.8135C234.284 72.9425 234.168 73.13 234.093 73.376C234.018 73.619 233.981 73.9115 233.981 74.2535H233.747ZM238.044 76.3055C237.672 76.3055 237.336 76.2095 237.036 76.0175C236.736 75.8255 236.498 75.5585 236.321 75.2165C236.147 74.8745 236.06 74.4785 236.06 74.0285C236.06 73.5515 236.147 73.1435 236.321 72.8045C236.495 72.4625 236.732 72.2 237.032 72.017C237.332 71.834 237.669 71.7425 238.044 71.7425C238.38 71.7425 238.668 71.8115 238.908 71.9495C239.148 72.0845 239.342 72.2675 239.489 72.4985C239.636 72.7265 239.736 72.986 239.79 73.277C239.847 73.568 239.858 73.868 239.822 74.177H236.744V73.682H239.237L239.03 73.817C239.039 73.655 239.03 73.493 239.003 73.331C238.979 73.169 238.931 73.0205 238.859 72.8855C238.787 72.7475 238.685 72.638 238.553 72.557C238.424 72.473 238.259 72.431 238.058 72.431C237.806 72.431 237.594 72.494 237.423 72.62C237.255 72.746 237.128 72.9155 237.041 73.1285C236.954 73.3385 236.91 73.5695 236.91 73.8215V74.168C236.91 74.447 236.952 74.6945 237.036 74.9105C237.12 75.1265 237.245 75.2975 237.41 75.4235C237.578 75.5465 237.789 75.608 238.044 75.608C238.293 75.608 238.499 75.5495 238.661 75.4325C238.826 75.3155 238.928 75.14 238.967 74.906H239.84C239.795 75.188 239.691 75.434 239.529 75.644C239.367 75.854 239.159 76.0175 238.904 76.1345C238.652 76.2485 238.365 76.3055 238.044 76.3055ZM242.76 76.3055C242.34 76.3055 241.986 76.247 241.698 76.13C241.41 76.01 241.19 75.845 241.037 75.635C240.887 75.422 240.809 75.173 240.803 74.888H241.608C241.62 75.137 241.719 75.3215 241.905 75.4415C242.094 75.5615 242.349 75.6215 242.67 75.6215C242.841 75.6215 242.996 75.5945 243.134 75.5405C243.275 75.4865 243.386 75.413 243.467 75.32C243.551 75.227 243.593 75.122 243.593 75.005C243.593 74.858 243.539 74.7425 243.431 74.6585C243.323 74.5715 243.149 74.495 242.909 74.429L242.022 74.1275C241.668 74.0075 241.397 73.8485 241.208 73.6505C241.019 73.4495 240.924 73.2095 240.924 72.9305C240.924 72.5735 241.083 72.287 241.401 72.071C241.719 71.852 242.141 71.7425 242.666 71.7425C243.209 71.7425 243.627 71.858 243.921 72.089C244.218 72.317 244.373 72.6035 244.385 72.9485H243.561C243.54 72.7775 243.455 72.647 243.305 72.557C243.158 72.464 242.945 72.4175 242.666 72.4175C242.405 72.4175 242.199 72.4745 242.049 72.5885C241.902 72.7025 241.829 72.8315 241.829 72.9755C241.829 73.2335 242.051 73.4255 242.495 73.5515L243.426 73.88C243.78 73.994 244.053 74.141 244.245 74.321C244.437 74.501 244.533 74.729 244.533 75.005C244.533 75.227 244.46 75.437 244.313 75.635C244.166 75.833 243.959 75.995 243.692 76.121C243.428 76.244 243.117 76.3055 242.76 76.3055ZM208.198 87.1885L210.16 81.4555H211.217L213.121 87.1885H212.221L211.775 85.8205H209.561L209.098 87.1885H208.198ZM209.777 85.1635H211.564L210.673 82.486L209.777 85.1635ZM213.285 82.8595H214.266L215.485 86.455H215.395L216.615 82.8595H217.596L215.913 87.1885H214.963L213.285 82.8595ZM221.324 87.1885L221.216 86.194V84.3895C221.216 84.0355 221.143 83.779 220.996 83.62C220.849 83.458 220.616 83.377 220.298 83.377C220.118 83.377 219.958 83.404 219.817 83.458C219.679 83.509 219.569 83.587 219.488 83.692C219.41 83.797 219.371 83.929 219.371 84.088H218.426C218.426 83.77 218.504 83.512 218.66 83.314C218.816 83.116 219.034 82.972 219.313 82.882C219.595 82.789 219.923 82.7425 220.298 82.7425C220.649 82.7425 220.958 82.801 221.225 82.918C221.492 83.032 221.699 83.212 221.846 83.458C221.996 83.704 222.071 84.022 222.071 84.412V87.1885H221.324ZM219.875 87.3055C219.512 87.3055 219.211 87.2425 218.971 87.1165C218.731 86.9875 218.551 86.8195 218.431 86.6125C218.314 86.4055 218.255 86.185 218.255 85.951C218.255 85.666 218.327 85.432 218.471 85.249C218.618 85.063 218.821 84.925 219.079 84.835C219.337 84.745 219.634 84.7 219.97 84.7C220.201 84.7 220.426 84.721 220.645 84.763C220.864 84.805 221.08 84.8605 221.293 84.9295V85.447C221.119 85.384 220.925 85.3345 220.712 85.2985C220.502 85.2595 220.306 85.24 220.123 85.24C219.85 85.24 219.622 85.294 219.439 85.402C219.256 85.51 219.164 85.693 219.164 85.951C219.164 86.14 219.236 86.3035 219.38 86.4415C219.524 86.5765 219.752 86.644 220.064 86.644C220.292 86.644 220.493 86.593 220.667 86.491C220.841 86.386 220.976 86.2555 221.072 86.0995C221.168 85.9435 221.216 85.7875 221.216 85.6315H221.423C221.423 85.9315 221.362 86.209 221.239 86.464C221.119 86.716 220.943 86.92 220.712 87.076C220.481 87.229 220.202 87.3055 219.875 87.3055ZM224.194 81.937C224.023 81.937 223.888 81.8905 223.789 81.7975C223.693 81.7015 223.645 81.5725 223.645 81.4105C223.645 81.2545 223.693 81.1315 223.789 81.0415C223.888 80.9485 224.023 80.902 224.194 80.902C224.362 80.902 224.494 80.9485 224.59 81.0415C224.689 81.1315 224.739 81.2545 224.739 81.4105C224.739 81.5725 224.689 81.7015 224.59 81.7975C224.494 81.8905 224.362 81.937 224.194 81.937ZM223.767 87.1885V82.846H224.622V87.1885H223.767ZM226.494 87.1885V81.037H227.349V87.1885H226.494ZM231.818 87.1885L231.71 86.194V84.3895C231.71 84.0355 231.637 83.779 231.49 83.62C231.343 83.458 231.11 83.377 230.792 83.377C230.612 83.377 230.452 83.404 230.311 83.458C230.173 83.509 230.063 83.587 229.982 83.692C229.904 83.797 229.865 83.929 229.865 84.088H228.92C228.92 83.77 228.998 83.512 229.154 83.314C229.31 83.116 229.528 82.972 229.807 82.882C230.089 82.789 230.417 82.7425 230.792 82.7425C231.143 82.7425 231.452 82.801 231.719 82.918C231.986 83.032 232.193 83.212 232.34 83.458C232.49 83.704 232.565 84.022 232.565 84.412V87.1885H231.818ZM230.369 87.3055C230.006 87.3055 229.705 87.2425 229.465 87.1165C229.225 86.9875 229.045 86.8195 228.925 86.6125C228.808 86.4055 228.749 86.185 228.749 85.951C228.749 85.666 228.821 85.432 228.965 85.249C229.112 85.063 229.315 84.925 229.573 84.835C229.831 84.745 230.128 84.7 230.464 84.7C230.695 84.7 230.92 84.721 231.139 84.763C231.358 84.805 231.574 84.8605 231.787 84.9295V85.447C231.613 85.384 231.419 85.3345 231.206 85.2985C230.996 85.2595 230.8 85.24 230.617 85.24C230.344 85.24 230.116 85.294 229.933 85.402C229.75 85.51 229.658 85.693 229.658 85.951C229.658 86.14 229.73 86.3035 229.874 86.4415C230.018 86.5765 230.246 86.644 230.558 86.644C230.786 86.644 230.987 86.593 231.161 86.491C231.335 86.386 231.47 86.2555 231.566 86.0995C231.662 85.9435 231.71 85.7875 231.71 85.6315H231.917C231.917 85.9315 231.856 86.209 231.733 86.464C231.613 86.716 231.437 86.92 231.206 87.076C230.975 87.229 230.696 87.3055 230.369 87.3055ZM236.277 87.3055C235.995 87.3055 235.739 87.2305 235.508 87.0805C235.28 86.9275 235.097 86.7025 234.959 86.4055C234.824 86.1085 234.756 85.744 234.756 85.312H235.049C235.049 85.564 235.103 85.7815 235.211 85.9645C235.322 86.1475 235.463 86.2885 235.634 86.3875C235.805 86.4835 235.983 86.5315 236.169 86.5315C236.391 86.5315 236.591 86.47 236.768 86.347C236.948 86.224 237.09 86.0485 237.195 85.8205C237.303 85.5895 237.357 85.318 237.357 85.006C237.357 84.697 237.305 84.4315 237.2 84.2095C237.095 83.9845 236.952 83.812 236.772 83.692C236.592 83.569 236.388 83.5075 236.16 83.5075C235.968 83.5075 235.787 83.554 235.616 83.647C235.448 83.74 235.311 83.878 235.206 84.061C235.101 84.241 235.049 84.4615 235.049 84.7225H234.756C234.756 84.2995 234.822 83.941 234.954 83.647C235.086 83.353 235.269 83.1295 235.503 82.9765C235.74 82.8205 236.018 82.7425 236.336 82.7425C236.681 82.7425 236.996 82.8355 237.281 83.0215C237.569 83.2045 237.798 83.4655 237.969 83.8045C238.143 84.1435 238.23 84.544 238.23 85.006C238.23 85.471 238.142 85.876 237.965 86.221C237.788 86.563 237.551 86.83 237.254 87.022C236.96 87.211 236.634 87.3055 236.277 87.3055ZM234.194 87.1885V81.037H235.049V86.149L234.774 87.1885H234.194ZM239.608 87.1885V81.037H240.463V87.1885H239.608ZM243.77 87.3055C243.398 87.3055 243.062 87.2095 242.762 87.0175C242.462 86.8255 242.224 86.5585 242.047 86.2165C241.873 85.8745 241.786 85.4785 241.786 85.0285C241.786 84.5515 241.873 84.1435 242.047 83.8045C242.221 83.4625 242.458 83.2 242.758 83.017C243.058 82.834 243.395 82.7425 243.77 82.7425C244.106 82.7425 244.394 82.8115 244.634 82.9495C244.874 83.0845 245.068 83.2675 245.215 83.4985C245.362 83.7265 245.462 83.986 245.516 84.277C245.573 84.568 245.584 84.868 245.548 85.177H242.47V84.682H244.963L244.756 84.817C244.765 84.655 244.756 84.493 244.729 84.331C244.705 84.169 244.657 84.0205 244.585 83.8855C244.513 83.7475 244.411 83.638 244.279 83.557C244.15 83.473 243.985 83.431 243.784 83.431C243.532 83.431 243.32 83.494 243.149 83.62C242.981 83.746 242.854 83.9155 242.767 84.1285C242.68 84.3385 242.636 84.5695 242.636 84.8215V85.168C242.636 85.447 242.678 85.6945 242.762 85.9105C242.846 86.1265 242.971 86.2975 243.136 86.4235C243.304 86.5465 243.515 86.608 243.77 86.608C244.019 86.608 244.225 86.5495 244.387 86.4325C244.552 86.3155 244.654 86.14 244.693 85.906H245.566C245.521 86.188 245.417 86.434 245.255 86.644C245.093 86.854 244.885 87.0175 244.63 87.1345C244.378 87.2485 244.091 87.3055 243.77 87.3055Z" fill="white"/>
<defs>
<linearGradient id="paint0_linear_915_2381" x1="332.035" y1="2.32073" x2="57.7539" y2="202.351" gradientUnits="userSpaceOnUse">
<stop offset="0.055" stop-color="#D1E7FF"/>
<stop offset="0.173074" stop-color="#E8D7FF"/>
<stop offset="0.35834" stop-color="#FFE9D7"/>
<stop offset="0.560422" stop-color="#E8D7FF"/>
<stop offset="0.94" stop-color="#D1E7FF"/>
</linearGradient>
</defs>
</svg>
