<svg width="202" height="53" viewBox="0 0 202 53" fill="none" xmlns="http://www.w3.org/2000/svg">
<path d="M15.7228 37.9927C15.5494 38.1026 15.3687 38.2492 15.1855 38.403L15.1342 38.4445C15.0976 38.4714 15.061 38.5007 15.0243 38.5276C14.9877 38.5569 14.9486 38.5837 14.9095 38.6106C14.8705 38.6399 14.8314 38.6668 14.7899 38.6936C14.7508 38.7205 14.7093 38.7474 14.6678 38.7718C14.6263 38.7986 14.5823 38.8255 14.5383 38.8499C14.4968 38.8768 14.4529 38.9012 14.4065 38.9256C14.3625 38.9501 14.3185 38.9745 14.2721 38.9989C14.2257 39.0233 14.1793 39.0453 14.1329 39.0697C14.0841 39.0917 14.0377 39.1137 13.9888 39.1357C13.94 39.1576 13.8912 39.1796 13.8423 39.2016C13.7935 39.2211 13.7422 39.2431 13.6933 39.2627C13.6445 39.2822 13.5956 39.2993 13.5444 39.3188C13.4955 39.3359 13.4467 39.353 13.3978 39.3701C13.349 39.3848 13.3001 39.4019 13.2513 39.4165C13.2025 39.4312 13.1536 39.4458 13.1048 39.458C13.0559 39.4727 13.0095 39.4849 12.9607 39.4971C12.9118 39.5093 12.8654 39.5215 12.8166 39.5313C12.7702 39.5411 12.7238 39.5508 12.6774 39.5606C12.6285 39.5679 12.5821 39.5777 12.5357 39.585C11.974 39.6827 11.3879 39.7316 10.7847 39.7364H10.3378C7.41936 39.6656 4.98694 38.7083 3.03564 36.862C1.08677 35.0157 0.0757078 32.7029 0 29.9213V18.9827C0.0757078 16.2011 1.08677 13.8884 3.03564 12.0421C4.98694 10.1982 7.41936 9.23843 10.3378 9.17005H10.9117C11.4636 9.17982 11.9789 9.21645 12.4576 9.28239L12.5968 9.30437C12.6456 9.31414 12.692 9.32146 12.7409 9.33123C12.7897 9.341 12.8386 9.35077 12.8874 9.36298C12.9363 9.37275 12.9851 9.38496 13.0364 9.39717C13.0852 9.40938 13.1341 9.4216 13.1854 9.43625C13.2342 9.4509 13.2855 9.46555 13.3343 9.48021C13.3856 9.49486 13.4345 9.51196 13.4858 9.52905C13.537 9.54615 13.5859 9.56324 13.6372 9.58034C13.6885 9.59988 13.7373 9.61941 13.7861 9.63895C13.8374 9.65849 13.8863 9.67802 13.9327 9.69756C13.9815 9.7171 14.0304 9.73908 14.0768 9.76106C14.1232 9.78304 14.1696 9.80502 14.216 9.827C14.2624 9.84898 14.3063 9.87096 14.3527 9.89538C14.3967 9.91736 14.4406 9.94178 14.4846 9.9662C14.5261 9.98818 14.5701 10.0126 14.6116 10.037L14.6507 10.0614L14.7044 10.0956L14.7581 10.1323L14.8143 10.1665L14.8656 10.2031L14.9169 10.2397L14.9682 10.2764L15.0194 10.3106L15.0683 10.3496L15.1171 10.3863L15.1635 10.4229L15.2099 10.4595L15.2563 10.4986L15.3003 10.5352L15.3443 10.5743L15.3858 10.6134L15.4273 10.65L15.4688 10.6891C15.4688 10.6891 15.5054 10.7257 15.5518 10.7575C15.5811 10.7746 15.6031 10.7868 15.6251 10.7965C15.6593 10.8112 15.691 10.821 15.7277 10.8283C15.7619 10.8356 15.7985 10.8381 15.8376 10.8381C15.8742 10.8381 15.9108 10.8356 15.945 10.8283C15.9817 10.821 16.0134 10.8088 16.0476 10.7965C16.0794 10.7819 16.1087 10.7648 16.138 10.7453C16.1673 10.7257 16.1941 10.7037 16.2186 10.6793C16.243 10.6549 16.265 10.628 16.2845 10.6012C16.304 10.5719 16.3211 10.5401 16.3333 10.5084C16.348 10.4766 16.3578 10.4424 16.3651 10.4082C16.3724 10.3716 16.3797 10.335 16.3797 10.2983C16.3749 9.93933 16.3675 9.44846 16.7729 9.32879C17.0147 9.25797 17.3102 9.29216 17.552 9.29216H19.96H21.2446C21.6207 9.29216 22.1873 9.19936 22.3436 9.66093C22.4608 10.0028 22.3826 10.7184 22.3826 11.0847V16.1889V28.1336L22.3802 34.4076C22.3802 36.4786 22.4632 38.5715 22.2312 40.6352C21.5792 46.3865 18.7047 51.2733 12.6212 52.3454C8.9384 52.9926 5.26779 51.6812 2.42509 49.3342C2.0783 49.0485 1.35541 48.5674 1.38472 48.0741C1.39693 47.9007 1.47997 47.7395 1.59475 47.61C1.59475 47.61 3.9539 45.1166 4.12485 44.8992C4.29336 44.7136 4.52781 44.4474 4.78913 44.4474C5.16034 44.4499 5.54865 44.7966 6.22269 45.1923C7.37052 45.8663 8.60138 46.4842 9.91039 46.6796C10.7383 46.8041 11.6395 46.6893 12.4332 46.4329C15.5176 45.4341 16.3724 41.5388 16.5507 38.486V38.4348C16.5507 38.4152 16.5507 38.3981 16.5483 38.381C16.5458 38.3615 16.5434 38.3444 16.5409 38.3273C16.536 38.3102 16.5312 38.2931 16.5263 38.276C16.5214 38.2589 16.5165 38.2418 16.5092 38.2272C16.5018 38.2101 16.4945 38.1954 16.4872 38.1808C16.4799 38.1661 16.4701 38.1515 16.4603 38.1368C16.4506 38.1222 16.4408 38.1075 16.4286 38.0953C16.4188 38.0831 16.4066 38.0709 16.3944 38.0587C16.3822 38.0464 16.37 38.0342 16.3578 38.0245C16.3455 38.0123 16.3309 38.0025 16.3162 37.9927C16.3016 37.983 16.2869 37.9732 16.2723 37.9659C16.2576 37.9585 16.243 37.9512 16.2259 37.9439C16.2112 37.9366 16.1941 37.9317 16.177 37.9268C16.1599 37.9195 16.1428 37.917 16.1258 37.9121C16.1087 37.9097 16.0916 37.9072 16.072 37.9048C16.0549 37.9024 16.0378 37.9024 16.0183 37.9024C16.0012 37.9024 15.9817 37.9024 15.9646 37.9048C15.9475 37.9072 15.9279 37.9097 15.9108 37.9121C15.8937 37.917 15.8766 37.9195 15.8596 37.9268C15.8425 37.9317 15.8278 37.9366 15.8107 37.9439C15.7961 37.9512 15.7374 37.983 15.7228 37.9927ZM16.37 30.0019V19.0218C16.3236 17.5614 15.7961 16.6505 14.7826 15.8323C13.7715 15.0166 12.8215 14.599 11.383 14.5868H10.8262C9.33159 14.621 8.35472 15.1119 7.34854 16.0546C6.33991 16.9973 5.81729 17.9521 5.77821 19.3759V29.5306C5.81729 30.9519 6.33991 31.9068 7.34854 32.8495C8.35472 33.7922 9.33159 34.283 10.8262 34.3172H11.383C12.8215 34.2977 13.7715 33.8801 14.7826 33.0644C15.7961 32.2487 16.3236 31.3793 16.37 30.0019Z" fill="#8F8F8F"/>
<path d="M64.0414 39.031V35.016C64.039 34.7816 63.9779 34.613 63.8558 34.5056C63.7361 34.3981 63.5749 34.3444 63.3722 34.3468H52.314C52.0478 34.3444 51.8598 34.298 51.745 34.2028C51.6424 34.1124 51.5692 34.0001 51.5692 33.8267C51.5618 33.6679 51.6302 33.4725 51.7108 33.3407L63.8265 10.4745C63.8607 10.4061 63.8924 10.328 63.9193 10.24C63.9462 10.1546 63.9584 10.0764 63.9608 10.0056C63.9486 9.66123 63.7044 9.48296 63.2233 9.47075H43.3756C42.9189 9.46098 42.6943 9.68321 42.7065 10.1399V14.1573C42.6943 14.614 42.9189 14.8362 43.3756 14.8265H53.7427C53.9772 14.8265 54.1676 14.868 54.2946 14.9608C54.4216 15.056 54.4778 15.1928 54.4802 15.3613C54.4778 15.4321 54.4632 15.5103 54.4387 15.5957C54.4119 15.6837 54.3801 15.7618 54.3459 15.8302L42.1033 38.6964C42.0691 38.7648 42.0373 38.8429 42.0105 38.9308C41.9836 39.0163 41.9714 39.0945 41.9689 39.1653C41.9787 39.5096 42.2254 39.6879 42.7065 39.7001H63.3722C63.6043 39.7026 63.7752 39.6488 63.8827 39.5414C63.9901 39.4339 64.0414 39.263 64.0414 39.031Z" fill="#8F8F8F"/>
<path d="M29.7102 5.58522C29.7297 5.80502 29.7957 5.97597 29.908 6.09075C30.0399 6.22263 30.2426 6.29101 30.5161 6.29834H34.6947C34.9682 6.29101 35.1709 6.22263 35.3028 6.09075C35.4151 5.97841 35.4982 5.8099 35.4982 5.59255C35.4982 5.59255 35.4982 5.47532 35.4982 5.47044V0.827845C35.4908 0.551877 35.4273 0.34185 35.2955 0.209971C35.1636 0.0780935 34.9609 0.00971222 34.6873 -5.62668e-05H34.3552C34.0963 -5.62668e-05 33.879 0.0561137 33.6397 0.310101L30.1327 4.22492L29.9642 4.42274C29.7761 4.6401 29.7053 4.82326 29.7053 5.05771V5.47044C29.7053 5.50463 29.7102 5.58522 29.7102 5.58522Z" fill="#8F8F8F"/>
<path d="M35.4701 10.162C35.4701 9.92507 35.4115 9.73946 35.304 9.62468C35.1868 9.50501 35.0012 9.44396 34.7496 9.4464H30.4001C30.1486 9.44884 29.9654 9.51967 29.8482 9.65399C29.7383 9.78098 29.6772 9.94949 29.6772 10.162V10.2816L29.6748 26.6223L29.6797 38.9846C29.6797 39.2215 29.7383 39.4071 29.8482 39.5219C29.963 39.6416 30.1486 39.7002 30.4001 39.7002H34.7496C35.0012 39.6978 35.1868 39.6269 35.3016 39.4926C35.4115 39.3656 35.4701 39.1971 35.4701 38.9846V10.162Z" fill="#8F8F8F"/>
<path d="M202 32.8655C202 32.7312 201.958 32.6311 201.873 32.5627C201.788 32.4968 201.695 32.4626 201.597 32.4626C201.499 32.4626 201.407 32.4968 201.321 32.5627C201.236 32.6311 201.194 32.7312 201.194 32.8655V35.6643H198.684V32.8655C198.684 32.7312 198.64 32.6311 198.554 32.5627C198.471 32.4968 198.378 32.4626 198.281 32.4626C198.18 32.4626 198.09 32.4968 198.005 32.5627C197.919 32.6311 197.878 32.7312 197.878 32.8655V39.5107C197.878 39.6451 197.919 39.7452 198.005 39.8087C198.09 39.8722 198.18 39.9039 198.281 39.9039C198.378 39.9039 198.471 39.8722 198.554 39.8087C198.64 39.7452 198.684 39.6451 198.684 39.5107V36.4678H201.194V39.5107C201.194 39.6524 201.236 39.7525 201.321 39.8136C201.407 39.8722 201.499 39.9039 201.597 39.9039C201.695 39.9039 201.788 39.8722 201.873 39.8136C201.958 39.7525 202 39.6524 202 39.5107V32.8655ZM195.084 38.1993C195.084 38.4459 194.993 38.6584 194.818 38.8342C194.642 39.0101 194.427 39.098 194.173 39.098H194.078C193.836 39.098 193.626 39.0247 193.445 38.8758C193.264 38.7268 193.176 38.5241 193.176 38.2628V36.2968C193.176 36.0502 193.264 35.8523 193.445 35.7058C193.626 35.5568 193.836 35.4836 194.078 35.4836H194.173C194.427 35.4836 194.642 35.5715 194.818 35.7473C194.993 35.9232 195.084 36.1356 195.084 36.3823V38.1993ZM195.89 36.3847C195.89 36.1503 195.846 35.9305 195.755 35.7229C195.667 35.5129 195.548 35.3322 195.391 35.1759C195.235 35.0196 195.052 34.8974 194.844 34.8095C194.637 34.7216 194.412 34.6776 194.173 34.6776H194.097C193.914 34.6776 193.738 34.707 193.567 34.768C193.399 34.8291 193.267 34.9145 193.176 35.0269V32.8655C193.176 32.7312 193.132 32.6311 193.049 32.5627C192.964 32.4968 192.871 32.4626 192.773 32.4626C192.673 32.4626 192.583 32.4968 192.497 32.5627C192.412 32.6311 192.37 32.7312 192.37 32.8655V39.5327C192.37 39.6597 192.412 39.7525 192.497 39.8136C192.583 39.8722 192.673 39.9039 192.773 39.9039C192.864 39.9039 192.949 39.8771 193.027 39.8282C193.103 39.7769 193.15 39.6988 193.164 39.5913C193.242 39.6695 193.357 39.7427 193.509 39.8062C193.662 39.8697 193.85 39.9039 194.078 39.9039H194.173C194.405 39.9039 194.627 39.86 194.835 39.7696C195.042 39.6817 195.225 39.562 195.379 39.4106C195.536 39.2592 195.658 39.0809 195.75 38.8758C195.841 38.6706 195.89 38.4484 195.89 38.2066V36.3847ZM190.412 36.3725C190.412 36.0843 190.363 35.8304 190.273 35.6154C190.18 35.4005 190.055 35.2247 189.897 35.0855C189.738 34.9487 189.555 34.8462 189.352 34.7778C189.144 34.7118 188.929 34.6776 188.705 34.6776H188.61C188.338 34.6776 188.094 34.7338 187.872 34.8413C187.65 34.9512 187.457 35.0977 187.296 35.2809C187.132 35.0977 186.939 34.9512 186.717 34.8413C186.495 34.7338 186.248 34.6776 185.979 34.6776H185.884C185.701 34.6776 185.527 34.707 185.366 34.7631C185.203 34.8193 185.071 34.8974 184.973 34.9951C184.951 34.8901 184.902 34.8095 184.824 34.7582C184.746 34.7045 184.665 34.6776 184.582 34.6776C184.475 34.6776 184.38 34.7143 184.294 34.7827C184.211 34.8535 184.167 34.9536 184.167 35.0806V39.5107C184.167 39.6451 184.211 39.7452 184.294 39.8087C184.38 39.8722 184.47 39.9039 184.57 39.9039C184.67 39.9039 184.761 39.8722 184.846 39.8087C184.932 39.7452 184.973 39.6451 184.973 39.5107V36.2993C184.973 36.0526 185.063 35.8548 185.249 35.7058C185.432 35.5568 185.645 35.4836 185.884 35.4836H185.979C186.236 35.4836 186.451 35.569 186.626 35.7376C186.802 35.9085 186.893 36.1259 186.893 36.3945V39.4888C186.893 39.6304 186.934 39.7354 187.02 39.8014C187.103 39.8697 187.195 39.9039 187.296 39.9039C187.393 39.9039 187.486 39.8697 187.569 39.8014C187.655 39.7354 187.696 39.6304 187.696 39.4888V36.3945C187.696 36.1332 187.784 35.9158 187.962 35.7424C188.138 35.569 188.356 35.4836 188.61 35.4836H188.705C188.973 35.4836 189.188 35.5568 189.354 35.7058C189.523 35.8548 189.606 36.077 189.606 36.3725V39.5107C189.606 39.6451 189.647 39.7452 189.733 39.8087C189.816 39.8722 189.909 39.9039 190.009 39.9039C190.107 39.9039 190.199 39.8722 190.282 39.8087C190.368 39.7452 190.412 39.6451 190.412 39.5107V36.3725ZM182.226 36.2577C182.226 36.1503 182.187 36.0575 182.106 35.9769C182.023 35.8939 181.93 35.8548 181.825 35.8548H180.309C180.174 35.8548 180.074 35.8963 180.006 35.9818C179.94 36.0672 179.906 36.1576 179.906 36.2577C179.906 36.3554 179.94 36.4482 180.006 36.5337C180.074 36.6167 180.174 36.6607 180.309 36.6607H181.422V37.894C181.422 38.0625 181.39 38.2213 181.327 38.3653C181.261 38.5094 181.175 38.6364 181.068 38.7439C180.956 38.8538 180.829 38.9393 180.685 39.0028C180.541 39.0663 180.382 39.098 180.213 39.098H180.106C179.937 39.098 179.779 39.0663 179.637 39.0028C179.49 38.9393 179.363 38.8538 179.253 38.7439C179.144 38.634 179.058 38.507 178.995 38.3629C178.931 38.2188 178.899 38.0601 178.899 37.8916V34.4627C178.899 34.3015 178.931 34.1477 178.995 34.0036C179.058 33.8595 179.144 33.7325 179.253 33.6226C179.363 33.5127 179.49 33.4272 179.637 33.3637C179.779 33.3003 179.937 33.2685 180.106 33.2685H180.213C180.56 33.2685 180.834 33.3662 181.036 33.564C181.237 33.7618 181.366 34.0109 181.422 34.3064C181.442 34.4261 181.493 34.514 181.569 34.5677C181.647 34.619 181.732 34.6459 181.825 34.6459C181.923 34.6459 182.016 34.6117 182.099 34.5458C182.184 34.4774 182.226 34.3821 182.226 34.2527V34.1892C182.191 33.9425 182.116 33.713 181.999 33.5005C181.881 33.288 181.732 33.1073 181.554 32.9559C181.373 32.8045 181.168 32.6824 180.939 32.5945C180.709 32.5065 180.467 32.4626 180.213 32.4626H180.106C179.832 32.4626 179.569 32.5163 179.322 32.6213C179.075 32.7288 178.863 32.8704 178.682 33.0512C178.501 33.2319 178.357 33.4419 178.252 33.6861C178.147 33.9303 178.093 34.1941 178.093 34.4774V37.9013C178.093 38.1822 178.147 38.4459 178.252 38.6902C178.357 38.9344 178.501 39.1444 178.682 39.3251C178.863 39.5058 179.075 39.6475 179.322 39.7501C179.569 39.8526 179.832 39.9039 180.106 39.9039H180.213C180.489 39.9039 180.751 39.8526 180.997 39.7501C181.244 39.6475 181.459 39.5058 181.64 39.3251C181.818 39.1444 181.962 38.9344 182.067 38.6902C182.174 38.4459 182.226 38.1822 182.226 37.9013V36.2577ZM173.839 35.0122C173.756 34.5629 173.644 34.1428 173.505 33.7496C173.363 33.3589 173.194 33.0023 172.999 32.6799C172.806 32.3576 172.596 32.0889 172.369 31.8691C172.286 31.7837 172.193 31.7421 172.093 31.7421C172.01 31.7421 171.917 31.7812 171.819 31.8594C171.734 31.9424 171.69 32.0352 171.69 32.1329C171.69 32.2257 171.732 32.3112 171.807 32.3893C171.99 32.5652 172.166 32.7923 172.332 33.0658C172.498 33.3418 172.645 33.6544 172.772 33.9987C172.899 34.3455 172.999 34.7216 173.075 35.127C173.15 35.5349 173.185 35.9574 173.185 36.3945C173.185 36.8463 173.146 37.2786 173.07 37.6889C172.992 38.0967 172.887 38.4752 172.757 38.822C172.625 39.1688 172.476 39.4765 172.305 39.7501C172.137 40.0211 171.959 40.2458 171.776 40.4217C171.7 40.4998 171.658 40.5853 171.658 40.6781C171.658 40.7758 171.702 40.8686 171.788 40.9516C171.878 41.0371 171.973 41.0786 172.073 41.0786C172.166 41.0786 172.252 41.0371 172.337 40.9516C172.564 40.7343 172.774 40.4656 172.975 40.1481C173.172 39.8282 173.343 39.4741 173.487 39.0809C173.632 38.6902 173.746 38.2652 173.832 37.811C173.917 37.3543 173.959 36.8829 173.959 36.3945C173.959 35.9207 173.917 35.4616 173.839 35.0122ZM170.188 39.1713C170.12 39.0882 170.02 39.0443 169.885 39.0443H167.214L170.225 33.2685C170.274 33.1757 170.298 33.0853 170.298 32.9925C170.298 32.8655 170.252 32.7556 170.161 32.6628C170.068 32.5725 169.954 32.5261 169.81 32.5261H166.779C166.64 32.5261 166.535 32.5676 166.471 32.6531C166.408 32.7386 166.376 32.8289 166.376 32.929C166.376 33.0292 166.408 33.1195 166.471 33.205C166.535 33.288 166.64 33.332 166.779 33.332H169.292L166.293 39.0882C166.249 39.1639 166.229 39.2494 166.229 39.3422C166.229 39.4765 166.268 39.5938 166.351 39.6963C166.432 39.7989 166.547 39.8502 166.693 39.8502H169.885C170.02 39.8502 170.12 39.8087 170.188 39.7232C170.254 39.6377 170.288 39.5474 170.288 39.4472C170.288 39.3495 170.254 39.2567 170.188 39.1713ZM164.3 32.8655C164.3 32.7312 164.256 32.6311 164.173 32.5627C164.088 32.4968 163.997 32.4626 163.897 32.4626C163.797 32.4626 163.707 32.4968 163.621 32.5627C163.536 32.6311 163.494 32.7312 163.494 32.8655V39.5107C163.494 39.6451 163.536 39.7452 163.621 39.8087C163.707 39.8722 163.797 39.9039 163.897 39.9039C163.997 39.9039 164.088 39.8722 164.173 39.8087C164.256 39.7452 164.3 39.6451 164.3 39.5107V32.8655ZM161.364 36.2577C161.364 36.1503 161.323 36.0575 161.242 35.9769C161.162 35.8939 161.069 35.8548 160.962 35.8548H159.447C159.311 35.8548 159.21 35.8963 159.145 35.9818C159.076 36.0672 159.044 36.1576 159.044 36.2577C159.044 36.3554 159.076 36.4482 159.145 36.5337C159.21 36.6167 159.311 36.6607 159.447 36.6607H160.559V37.894C160.559 38.0625 160.527 38.2213 160.463 38.3653C160.4 38.5094 160.314 38.6364 160.204 38.7439C160.095 38.8538 159.968 38.9393 159.823 39.0028C159.677 39.0663 159.521 39.098 159.35 39.098H159.245C159.076 39.098 158.917 39.0663 158.773 39.0028C158.629 38.9393 158.502 38.8538 158.392 38.7439C158.282 38.634 158.195 38.507 158.131 38.3629C158.068 38.2188 158.036 38.0601 158.036 37.8916V34.4627C158.036 34.3015 158.068 34.1477 158.131 34.0036C158.195 33.8595 158.282 33.7325 158.392 33.6226C158.502 33.5127 158.629 33.4272 158.773 33.3637C158.917 33.3003 159.076 33.2685 159.245 33.2685H159.35C159.696 33.2685 159.972 33.3662 160.173 33.564C160.375 33.7618 160.502 34.0109 160.559 34.3064C160.581 34.4261 160.629 34.514 160.708 34.5677C160.786 34.619 160.871 34.6459 160.962 34.6459C161.062 34.6459 161.152 34.6117 161.237 34.5458C161.323 34.4774 161.364 34.3821 161.364 34.2527V34.1892C161.33 33.9425 161.255 33.713 161.137 33.5005C161.02 33.288 160.874 33.1073 160.693 32.9559C160.512 32.8045 160.307 32.6824 160.077 32.5945C159.848 32.5065 159.606 32.4626 159.35 32.4626H159.245C158.969 32.4626 158.707 32.5163 158.461 32.6213C158.214 32.7288 157.999 32.8704 157.821 33.0512C157.64 33.2319 157.496 33.4419 157.391 33.6861C157.284 33.9303 157.23 34.1941 157.23 34.4774V37.9013C157.23 38.1822 157.284 38.4459 157.391 38.6902C157.496 38.9344 157.64 39.1444 157.821 39.3251C157.999 39.5058 158.214 39.6475 158.461 39.7501C158.707 39.8526 158.969 39.9039 159.245 39.9039H159.35C159.626 39.9039 159.889 39.8526 160.136 39.7501C160.383 39.6475 160.598 39.5058 160.776 39.3251C160.957 39.1444 161.101 38.9344 161.206 38.6902C161.311 38.4459 161.364 38.1822 161.364 37.9013V36.2577ZM155.335 39.7501C155.164 39.4765 155.012 39.1688 154.883 38.822C154.753 38.4752 154.648 38.0967 154.57 37.6889C154.492 37.2786 154.453 36.8463 154.453 36.3945C154.453 35.9574 154.492 35.5349 154.57 35.127C154.648 34.7216 154.751 34.3455 154.878 33.9987C155.005 33.6544 155.152 33.3418 155.318 33.0658C155.484 32.7923 155.655 32.5652 155.83 32.3893C155.909 32.3112 155.948 32.2257 155.948 32.1329C155.948 32.0352 155.904 31.9424 155.821 31.8594C155.721 31.7812 155.63 31.7421 155.545 31.7421C155.445 31.7421 155.354 31.7837 155.271 31.8691C155.051 32.0963 154.844 32.3698 154.648 32.6897C154.456 33.0121 154.287 33.3662 154.148 33.7545C154.004 34.1452 153.891 34.5604 153.806 35.0073C153.72 35.4518 153.681 35.9134 153.681 36.3945C153.681 36.8829 153.72 37.3543 153.806 37.811C153.891 38.2652 154.006 38.6902 154.15 39.0809C154.297 39.4741 154.468 39.8282 154.666 40.1481C154.863 40.4656 155.076 40.7343 155.301 40.9516C155.386 41.0371 155.474 41.0786 155.564 41.0786C155.674 41.0786 155.767 41.0371 155.852 40.9516C155.943 40.8808 155.989 40.7929 155.989 40.6879C155.989 40.5951 155.948 40.5071 155.865 40.4217C155.679 40.2458 155.501 40.0211 155.335 39.7501ZM149.349 39.2372C149.29 39.1591 149.195 39.1127 149.068 39.098C148.907 39.0833 148.763 39.0247 148.641 38.9222C148.516 38.822 148.455 38.6779 148.455 38.4948V35.5153H149.027C149.161 35.5153 149.261 35.4738 149.329 35.3883C149.395 35.3028 149.43 35.2125 149.43 35.1124C149.43 35.0122 149.395 34.9219 149.329 34.8364C149.261 34.7509 149.161 34.7094 149.027 34.7094H148.455V32.8655C148.455 32.7312 148.411 32.6311 148.328 32.5627C148.243 32.4968 148.15 32.4626 148.052 32.4626C147.952 32.4626 147.862 32.4968 147.776 32.5627C147.691 32.6311 147.649 32.7312 147.649 32.8655V34.7094H147.278C147.144 34.7094 147.044 34.7509 146.975 34.8364C146.909 34.9219 146.875 35.0122 146.875 35.1124C146.875 35.2125 146.909 35.3028 146.975 35.3883C147.044 35.4738 147.144 35.5153 147.278 35.5153H147.649V38.5143C147.649 38.7048 147.683 38.8855 147.754 39.054C147.825 39.225 147.925 39.374 148.052 39.501C148.179 39.628 148.328 39.7256 148.497 39.7965C148.665 39.8673 148.846 39.9039 149.036 39.9039C149.178 39.9039 149.281 39.8624 149.344 39.7794C149.408 39.6963 149.439 39.606 149.439 39.5058C149.439 39.4057 149.41 39.3154 149.349 39.2372ZM145.158 35.0806C145.158 34.9463 145.117 34.8462 145.031 34.7778C144.946 34.7118 144.855 34.6776 144.755 34.6776C144.657 34.6776 144.565 34.7118 144.479 34.7778C144.396 34.8462 144.352 34.9463 144.352 35.0806V39.5107C144.352 39.6451 144.396 39.7452 144.479 39.8087C144.565 39.8722 144.657 39.9039 144.755 39.9039C144.855 39.9039 144.946 39.8722 145.031 39.8087C145.117 39.7452 145.158 39.6451 145.158 39.5107V35.0806ZM145.158 32.8655C145.158 32.7312 145.117 32.6311 145.031 32.5627C144.946 32.4968 144.855 32.4626 144.755 32.4626C144.657 32.4626 144.565 32.4968 144.479 32.5627C144.396 32.6311 144.352 32.7312 144.352 32.8655V33.0976C144.352 33.2319 144.396 33.3344 144.479 33.4004C144.565 33.4688 144.657 33.5005 144.755 33.5005C144.855 33.5005 144.946 33.4688 145.031 33.4004C145.117 33.3344 145.158 33.2319 145.158 33.0976V32.8655ZM141.744 36.9245H139.834V36.3921C139.834 36.1356 139.925 35.9183 140.105 35.7449C140.286 35.5715 140.498 35.4836 140.748 35.4836H140.853C141.087 35.4836 141.292 35.5715 141.473 35.7449C141.654 35.9183 141.744 36.1381 141.744 36.4018V36.9245ZM142.547 36.3945C142.547 36.1478 142.503 35.9207 142.416 35.7107C142.328 35.5031 142.206 35.3199 142.052 35.1661C141.895 35.0098 141.712 34.8901 141.505 34.8046C141.297 34.7216 141.075 34.6776 140.843 34.6776H140.735C140.503 34.6776 140.284 34.7216 140.074 34.8095C139.866 34.8974 139.683 35.0196 139.529 35.1759C139.373 35.3322 139.25 35.5129 139.163 35.7229C139.075 35.9305 139.031 36.1503 139.031 36.3847V38.2066C139.031 38.4484 139.075 38.6706 139.163 38.8758C139.25 39.0809 139.373 39.2592 139.529 39.4106C139.683 39.562 139.866 39.6817 140.074 39.7696C140.284 39.86 140.503 39.9039 140.735 39.9039H140.843C141.202 39.9039 141.519 39.8111 141.79 39.6231C142.064 39.4375 142.262 39.1957 142.389 38.8953C142.418 38.8465 142.433 38.7878 142.433 38.717C142.433 38.5949 142.389 38.4972 142.306 38.4191C142.22 38.3409 142.125 38.3018 142.02 38.3018C141.949 38.3018 141.881 38.3214 141.817 38.3605C141.754 38.3995 141.705 38.4655 141.668 38.5583C141.597 38.7048 141.495 38.8318 141.356 38.9393C141.219 39.0443 141.048 39.098 140.843 39.098H140.735C140.489 39.098 140.276 39.0101 140.1 38.8342C139.925 38.6584 139.834 38.4484 139.834 38.2042V37.6669H142.147C142.259 37.6669 142.355 37.6254 142.433 37.5448C142.511 37.4642 142.547 37.3689 142.547 37.2639V36.3945ZM136.484 38.1993C136.484 38.4459 136.396 38.6584 136.22 38.8342C136.041 39.0101 135.827 39.098 135.573 39.098H135.477C135.236 39.098 135.026 39.0247 134.847 38.8758C134.667 38.7268 134.576 38.5241 134.576 38.2628V36.2968C134.576 36.0502 134.667 35.8523 134.847 35.7058C135.026 35.5568 135.236 35.4836 135.477 35.4836H135.573C135.827 35.4836 136.041 35.5715 136.22 35.7473C136.396 35.9232 136.484 36.1356 136.484 36.3823V38.1993ZM137.289 36.3847C137.289 36.1503 137.245 35.9305 137.158 35.7229C137.07 35.5129 136.948 35.3322 136.791 35.1759C136.635 35.0196 136.454 34.8974 136.247 34.8095C136.037 34.7216 135.812 34.6776 135.573 34.6776H135.499C135.314 34.6776 135.138 34.707 134.969 34.768C134.798 34.8291 134.669 34.9145 134.576 35.0269V32.8655C134.576 32.7312 134.535 32.6311 134.449 32.5627C134.364 32.4968 134.273 32.4626 134.173 32.4626C134.076 32.4626 133.983 32.4968 133.897 32.5627C133.814 32.6311 133.77 32.7312 133.77 32.8655V39.5327C133.77 39.6597 133.814 39.7525 133.897 39.8136C133.983 39.8722 134.076 39.9039 134.173 39.9039C134.266 39.9039 134.349 39.8771 134.427 39.8282C134.505 39.7769 134.552 39.6988 134.566 39.5913C134.642 39.6695 134.757 39.7427 134.911 39.8062C135.062 39.8697 135.25 39.9039 135.477 39.9039H135.573C135.805 39.9039 136.027 39.86 136.234 39.7696C136.444 39.6817 136.625 39.562 136.781 39.4106C136.935 39.2592 137.06 39.0809 137.153 38.8758C137.243 38.6706 137.289 38.4484 137.289 38.2066V36.3847ZM132.044 35.1978C131.917 35.0122 131.753 34.8803 131.55 34.7998C131.35 34.7192 131.147 34.6776 130.942 34.6776C130.801 34.6776 130.683 34.6874 130.593 34.7094C130.5 34.7314 130.422 34.7558 130.359 34.7827C130.28 34.812 130.222 34.8486 130.178 34.8901C130.144 34.812 130.095 34.7582 130.031 34.7265C129.968 34.6947 129.899 34.6776 129.829 34.6776C129.731 34.6776 129.636 34.7143 129.548 34.7827C129.46 34.8535 129.416 34.9536 129.416 35.0806V39.4888C129.416 39.6304 129.457 39.7354 129.543 39.8014C129.628 39.8697 129.719 39.9039 129.819 39.9039C129.916 39.9039 130.009 39.8697 130.095 39.8014C130.178 39.7354 130.222 39.6304 130.222 39.4888V36.1942C130.222 36.1088 130.229 36.0233 130.241 35.9378C130.256 35.8548 130.288 35.7791 130.337 35.7107C130.388 35.6448 130.459 35.5886 130.549 35.5471C130.642 35.5055 130.769 35.4836 130.932 35.4836C131.064 35.4836 131.169 35.5104 131.245 35.5617C131.318 35.6154 131.377 35.6643 131.418 35.7058C131.519 35.8059 131.626 35.8548 131.748 35.8548C131.853 35.8548 131.946 35.8181 132.024 35.7473C132.1 35.6789 132.139 35.5861 132.139 35.4738C132.139 35.3883 132.107 35.2955 132.044 35.1978ZM126.392 38.1968C126.392 38.4508 126.302 38.6657 126.121 38.8367C125.943 39.0101 125.728 39.098 125.481 39.098H125.386C125.118 39.098 124.9 39.0296 124.734 38.8953C124.568 38.761 124.485 38.5827 124.485 38.3556V38.2701C124.485 38.0869 124.546 37.9453 124.671 37.8476C124.795 37.7475 124.951 37.6693 125.142 37.6132C125.332 37.557 125.54 37.513 125.762 37.4813C125.985 37.4495 126.195 37.408 126.392 37.3592V38.1968ZM127.733 39.2616C127.682 39.1884 127.594 39.1395 127.474 39.1175C127.291 39.0833 127.198 38.9661 127.198 38.7683V36.3115C127.198 36.0843 127.157 35.8719 127.071 35.6741C126.986 35.4762 126.871 35.3028 126.722 35.1539C126.573 35.0073 126.397 34.8901 126.192 34.8046C125.987 34.7216 125.767 34.6776 125.535 34.6776H125.459C125.318 34.6776 125.174 34.6947 125.025 34.7265C124.878 34.7582 124.732 34.8095 124.59 34.8852C124.448 34.9585 124.317 35.0586 124.194 35.1856C124.07 35.3126 123.965 35.4738 123.882 35.6643C123.853 35.7131 123.838 35.7766 123.838 35.8548C123.838 35.9671 123.882 36.0575 123.965 36.1234C124.05 36.1918 124.143 36.226 124.241 36.226C124.312 36.226 124.378 36.2089 124.444 36.1771C124.507 36.1454 124.558 36.0917 124.602 36.0135C124.7 35.8377 124.815 35.7034 124.942 35.6154C125.069 35.5275 125.242 35.4836 125.459 35.4836H125.535C125.767 35.4836 125.967 35.5471 126.138 35.6741C126.307 35.8011 126.392 36.0233 126.392 36.3408C126.392 36.3701 126.39 36.4018 126.388 36.4385C126.385 36.4727 126.375 36.502 126.361 36.5215C126.319 36.5777 126.221 36.6216 126.07 36.6534C125.919 36.6851 125.743 36.7193 125.545 36.7559C125.347 36.7901 125.14 36.8365 124.92 36.8927C124.7 36.9489 124.5 37.0319 124.314 37.1418C124.131 37.2517 123.98 37.3958 123.86 37.5765C123.74 37.7572 123.679 37.9844 123.679 38.2603V38.3873C123.679 38.634 123.728 38.8538 123.828 39.0443C123.926 39.2348 124.055 39.3935 124.214 39.5205C124.373 39.6475 124.556 39.7452 124.761 39.8087C124.966 39.8722 125.174 39.9039 125.386 39.9039H125.481C125.926 39.9039 126.307 39.7647 126.627 39.4888C126.698 39.5889 126.788 39.6744 126.903 39.7452C127.015 39.816 127.164 39.8648 127.347 39.8917C127.355 39.899 127.379 39.9039 127.421 39.9039C127.548 39.9039 127.645 39.8624 127.711 39.7818C127.78 39.7012 127.814 39.606 127.814 39.501C127.814 39.4155 127.787 39.3373 127.733 39.2616ZM122.023 36.3847C122.023 36.0941 121.979 35.8426 121.887 35.6277C121.794 35.4103 121.672 35.232 121.515 35.0904C121.359 34.9487 121.178 34.8462 120.976 34.7778C120.77 34.7118 120.553 34.6776 120.328 34.6776H120.233C120.05 34.6776 119.877 34.707 119.713 34.7631C119.552 34.8193 119.42 34.8974 119.322 34.9951C119.3 34.8901 119.251 34.8095 119.173 34.7582C119.095 34.7045 119.01 34.6776 118.919 34.6776C118.812 34.6776 118.717 34.7143 118.631 34.7827C118.548 34.8535 118.504 34.9536 118.504 35.0806V39.5107C118.504 39.6451 118.548 39.7452 118.631 39.8087C118.717 39.8722 118.809 39.9039 118.907 39.9039C119.007 39.9039 119.098 39.8722 119.183 39.8087C119.269 39.7452 119.31 39.6451 119.31 39.5107V36.3847C119.31 36.1307 119.4 35.9158 119.579 35.7424C119.759 35.569 119.972 35.4836 120.219 35.4836H120.311C120.565 35.4836 120.78 35.5715 120.956 35.7473C121.129 35.9256 121.217 36.1381 121.217 36.3847V39.5107C121.217 39.6451 121.261 39.7452 121.347 39.8087C121.432 39.8722 121.528 39.9039 121.628 39.9039C121.728 39.9039 121.818 39.8722 121.901 39.8087C121.982 39.7452 122.023 39.6451 122.023 39.5107V36.3847ZM115.954 36.9245H114.047V36.3921C114.047 36.1356 114.138 35.9183 114.316 35.7449C114.497 35.5715 114.711 35.4836 114.958 35.4836H115.063C115.298 35.4836 115.503 35.5715 115.683 35.7449C115.864 35.9183 115.954 36.1381 115.954 36.4018V36.9245ZM116.76 36.3945C116.76 36.1478 116.714 35.9207 116.626 35.7107C116.538 35.5031 116.416 35.3199 116.262 35.1661C116.106 35.0098 115.925 34.8901 115.715 34.8046C115.508 34.7216 115.285 34.6776 115.053 34.6776H114.946C114.714 34.6776 114.494 34.7216 114.284 34.8095C114.076 34.8974 113.893 35.0196 113.739 35.1759C113.583 35.3322 113.461 35.5129 113.373 35.7229C113.285 35.9305 113.241 36.1503 113.241 36.3847V38.2066C113.241 38.4484 113.285 38.6706 113.373 38.8758C113.461 39.0809 113.583 39.2592 113.739 39.4106C113.893 39.562 114.076 39.6817 114.284 39.7696C114.494 39.86 114.714 39.9039 114.946 39.9039H115.053C115.412 39.9039 115.73 39.8111 116.001 39.6231C116.274 39.4375 116.472 39.1957 116.599 38.8953C116.629 38.8465 116.643 38.7878 116.643 38.717C116.643 38.5949 116.599 38.4972 116.516 38.4191C116.431 38.3409 116.335 38.3018 116.23 38.3018C116.16 38.3018 116.091 38.3214 116.028 38.3605C115.964 38.3995 115.915 38.4655 115.879 38.5583C115.81 38.7048 115.705 38.8318 115.566 38.9393C115.429 39.0443 115.258 39.098 115.053 39.098H114.946C114.699 39.098 114.487 39.0101 114.311 38.8342C114.135 38.6584 114.047 38.4484 114.047 38.2042V37.6669H116.357C116.47 37.6669 116.565 37.6254 116.643 37.5448C116.721 37.4642 116.76 37.3689 116.76 37.2639V36.3945ZM111.466 36.3725C111.466 36.0843 111.419 35.8304 111.329 35.6154C111.236 35.4005 111.112 35.2247 110.953 35.0855C110.794 34.9487 110.611 34.8462 110.406 34.7778C110.201 34.7118 109.986 34.6776 109.761 34.6776H109.666C109.397 34.6776 109.151 34.7338 108.928 34.8413C108.706 34.9512 108.513 35.0977 108.35 35.2809C108.188 35.0977 107.995 34.9512 107.773 34.8413C107.551 34.7338 107.304 34.6776 107.036 34.6776H106.94C106.757 34.6776 106.584 34.707 106.423 34.7631C106.259 34.8193 106.127 34.8974 106.029 34.9951C106.007 34.8901 105.959 34.8095 105.88 34.7582C105.802 34.7045 105.722 34.6776 105.636 34.6776C105.531 34.6776 105.436 34.7143 105.351 34.7827C105.265 34.8535 105.224 34.9536 105.224 35.0806V39.5107C105.224 39.6451 105.265 39.7452 105.351 39.8087C105.436 39.8722 105.526 39.9039 105.626 39.9039C105.724 39.9039 105.817 39.8722 105.902 39.8087C105.988 39.7452 106.029 39.6451 106.029 39.5107V36.2993C106.029 36.0526 106.12 35.8548 106.305 35.7058C106.489 35.5568 106.701 35.4836 106.94 35.4836H107.036C107.29 35.4836 107.507 35.569 107.683 35.7376C107.859 35.9085 107.947 36.1259 107.947 36.3945V39.4888C107.947 39.6304 107.991 39.7354 108.076 39.8014C108.159 39.8697 108.252 39.9039 108.35 39.9039C108.45 39.9039 108.542 39.8697 108.625 39.8014C108.711 39.7354 108.752 39.6304 108.752 39.4888V36.3945C108.752 36.1332 108.84 35.9158 109.019 35.7424C109.195 35.569 109.409 35.4836 109.666 35.4836H109.761C110.027 35.4836 110.247 35.5568 110.411 35.7058C110.577 35.8548 110.66 36.077 110.66 36.3725V39.5107C110.66 39.6451 110.704 39.7452 110.789 39.8087C110.872 39.8722 110.965 39.9039 111.063 39.9039C111.163 39.9039 111.256 39.8722 111.339 39.8087C111.424 39.7452 111.466 39.6451 111.466 39.5107V36.3725ZM103.35 36.3725C103.35 36.0843 103.304 35.8304 103.211 35.6154C103.121 35.4005 102.994 35.2247 102.835 35.0855C102.676 34.9487 102.496 34.8462 102.29 34.7778C102.085 34.7118 101.87 34.6776 101.643 34.6776H101.548C101.279 34.6776 101.035 34.7338 100.811 34.8413C100.588 34.9512 100.395 35.0977 100.234 35.2809C100.071 35.0977 99.88 34.9512 99.6553 34.8413C99.4331 34.7338 99.1889 34.6776 98.9202 34.6776H98.825C98.6394 34.6776 98.466 34.707 98.3048 34.7631C98.1412 34.8193 98.0118 34.8974 97.9116 34.9951C97.8921 34.8901 97.8408 34.8095 97.7651 34.7582C97.6869 34.7045 97.6064 34.6776 97.5209 34.6776C97.4134 34.6776 97.3182 34.7143 97.2351 34.7827C97.1497 34.8535 97.1081 34.9536 97.1081 35.0806V39.5107C97.1081 39.6451 97.1497 39.7452 97.2351 39.8087C97.3182 39.8722 97.411 39.9039 97.5087 39.9039C97.6088 39.9039 97.7016 39.8722 97.7846 39.8087C97.8701 39.7452 97.9116 39.6451 97.9116 39.5107V36.2993C97.9116 36.0526 98.0044 35.8548 98.1876 35.7058C98.3708 35.5568 98.5832 35.4836 98.825 35.4836H98.9202C99.1742 35.4836 99.3891 35.569 99.565 35.7376C99.7433 35.9085 99.8312 36.1259 99.8312 36.3945V39.4888C99.8312 39.6304 99.8727 39.7354 99.9582 39.8014C100.044 39.8697 100.134 39.9039 100.234 39.9039C100.332 39.9039 100.425 39.8697 100.51 39.8014C100.593 39.7354 100.637 39.6304 100.637 39.4888V36.3945C100.637 36.1332 100.725 35.9158 100.901 35.7424C101.079 35.569 101.294 35.4836 101.548 35.4836H101.643C101.912 35.4836 102.129 35.5568 102.295 35.7058C102.461 35.8548 102.544 36.077 102.544 36.3725V39.5107C102.544 39.6451 102.586 39.7452 102.671 39.8087C102.757 39.8722 102.847 39.9039 102.947 39.9039C103.045 39.9039 103.138 39.8722 103.223 39.8087C103.309 39.7452 103.35 39.6451 103.35 39.5107V36.3725ZM94.0554 38.1968C94.0554 38.4508 93.9651 38.6657 93.7843 38.8367C93.6061 39.0101 93.3911 39.098 93.1445 39.098H93.0492C92.7806 39.098 92.5632 39.0296 92.3972 38.8953C92.2311 38.761 92.1481 38.5827 92.1481 38.3556V38.2701C92.1481 38.0869 92.2091 37.9453 92.3337 37.8476C92.4558 37.7475 92.6145 37.6693 92.805 37.6132C92.9955 37.557 93.2031 37.513 93.4253 37.4813C93.6476 37.4495 93.8576 37.408 94.0554 37.3592V38.1968ZM95.3962 39.2616C95.3424 39.1884 95.257 39.1395 95.1373 39.1175C94.9517 39.0833 94.8613 38.9661 94.8613 38.7683V36.3115C94.8613 36.0843 94.8198 35.8719 94.7343 35.6741C94.6489 35.4762 94.5316 35.3028 94.3851 35.1539C94.2361 35.0073 94.0603 34.8901 93.8552 34.8046C93.65 34.7216 93.4302 34.6776 93.1982 34.6776H93.1225C92.9809 34.6776 92.8368 34.6947 92.6878 34.7265C92.5388 34.7582 92.3947 34.8095 92.2531 34.8852C92.1114 34.9585 91.9796 35.0586 91.8575 35.1856C91.7329 35.3126 91.6279 35.4738 91.5424 35.6643C91.5155 35.7131 91.5009 35.7766 91.5009 35.8548C91.5009 35.9671 91.5424 36.0575 91.6279 36.1234C91.7134 36.1918 91.8062 36.226 91.9038 36.226C91.9747 36.226 92.0406 36.2089 92.1065 36.1771C92.17 36.1454 92.2213 36.0917 92.2653 36.0135C92.363 35.8377 92.4753 35.7034 92.6048 35.6154C92.7318 35.5275 92.9027 35.4836 93.1225 35.4836H93.1982C93.4302 35.4836 93.6305 35.5471 93.8014 35.6741C93.9699 35.8011 94.0554 36.0233 94.0554 36.3408C94.0554 36.3701 94.053 36.4018 94.0505 36.4385C94.0456 36.4727 94.0383 36.502 94.0237 36.5215C93.9821 36.5777 93.8845 36.6216 93.733 36.6534C93.5792 36.6851 93.4058 36.7193 93.208 36.7559C93.0102 36.7901 92.8001 36.8365 92.5828 36.8927C92.363 36.9489 92.1627 37.0319 91.9771 37.1418C91.794 37.2517 91.6425 37.3958 91.5229 37.5765C91.4032 37.7572 91.3421 37.9844 91.3421 38.2603V38.3873C91.3421 38.634 91.391 38.8538 91.4911 39.0443C91.5888 39.2348 91.7182 39.3935 91.877 39.5205C92.0357 39.6475 92.2189 39.7452 92.424 39.8087C92.6292 39.8722 92.8368 39.9039 93.0492 39.9039H93.1445C93.589 39.9039 93.9699 39.7647 94.2899 39.4888C94.3582 39.5889 94.451 39.6744 94.5634 39.7452C94.6782 39.816 94.8247 39.8648 95.0103 39.8917C95.0176 39.899 95.0421 39.9039 95.0836 39.9039C95.2106 39.9039 95.3083 39.8624 95.3742 39.7818C95.4426 39.7012 95.4768 39.606 95.4768 39.501C95.4768 39.4155 95.4499 39.3373 95.3962 39.2616ZM89.8036 38.38C89.8036 38.0357 89.7327 37.7646 89.596 37.5668C89.4568 37.3689 89.2883 37.2151 89.088 37.1076C88.8853 36.9977 88.6655 36.9171 88.4237 36.8634C88.1844 36.8097 87.9646 36.7584 87.7619 36.7047C87.5616 36.6509 87.3907 36.5801 87.2539 36.4922C87.1147 36.4043 87.0463 36.27 87.0463 36.0868V36.055C87.0537 35.8987 87.1343 35.7644 87.2906 35.6521C87.4469 35.5397 87.6715 35.4836 87.9695 35.4836H88.011C88.2503 35.4836 88.4384 35.5178 88.5727 35.5837C88.707 35.6521 88.8316 35.7131 88.9439 35.7693C89.0294 35.8108 89.1051 35.8328 89.1759 35.8328C89.2907 35.8328 89.3811 35.7937 89.4519 35.7156C89.5227 35.6399 89.5593 35.5495 89.5593 35.4518C89.5593 35.3224 89.5081 35.2198 89.4104 35.1392C89.3689 35.105 89.3054 35.0586 89.2248 35.0049C89.1442 34.9512 89.0441 34.9023 88.9268 34.8559C88.812 34.8095 88.6777 34.768 88.5263 34.7314C88.3724 34.6947 88.2064 34.6776 88.0208 34.6776H87.9793C87.8107 34.6776 87.6251 34.7021 87.4224 34.746C87.2222 34.7924 87.0341 34.8681 86.8607 34.9731C86.6873 35.0806 86.5408 35.2198 86.4211 35.3908C86.3015 35.5642 86.2404 35.7766 86.2404 36.0306C86.2404 36.3628 86.3088 36.6192 86.448 36.7975C86.5848 36.9782 86.7557 37.1174 86.956 37.2151C87.1587 37.3152 87.3785 37.386 87.6178 37.4324C87.8596 37.4788 88.0794 37.5326 88.2821 37.5961C88.4823 37.6596 88.6533 37.745 88.7901 37.8549C88.9268 37.9648 88.9976 38.1309 88.9976 38.358V38.3898C88.9903 38.5656 88.9 38.7268 88.7266 38.8758C88.5532 39.0223 88.3041 39.098 87.9793 39.098H87.9255C87.7277 39.098 87.5275 39.0296 87.3223 38.8953C87.1172 38.761 86.9487 38.6071 86.8143 38.4313C86.763 38.3605 86.7069 38.3116 86.6434 38.2872C86.5799 38.2628 86.5164 38.2506 86.4529 38.2506C86.3479 38.2506 86.2526 38.2848 86.1672 38.3556C86.0817 38.4264 86.0402 38.5216 86.0402 38.6413C86.0402 38.6706 86.0573 38.7366 86.0915 38.844C86.1769 39.0052 86.2868 39.1542 86.4211 39.286C86.5555 39.4179 86.7044 39.5303 86.8656 39.6182C87.0292 39.7085 87.2002 39.7769 87.3809 39.8282C87.5616 39.8771 87.735 39.9039 87.906 39.9039H87.9695C88.1868 39.9039 88.4066 39.8722 88.6264 39.8087C88.8438 39.7452 89.0416 39.6524 89.2199 39.5278C89.3957 39.4033 89.5374 39.2519 89.6424 39.0687C89.7498 38.8855 89.8036 38.6706 89.8036 38.4215V38.38ZM84.3746 35.0806C84.3746 34.9463 84.3306 34.8462 84.2452 34.7778C84.1621 34.7118 84.0693 34.6776 83.9716 34.6776C83.8715 34.6776 83.7811 34.7118 83.6957 34.7778C83.6102 34.8462 83.5687 34.9463 83.5687 35.0806V38.1993C83.5687 38.4459 83.4783 38.6584 83.3025 38.8342C83.1266 39.0101 82.9117 39.098 82.6553 39.098H82.56C82.3134 39.098 82.1009 39.0101 81.9251 38.8342C81.7492 38.6584 81.6613 38.4459 81.6613 38.1993V35.0806C81.6613 34.9463 81.6174 34.8462 81.5319 34.7778C81.4489 34.7118 81.3561 34.6776 81.2584 34.6776C81.1582 34.6776 81.0679 34.7118 80.9824 34.7778C80.8969 34.8462 80.8554 34.9463 80.8554 35.0806V38.2066C80.8554 38.5046 80.8994 38.7585 80.9922 38.971C81.085 39.1835 81.2071 39.3569 81.3634 39.4961C81.5197 39.6328 81.7004 39.7354 81.908 39.8014C82.118 39.8697 82.3354 39.9039 82.56 39.9039H82.6553C82.8409 39.9039 83.0143 39.8771 83.1755 39.8233C83.3391 39.7696 83.4685 39.6915 83.5687 39.5913C83.5882 39.6988 83.6395 39.7769 83.7152 39.8282C83.7934 39.8771 83.8788 39.9039 83.9716 39.9039C84.0693 39.9039 84.1621 39.8697 84.2452 39.8014C84.3306 39.7354 84.3746 39.6377 84.3746 39.5107V35.0806ZM79.1801 39.1713C79.1141 39.0882 79.0115 39.0443 78.8772 39.0443H76.2079L79.2167 33.2685C79.2655 33.1757 79.2924 33.0853 79.2924 32.9925C79.2924 32.8655 79.246 32.7556 79.1532 32.6628C79.0628 32.5725 78.9456 32.5261 78.804 32.5261H75.7732C75.6316 32.5261 75.529 32.5676 75.4655 32.6531C75.402 32.7386 75.3702 32.8289 75.3702 32.929C75.3702 33.0292 75.402 33.1195 75.4655 33.205C75.529 33.288 75.6316 33.332 75.7732 33.332H78.2838L75.2848 39.0882C75.2433 39.1639 75.2213 39.2494 75.2213 39.3422C75.2213 39.4765 75.2628 39.5938 75.3434 39.6963C75.424 39.7989 75.5388 39.8502 75.6877 39.8502H78.8772C79.0115 39.8502 79.1141 39.8087 79.1801 39.7232C79.246 39.6377 79.2802 39.5474 79.2802 39.4472C79.2802 39.3495 79.246 39.2567 79.1801 39.1713Z" fill="#8F8F8F"/>
<path d="M153.336 25.3404H151.429V24.8055C151.429 24.5491 151.519 24.3342 151.7 24.1608C151.881 23.9874 152.093 23.8995 152.34 23.8995H152.445C152.68 23.8995 152.885 23.9874 153.068 24.1608C153.246 24.3342 153.336 24.554 153.336 24.8177V25.3404ZM154.142 24.8104C154.142 24.5637 154.098 24.3366 154.008 24.1266C153.92 23.919 153.8 23.7358 153.644 23.582C153.488 23.4257 153.307 23.306 153.1 23.2205C152.89 23.1351 152.67 23.0935 152.435 23.0935H152.33C152.096 23.0935 151.876 23.1375 151.668 23.2254C151.458 23.3133 151.278 23.4355 151.121 23.5918C150.965 23.7481 150.843 23.9288 150.755 24.1364C150.667 24.3464 150.623 24.5662 150.623 24.8006V26.6225C150.623 26.8643 150.667 27.0865 150.755 27.2917C150.843 27.4968 150.965 27.6751 151.121 27.8265C151.278 27.9779 151.458 28.0976 151.668 28.1879C151.876 28.2759 152.096 28.3198 152.33 28.3198H152.435C152.797 28.3198 153.112 28.227 153.385 28.039C153.656 27.8534 153.857 27.6116 153.984 27.3112C154.011 27.2624 154.025 27.2037 154.025 27.1329C154.025 27.0108 153.984 26.9131 153.898 26.835C153.813 26.7568 153.717 26.7178 153.612 26.7178C153.542 26.7178 153.473 26.7373 153.41 26.7764C153.346 26.8154 153.297 26.8814 153.263 26.9742C153.19 27.1207 153.087 27.2477 152.948 27.3552C152.811 27.4602 152.64 27.5139 152.435 27.5139H152.33C152.084 27.5139 151.871 27.426 151.693 27.2501C151.517 27.0743 151.429 26.8643 151.429 26.6201V26.0828H153.739C153.852 26.0828 153.947 26.0413 154.025 25.9607C154.103 25.8801 154.142 25.7848 154.142 25.6798V24.8104ZM149.065 27.6433C149.002 27.5579 148.899 27.5139 148.76 27.5139C148.596 27.5066 148.459 27.4455 148.345 27.3332C148.232 27.2208 148.176 27.0841 148.176 26.9205V21.2814C148.176 21.1471 148.135 21.047 148.049 20.9786C147.964 20.9127 147.873 20.8785 147.773 20.8785C147.675 20.8785 147.583 20.9127 147.497 20.9786C147.412 21.047 147.37 21.1471 147.37 21.2814V26.9302C147.37 27.1207 147.404 27.3014 147.475 27.4724C147.546 27.6409 147.646 27.7899 147.773 27.9169C147.9 28.0439 148.049 28.1415 148.218 28.2124C148.389 28.2832 148.567 28.3198 148.76 28.3198C148.899 28.3198 149.002 28.2783 149.065 28.1953C149.129 28.1122 149.16 28.0219 149.16 27.9217C149.16 27.8216 149.129 27.7288 149.065 27.6433ZM144.344 26.6127C144.344 26.8667 144.254 27.0816 144.073 27.255C143.895 27.426 143.68 27.5139 143.433 27.5139H143.338C143.07 27.5139 142.852 27.4455 142.686 27.3112C142.52 27.1769 142.437 26.9986 142.437 26.7715V26.686C142.437 26.5028 142.498 26.3612 142.623 26.2635C142.745 26.1634 142.903 26.0852 143.094 26.0291C143.284 25.9729 143.492 25.9289 143.714 25.8972C143.936 25.8654 144.147 25.8239 144.344 25.7751V26.6127ZM145.685 27.6775C145.631 27.6043 145.546 27.5554 145.426 27.5359C145.241 27.4992 145.15 27.382 145.15 27.1842V24.7249C145.15 24.5002 145.106 24.2878 145.023 24.09C144.938 23.8921 144.821 23.7187 144.674 23.5698C144.525 23.4208 144.347 23.306 144.144 23.2205C143.939 23.1351 143.719 23.0935 143.487 23.0935H143.411C143.27 23.0935 143.126 23.1082 142.977 23.1399C142.828 23.1717 142.684 23.2254 142.542 23.3011C142.4 23.3744 142.268 23.4745 142.144 23.6015C142.022 23.7285 141.917 23.8873 141.831 24.0802C141.804 24.129 141.79 24.1925 141.79 24.2707C141.79 24.383 141.831 24.4734 141.917 24.5393C142.002 24.6077 142.093 24.6419 142.193 24.6419C142.264 24.6419 142.33 24.6248 142.393 24.593C142.459 24.5613 142.51 24.5076 142.554 24.4294C142.652 24.2511 142.764 24.1193 142.891 24.0313C143.018 23.9434 143.192 23.8995 143.411 23.8995H143.487C143.719 23.8995 143.919 23.963 144.09 24.09C144.259 24.217 144.344 24.4392 144.344 24.7567C144.344 24.786 144.342 24.8177 144.339 24.8519C144.335 24.8886 144.327 24.9154 144.313 24.9374C144.271 24.9936 144.173 25.0375 144.022 25.0693C143.868 25.101 143.695 25.1352 143.497 25.1718C143.299 25.206 143.089 25.2524 142.872 25.3086C142.652 25.3648 142.452 25.4478 142.266 25.5577C142.083 25.6676 141.931 25.8117 141.812 25.9924C141.692 26.1731 141.631 26.4003 141.631 26.6762V26.8032C141.631 27.0499 141.68 27.2697 141.78 27.4602C141.878 27.6507 142.007 27.8094 142.166 27.9388C142.325 28.0658 142.508 28.1611 142.713 28.2246C142.918 28.2881 143.126 28.3198 143.338 28.3198H143.433C143.878 28.3198 144.259 28.1806 144.579 27.9071C144.647 28.0048 144.74 28.0903 144.852 28.1611C144.967 28.2319 145.114 28.2807 145.299 28.3076C145.304 28.3149 145.331 28.3198 145.373 28.3198C145.499 28.3198 145.597 28.2783 145.663 28.1977C145.732 28.1171 145.766 28.0219 145.766 27.9169C145.766 27.8314 145.739 27.7532 145.685 27.6775ZM139.975 24.8006C139.975 24.51 139.929 24.2585 139.839 24.0411C139.746 23.8262 139.621 23.6479 139.467 23.5063C139.311 23.3646 139.13 23.2621 138.925 23.1937C138.722 23.1277 138.505 23.0935 138.28 23.0935H138.185C138 23.0935 137.829 23.1229 137.665 23.179C137.501 23.2352 137.372 23.3133 137.272 23.411C137.252 23.306 137.201 23.2254 137.125 23.1717C137.047 23.1204 136.962 23.0935 136.871 23.0935C136.764 23.0935 136.669 23.1277 136.583 23.1986C136.5 23.2694 136.456 23.3695 136.456 23.4965V27.9266C136.456 28.061 136.5 28.1611 136.583 28.2246C136.669 28.2881 136.761 28.3198 136.859 28.3198C136.959 28.3198 137.05 28.2881 137.135 28.2246C137.22 28.1611 137.262 28.061 137.262 27.9266V24.8006C137.262 24.5442 137.352 24.3317 137.531 24.1583C137.711 23.9849 137.924 23.8995 138.168 23.8995H138.263C138.517 23.8995 138.73 23.9874 138.906 24.1632C139.081 24.3415 139.169 24.5515 139.169 24.8006V27.9266C139.169 28.061 139.213 28.1611 139.299 28.2246C139.384 28.2881 139.477 28.3198 139.577 28.3198C139.677 28.3198 139.77 28.2881 139.853 28.2246C139.934 28.1611 139.975 28.061 139.975 27.9266V24.8006ZM133.811 26.6152C133.811 26.8618 133.723 27.0743 133.547 27.2501C133.369 27.426 133.157 27.5139 132.91 27.5139H132.815C132.561 27.5139 132.346 27.426 132.168 27.2501C131.992 27.0743 131.904 26.8618 131.904 26.6152V24.7982C131.904 24.5515 131.992 24.3391 132.168 24.1632C132.346 23.9874 132.556 23.8995 132.805 23.8995H132.91C133.157 23.8995 133.369 23.9874 133.547 24.1632C133.723 24.3391 133.811 24.5515 133.811 24.7982V26.6152ZM134.617 24.8006C134.617 24.5662 134.573 24.3464 134.485 24.1364C134.395 23.9288 134.273 23.7481 134.119 23.5918C133.963 23.4355 133.782 23.3133 133.572 23.2254C133.364 23.1375 133.144 23.0935 132.91 23.0935H132.805C132.571 23.0935 132.351 23.1375 132.143 23.2254C131.933 23.3133 131.752 23.4355 131.596 23.5918C131.44 23.7481 131.318 23.9288 131.23 24.1364C131.142 24.3464 131.098 24.5662 131.098 24.8006V26.6225C131.098 26.8643 131.142 27.0865 131.23 27.2917C131.318 27.4968 131.44 27.6751 131.596 27.8265C131.752 27.9779 131.933 28.0976 132.143 28.1879C132.351 28.2759 132.571 28.3198 132.805 28.3198H132.91C133.144 28.3198 133.364 28.2759 133.572 28.1879C133.782 28.0976 133.963 27.9779 134.119 27.8265C134.273 27.6751 134.395 27.4968 134.485 27.2917C134.573 27.0865 134.617 26.8643 134.617 26.6225V24.8006ZM129.2 23.4965C129.2 23.3622 129.159 23.2621 129.073 23.1937C128.988 23.1277 128.898 23.0935 128.797 23.0935C128.7 23.0935 128.607 23.1277 128.521 23.1937C128.438 23.2621 128.394 23.3622 128.394 23.4965V27.9266C128.394 28.061 128.438 28.1611 128.521 28.2246C128.607 28.2881 128.7 28.3198 128.797 28.3198C128.898 28.3198 128.988 28.2881 129.073 28.2246C129.159 28.1611 129.2 28.061 129.2 27.9266V23.4965ZM129.2 21.2814C129.2 21.1471 129.159 21.047 129.073 20.9786C128.988 20.9127 128.898 20.8785 128.797 20.8785C128.7 20.8785 128.607 20.9127 128.521 20.9786C128.438 21.047 128.394 21.1471 128.394 21.2814V21.5135C128.394 21.6478 128.438 21.7503 128.521 21.8163C128.607 21.8822 128.7 21.9164 128.797 21.9164C128.898 21.9164 128.988 21.8822 129.073 21.8163C129.159 21.7503 129.2 21.6478 129.2 21.5135V21.2814ZM126.592 27.6531C126.531 27.575 126.438 27.5286 126.311 27.5139C126.15 27.4992 126.006 27.4406 125.881 27.3381C125.759 27.2379 125.696 27.0938 125.696 26.9107V23.9312H126.27C126.404 23.9312 126.504 23.8873 126.57 23.8042C126.639 23.7187 126.673 23.6259 126.673 23.5283C126.673 23.4281 126.639 23.3378 126.57 23.2523C126.504 23.1668 126.404 23.1253 126.27 23.1253H125.696V21.2814C125.696 21.1471 125.654 21.047 125.569 20.9786C125.486 20.9127 125.393 20.8785 125.293 20.8785C125.195 20.8785 125.102 20.9127 125.019 20.9786C124.934 21.047 124.892 21.1471 124.892 21.2814V23.1253H124.521C124.387 23.1253 124.284 23.1668 124.218 23.2523C124.15 23.3378 124.118 23.4281 124.118 23.5283C124.118 23.6259 124.15 23.7187 124.218 23.8042C124.284 23.8873 124.387 23.9312 124.521 23.9312H124.892V26.9302C124.892 27.1207 124.927 27.3014 124.997 27.4724C125.068 27.6409 125.166 27.7899 125.293 27.9169C125.422 28.0439 125.569 28.1415 125.74 28.2124C125.908 28.2832 126.089 28.3198 126.279 28.3198C126.421 28.3198 126.524 28.2783 126.587 28.1953C126.651 28.1122 126.682 28.0219 126.682 27.9217C126.682 27.8216 126.653 27.7313 126.592 27.6531ZM121.661 26.6127C121.661 26.8667 121.571 27.0816 121.39 27.255C121.21 27.426 120.997 27.5139 120.748 27.5139H120.655C120.387 27.5139 120.169 27.4455 120.003 27.3112C119.837 27.1769 119.754 26.9986 119.754 26.7715V26.686C119.754 26.5028 119.815 26.3612 119.94 26.2635C120.062 26.1634 120.22 26.0852 120.411 26.0291C120.601 25.9729 120.807 25.9289 121.031 25.8972C121.253 25.8654 121.464 25.8239 121.661 25.7751V26.6127ZM123.002 27.6775C122.948 27.6043 122.863 27.5554 122.741 27.5359C122.558 27.4992 122.467 27.382 122.467 27.1842V24.7249C122.467 24.5002 122.423 24.2878 122.338 24.09C122.255 23.8921 122.138 23.7187 121.989 23.5698C121.842 23.4208 121.664 23.306 121.459 23.2205C121.253 23.1351 121.036 23.0935 120.802 23.0935H120.728C120.587 23.0935 120.443 23.1082 120.294 23.1399C120.145 23.1717 120.001 23.2254 119.859 23.3011C119.717 23.3744 119.585 23.4745 119.461 23.6015C119.339 23.7285 119.234 23.8873 119.148 24.0802C119.121 24.129 119.107 24.1925 119.107 24.2707C119.107 24.383 119.148 24.4734 119.234 24.5393C119.319 24.6077 119.41 24.6419 119.51 24.6419C119.581 24.6419 119.647 24.6248 119.71 24.593C119.774 24.5613 119.827 24.5076 119.869 24.4294C119.969 24.2511 120.081 24.1193 120.208 24.0313C120.335 23.9434 120.509 23.8995 120.728 23.8995H120.802C121.036 23.8995 121.236 23.963 121.407 24.09C121.576 24.217 121.661 24.4392 121.661 24.7567C121.661 24.786 121.659 24.8177 121.656 24.8519C121.652 24.8886 121.644 24.9154 121.63 24.9374C121.586 24.9936 121.49 25.0375 121.337 25.0693C121.185 25.101 121.012 25.1352 120.814 25.1718C120.616 25.206 120.406 25.2524 120.189 25.3086C119.969 25.3648 119.766 25.4478 119.583 25.5577C119.4 25.6676 119.248 25.8117 119.129 25.9924C119.007 26.1731 118.948 26.4003 118.948 26.6762V26.8032C118.948 27.0499 118.997 27.2697 119.095 27.4602C119.195 27.6507 119.324 27.8094 119.483 27.9388C119.642 28.0658 119.822 28.1611 120.028 28.2246C120.233 28.2881 120.443 28.3198 120.655 28.3198H120.748C121.195 28.3198 121.576 28.1806 121.893 27.9071C121.964 28.0048 122.057 28.0903 122.169 28.1611C122.282 28.2319 122.431 28.2807 122.614 28.3076C122.621 28.3149 122.646 28.3198 122.689 28.3198C122.816 28.3198 122.914 28.2783 122.98 28.1977C123.048 28.1171 123.08 28.0219 123.08 27.9169C123.08 27.8314 123.056 27.7532 123.002 27.6775ZM117.292 24.8006C117.292 24.51 117.246 24.2585 117.153 24.0411C117.063 23.8262 116.938 23.6479 116.784 23.5063C116.628 23.3646 116.447 23.2621 116.242 23.1937C116.037 23.1277 115.822 23.0935 115.597 23.0935H115.502C115.317 23.0935 115.143 23.1229 114.982 23.179C114.818 23.2352 114.689 23.3133 114.589 23.411C114.567 23.306 114.518 23.2254 114.44 23.1717C114.364 23.1204 114.279 23.0935 114.186 23.0935C114.081 23.0935 113.986 23.1277 113.9 23.1986C113.817 23.2694 113.773 23.3695 113.773 23.4965V27.9266C113.773 28.061 113.817 28.1611 113.9 28.2246C113.986 28.2881 114.076 28.3198 114.176 28.3198C114.274 28.3198 114.367 28.2881 114.452 28.2246C114.537 28.1611 114.579 28.061 114.579 27.9266V24.8006C114.579 24.5442 114.669 24.3317 114.848 24.1583C115.026 23.9849 115.238 23.8995 115.485 23.8995H115.58C115.832 23.8995 116.047 23.9874 116.223 24.1632C116.398 24.3415 116.486 24.5515 116.486 24.8006V27.9266C116.486 28.061 116.53 28.1611 116.616 28.2246C116.701 28.2881 116.794 28.3198 116.894 28.3198C116.994 28.3198 117.085 28.2881 117.168 28.2246C117.251 28.1611 117.292 28.061 117.292 27.9266V24.8006ZM112.3 23.6137C112.173 23.4281 112.007 23.2962 111.807 23.2157C111.607 23.1351 111.402 23.0935 111.199 23.0935C111.055 23.0935 110.94 23.1033 110.847 23.1253C110.757 23.1473 110.679 23.1717 110.615 23.1986C110.537 23.2279 110.476 23.2621 110.435 23.306C110.398 23.2279 110.349 23.1717 110.286 23.1399C110.222 23.1082 110.156 23.0935 110.085 23.0935C109.985 23.0935 109.892 23.1277 109.805 23.1986C109.717 23.2694 109.673 23.3695 109.673 23.4965V27.9071C109.673 28.0463 109.714 28.1513 109.8 28.2197C109.883 28.2856 109.975 28.3198 110.076 28.3198C110.173 28.3198 110.266 28.2856 110.349 28.2197C110.435 28.1513 110.476 28.0463 110.476 27.9071V24.6101C110.476 24.5247 110.483 24.4392 110.498 24.3537C110.513 24.2707 110.544 24.195 110.593 24.1266C110.642 24.0607 110.713 24.0045 110.806 23.963C110.896 23.919 111.026 23.8995 111.187 23.8995C111.321 23.8995 111.426 23.9263 111.499 23.9776C111.575 24.0313 111.631 24.0802 111.675 24.1217C111.773 24.2194 111.883 24.2707 112.002 24.2707C112.11 24.2707 112.2 24.234 112.278 24.1632C112.357 24.0924 112.396 24.002 112.396 23.8873C112.396 23.8042 112.364 23.7114 112.3 23.6137ZM107.15 25.3404H105.24V24.8055C105.24 24.5491 105.33 24.3342 105.511 24.1608C105.692 23.9874 105.904 23.8995 106.153 23.8995H106.258C106.493 23.8995 106.698 23.9874 106.879 24.1608C107.059 24.3342 107.15 24.554 107.15 24.8177V25.3404ZM107.956 24.8104C107.956 24.5637 107.909 24.3366 107.821 24.1266C107.734 23.919 107.611 23.7358 107.458 23.582C107.301 23.4257 107.118 23.306 106.911 23.2205C106.703 23.1351 106.481 23.0935 106.249 23.0935H106.141C105.909 23.0935 105.687 23.1375 105.479 23.2254C105.272 23.3133 105.089 23.4355 104.935 23.5918C104.778 23.7481 104.656 23.9288 104.568 24.1364C104.481 24.3464 104.437 24.5662 104.437 24.8006V26.6225C104.437 26.8643 104.481 27.0865 104.568 27.2917C104.656 27.4968 104.778 27.6751 104.935 27.8265C105.089 27.9779 105.272 28.0976 105.479 28.1879C105.687 28.2759 105.909 28.3198 106.141 28.3198H106.249C106.608 28.3198 106.925 28.227 107.196 28.039C107.47 27.8534 107.668 27.6116 107.795 27.3112C107.824 27.2624 107.839 27.2037 107.839 27.1329C107.839 27.0108 107.795 26.9131 107.712 26.835C107.626 26.7568 107.531 26.7178 107.426 26.7178C107.355 26.7178 107.287 26.7373 107.223 26.7764C107.16 26.8154 107.111 26.8814 107.074 26.9742C107.003 27.1207 106.901 27.2477 106.762 27.3552C106.625 27.4602 106.454 27.5139 106.249 27.5139H106.141C105.895 27.5139 105.682 27.426 105.506 27.2501C105.33 27.0743 105.24 26.8643 105.24 26.6201V26.0828H107.553C107.665 26.0828 107.76 26.0413 107.839 25.9607C107.917 25.8801 107.956 25.7848 107.956 25.6798V24.8104ZM102.881 27.6531C102.82 27.575 102.727 27.5286 102.6 27.5139C102.436 27.4992 102.292 27.4406 102.17 27.3381C102.046 27.2379 101.985 27.0938 101.985 26.9107V23.9312H102.556C102.69 23.9312 102.791 23.8873 102.859 23.8042C102.925 23.7187 102.959 23.6259 102.959 23.5283C102.959 23.4281 102.925 23.3378 102.859 23.2523C102.791 23.1668 102.69 23.1253 102.556 23.1253H101.985V21.2814C101.985 21.1471 101.941 21.047 101.858 20.9786C101.772 20.9127 101.679 20.8785 101.582 20.8785C101.482 20.8785 101.391 20.9127 101.306 20.9786C101.22 21.047 101.179 21.1471 101.179 21.2814V23.1253H100.808C100.673 23.1253 100.573 23.1668 100.505 23.2523C100.439 23.3378 100.405 23.4281 100.405 23.5283C100.405 23.6259 100.439 23.7187 100.505 23.8042C100.573 23.8873 100.673 23.9312 100.808 23.9312H101.179V26.9302C101.179 27.1207 101.213 27.3014 101.284 27.4724C101.355 27.6409 101.455 27.7899 101.582 27.9169C101.709 28.0439 101.858 28.1415 102.026 28.2124C102.197 28.2832 102.375 28.3198 102.568 28.3198C102.708 28.3198 102.81 28.2783 102.874 28.1953C102.937 28.1122 102.969 28.0219 102.969 27.9217C102.969 27.8216 102.94 27.7313 102.881 27.6531ZM98.9099 24.8006C98.9099 24.51 98.8635 24.2585 98.7707 24.0411C98.6804 23.8262 98.5558 23.6479 98.3995 23.5063C98.2457 23.3646 98.0649 23.2621 97.8598 23.1937C97.6546 23.1277 97.4397 23.0935 97.2126 23.0935H97.1174C96.9342 23.0935 96.7608 23.1229 96.5996 23.179C96.436 23.2352 96.3066 23.3133 96.2064 23.411C96.1869 23.306 96.1356 23.2254 96.0575 23.1717C95.9817 23.1204 95.8963 23.0935 95.8035 23.0935C95.6985 23.0935 95.6032 23.1277 95.5177 23.1986C95.4323 23.2694 95.3907 23.3695 95.3907 23.4965V27.9266C95.3907 28.061 95.4323 28.1611 95.5177 28.2246C95.6032 28.2881 95.6936 28.3198 95.7937 28.3198C95.8914 28.3198 95.9842 28.2881 96.0697 28.2246C96.1527 28.1611 96.1967 28.061 96.1967 27.9266V24.8006C96.1967 24.5442 96.287 24.3317 96.4653 24.1583C96.6436 23.9849 96.8561 23.8995 97.1027 23.8995H97.198C97.4495 23.8995 97.6644 23.9874 97.8403 24.1632C98.0161 24.3415 98.104 24.5515 98.104 24.8006V27.9266C98.104 28.061 98.148 28.1611 98.2334 28.2246C98.3189 28.2881 98.4117 28.3198 98.5119 28.3198C98.612 28.3198 98.7023 28.2881 98.7854 28.2246C98.8684 28.1611 98.9099 28.061 98.9099 27.9266V24.8006ZM93.2489 21.2814C93.2489 21.1471 93.2074 21.047 93.122 20.9786C93.0365 20.9127 92.9437 20.8785 92.846 20.8785C92.7459 20.8785 92.6555 20.9127 92.57 20.9786C92.4845 21.047 92.443 21.1471 92.443 21.2814V27.9266C92.443 28.061 92.4845 28.1611 92.57 28.2246C92.6555 28.2881 92.7459 28.3198 92.846 28.3198C92.9437 28.3198 93.0365 28.2881 93.122 28.2246C93.2074 28.1611 93.2489 28.061 93.2489 27.9266V21.2814ZM87.207 23.6137C87.08 23.4281 86.9164 23.2962 86.7137 23.2157C86.5134 23.1351 86.3107 23.0935 86.1056 23.0935C85.9639 23.0935 85.8467 23.1033 85.7563 23.1253C85.6635 23.1473 85.5854 23.1717 85.5219 23.1986C85.4437 23.2279 85.3851 23.2621 85.3412 23.306C85.307 23.2279 85.2581 23.1717 85.1946 23.1399C85.1311 23.1082 85.0627 23.0935 84.9919 23.0935C84.8942 23.0935 84.799 23.1277 84.7111 23.1986C84.6231 23.2694 84.5792 23.3695 84.5792 23.4965V27.9071C84.5792 28.0463 84.6207 28.1513 84.7062 28.2197C84.7917 28.2856 84.882 28.3198 84.9821 28.3198C85.0798 28.3198 85.1726 28.2856 85.2581 28.2197C85.3412 28.1513 85.3851 28.0463 85.3851 27.9071V24.6101C85.3851 24.5247 85.3924 24.4392 85.4046 24.3537C85.4193 24.2707 85.451 24.195 85.5023 24.1266C85.5512 24.0607 85.622 24.0045 85.7124 23.963C85.8052 23.919 85.9322 23.8995 86.0958 23.8995C86.2277 23.8995 86.3327 23.9263 86.4084 23.9776C86.4816 24.0313 86.5403 24.0802 86.5818 24.1217C86.6819 24.2194 86.7894 24.2707 86.9115 24.2707C87.0165 24.2707 87.1093 24.234 87.1874 24.1632C87.2631 24.0924 87.3022 24.002 87.3022 23.8873C87.3022 23.8042 87.2705 23.7114 87.207 23.6137ZM82.6889 23.4965C82.6889 23.3622 82.645 23.2621 82.5619 23.1937C82.4765 23.1277 82.3837 23.0935 82.286 23.0935C82.1858 23.0935 82.0955 23.1277 82.01 23.1937C81.9245 23.2596 81.883 23.3622 81.883 23.4941V26.6152C81.883 26.8618 81.7951 27.0719 81.6168 27.2501C81.441 27.426 81.2261 27.5139 80.9721 27.5139H80.8768C80.6277 27.5139 80.4153 27.426 80.2394 27.2501C80.0636 27.0719 79.9757 26.8618 79.9757 26.6152V23.4941C79.9757 23.3622 79.9317 23.2596 79.8487 23.1937C79.7632 23.1277 79.6704 23.0935 79.5727 23.0935C79.4726 23.0935 79.3822 23.1277 79.2967 23.1937C79.2113 23.2621 79.1697 23.3622 79.1697 23.4965V26.6225C79.1697 26.9205 79.2161 27.1744 79.3065 27.3869C79.3993 27.5994 79.5214 27.7728 79.6777 27.912C79.834 28.0487 80.0147 28.1513 80.2248 28.2197C80.4324 28.2856 80.6497 28.3198 80.8768 28.3198H80.9721C81.1552 28.3198 81.3286 28.293 81.4898 28.2392C81.6534 28.1855 81.7829 28.1074 81.883 28.0072C81.905 28.1147 81.9538 28.1953 82.032 28.2441C82.1077 28.293 82.1932 28.3198 82.286 28.3198C82.3837 28.3198 82.4765 28.2856 82.5619 28.2197C82.645 28.1513 82.6889 28.0536 82.6889 27.9266V23.4965ZM80.3469 21.2814C80.3469 21.1471 80.3029 21.047 80.2174 20.9786C80.1344 20.9127 80.0416 20.8785 79.9439 20.8785C79.8438 20.8785 79.7534 20.9127 79.668 20.9786C79.5825 21.047 79.541 21.1471 79.541 21.2814V21.5135C79.541 21.6478 79.5825 21.7503 79.668 21.8163C79.7534 21.8822 79.8438 21.9164 79.9439 21.9164C80.0416 21.9164 80.1344 21.8822 80.2174 21.8163C80.3029 21.7503 80.3469 21.6478 80.3469 21.5135V21.2814ZM82.2957 21.2814C82.2957 21.1471 82.2518 21.047 82.1639 20.9786C82.0759 20.9127 81.9807 20.8785 81.883 20.8785C81.7829 20.8785 81.6925 20.9127 81.6119 20.9786C81.5313 21.047 81.4898 21.1471 81.4898 21.2814V21.5135C81.4898 21.6478 81.5338 21.7503 81.6168 21.8163C81.7023 21.8822 81.7951 21.9164 81.8928 21.9164C81.9929 21.9164 82.0833 21.8822 82.1687 21.8163C82.2542 21.7503 82.2957 21.6478 82.2957 21.5135V21.2814ZM77.5799 21.0055C77.5115 20.92 77.4114 20.8785 77.2771 20.8785C77.0792 20.8785 76.8985 20.9127 76.7324 20.9835C76.5664 21.0543 76.4198 21.152 76.2977 21.2766C76.1732 21.3987 76.0779 21.5476 76.012 21.721C75.9436 21.8944 75.9094 22.08 75.9094 22.2779V23.1253H75.6774C75.5431 23.1253 75.443 23.1668 75.3746 23.2523C75.3087 23.3378 75.2745 23.4281 75.2745 23.5283C75.2745 23.6259 75.3087 23.7187 75.3746 23.8042C75.443 23.8873 75.5431 23.9312 75.6774 23.9312H75.9094V27.9266C75.9094 28.061 75.9534 28.1611 76.0364 28.2246C76.1219 28.2881 76.2147 28.3198 76.3124 28.3198C76.4125 28.3198 76.5029 28.2881 76.5884 28.2246C76.6738 28.1611 76.7153 28.061 76.7153 27.9266V23.9312H77.2136C77.3479 23.9312 77.448 23.8873 77.5164 23.8042C77.5823 23.7187 77.6165 23.6259 77.6165 23.5283C77.6165 23.4281 77.5848 23.3378 77.5213 23.2523C77.4578 23.1668 77.3552 23.1253 77.2136 23.1253H76.7153V22.2779C76.7153 22.1142 76.7666 21.975 76.8692 21.8578C76.9718 21.743 77.1085 21.6844 77.2771 21.6844C77.4114 21.6844 77.5115 21.6404 77.5799 21.5574C77.6458 21.4719 77.68 21.3791 77.68 21.2814C77.68 21.1813 77.6458 21.091 77.5799 21.0055Z" fill="#8F8F8F"/>
<path d="M175.842 16.0691C175.783 15.991 175.688 15.9446 175.561 15.9299C175.397 15.9153 175.255 15.8567 175.131 15.7541C175.009 15.654 174.948 15.5099 174.948 15.3267V12.3472H175.519C175.651 12.3472 175.754 12.3057 175.82 12.2202C175.888 12.1348 175.922 12.0444 175.922 11.9443C175.922 11.8466 175.888 11.7538 175.82 11.6683C175.754 11.5828 175.651 11.5413 175.519 11.5413H174.948V9.69746C174.948 9.56314 174.904 9.46301 174.818 9.39463C174.735 9.32869 174.642 9.2945 174.545 9.2945C174.445 9.2945 174.354 9.32869 174.269 9.39463C174.183 9.46301 174.142 9.56314 174.142 9.69746V11.5413H173.771C173.636 11.5413 173.536 11.5828 173.468 11.6683C173.402 11.7538 173.368 11.8466 173.368 11.9443C173.368 12.0444 173.402 12.1348 173.468 12.2202C173.536 12.3057 173.636 12.3472 173.771 12.3472H174.142V15.3462C174.142 15.5367 174.176 15.7174 174.247 15.8884C174.318 16.0569 174.418 16.2059 174.545 16.3329C174.672 16.4599 174.818 16.5576 174.989 16.6284C175.158 16.6992 175.338 16.7358 175.529 16.7358C175.671 16.7358 175.773 16.6943 175.837 16.6113C175.9 16.5283 175.932 16.4379 175.932 16.3378C175.932 16.2376 175.903 16.1473 175.842 16.0691ZM172.364 9.42149C172.298 9.33602 172.198 9.2945 172.063 9.2945C171.866 9.2945 171.682 9.33113 171.516 9.39952C171.353 9.47034 171.206 9.56803 171.082 9.69258C170.96 9.81469 170.864 9.96366 170.796 10.1371C170.73 10.3105 170.696 10.4961 170.696 10.6939V11.5413H170.464C170.329 11.5413 170.229 11.5828 170.161 11.6683C170.093 11.7538 170.061 11.8466 170.061 11.9443C170.061 12.0444 170.093 12.1348 170.161 12.2202C170.229 12.3057 170.329 12.3472 170.464 12.3472H170.696V16.3426C170.696 16.477 170.74 16.5771 170.823 16.6406C170.908 16.7041 170.999 16.7358 171.099 16.7358C171.196 16.7358 171.289 16.7041 171.375 16.6406C171.46 16.5771 171.502 16.477 171.502 16.3426V12.3472H172C172.134 12.3472 172.234 12.3057 172.3 12.2202C172.369 12.1348 172.403 12.0444 172.403 11.9443C172.403 11.8466 172.371 11.7538 172.308 11.6683C172.244 11.5828 172.142 11.5413 172 11.5413H171.502V10.6939C171.502 10.5302 171.553 10.391 171.656 10.2738C171.758 10.159 171.895 10.1004 172.063 10.1004C172.198 10.1004 172.298 10.0589 172.364 9.97343C172.432 9.88795 172.466 9.79759 172.466 9.69746C172.466 9.59733 172.432 9.50697 172.364 9.42149ZM167.472 15.0288C167.472 15.2827 167.382 15.4977 167.201 15.671C167.02 15.8444 166.808 15.9299 166.559 15.9299H166.464C166.197 15.9299 165.98 15.8615 165.814 15.7272C165.648 15.5953 165.562 15.4146 165.562 15.1875V15.102C165.562 14.9189 165.626 14.7772 165.75 14.6795C165.873 14.5794 166.029 14.5012 166.222 14.4451C166.412 14.3889 166.62 14.3449 166.842 14.3132C167.064 14.2814 167.274 14.2399 167.472 14.1911V15.0288ZM168.813 16.0935C168.759 16.0203 168.674 15.9714 168.552 15.9519C168.368 15.9153 168.278 15.798 168.278 15.6002V13.1409C168.278 12.9163 168.234 12.7038 168.149 12.506C168.066 12.3082 167.948 12.1348 167.799 11.9858C167.65 11.8393 167.477 11.722 167.269 11.6366C167.064 11.5511 166.847 11.5096 166.615 11.5096H166.539C166.398 11.5096 166.253 11.5267 166.105 11.5584C165.958 11.5902 165.811 11.6414 165.67 11.7171C165.528 11.7904 165.396 11.8905 165.272 12.0175C165.15 12.147 165.045 12.3057 164.962 12.4962C164.932 12.545 164.918 12.6085 164.918 12.6867C164.918 12.799 164.962 12.8894 165.045 12.9578C165.13 13.0237 165.22 13.0579 165.321 13.0579C165.391 13.0579 165.457 13.0408 165.521 13.0091C165.584 12.9773 165.638 12.9236 165.68 12.8454C165.78 12.6696 165.892 12.5353 166.021 12.4474C166.146 12.3594 166.319 12.3155 166.539 12.3155H166.615C166.847 12.3155 167.047 12.379 167.218 12.506C167.387 12.633 167.472 12.8552 167.472 13.1727C167.472 13.202 167.47 13.2337 167.467 13.2704C167.462 13.3046 167.455 13.3339 167.44 13.3534C167.396 13.4096 167.301 13.4535 167.15 13.4877C166.996 13.5195 166.823 13.5512 166.622 13.5879C166.427 13.6221 166.217 13.6685 165.997 13.7246C165.78 13.7808 165.579 13.8638 165.394 13.9737C165.211 14.0836 165.059 14.2277 164.937 14.4084C164.817 14.5892 164.759 14.8163 164.759 15.0922V15.2192C164.759 15.4659 164.808 15.6857 164.905 15.8762C165.006 16.0667 165.135 16.2254 165.294 16.3524C165.452 16.4819 165.636 16.5771 165.838 16.6406C166.046 16.7041 166.253 16.7358 166.464 16.7358H166.559C167.006 16.7358 167.387 16.5966 167.704 16.3207C167.775 16.4208 167.868 16.5063 167.98 16.5771C168.092 16.6479 168.241 16.6968 168.425 16.7236C168.432 16.731 168.456 16.7358 168.5 16.7358C168.627 16.7358 168.723 16.6943 168.791 16.6137C168.859 16.5331 168.891 16.4379 168.891 16.3329C168.891 16.2474 168.867 16.1693 168.813 16.0935ZM163.127 13.2167C163.127 12.9822 163.084 12.7624 162.996 12.5548C162.905 12.3448 162.786 12.1641 162.629 12.0078C162.475 11.8515 162.292 11.7318 162.085 11.6414C161.875 11.5535 161.655 11.5096 161.42 11.5096H161.335C161.152 11.5096 160.976 11.5389 160.805 11.595C160.636 11.6512 160.507 11.7294 160.414 11.827V9.69746C160.414 9.56314 160.37 9.46301 160.287 9.39463C160.202 9.32869 160.109 9.2945 160.011 9.2945C159.914 9.2945 159.821 9.32869 159.735 9.39463C159.65 9.46301 159.608 9.56314 159.608 9.69746V16.3426C159.608 16.477 159.65 16.5771 159.735 16.6406C159.821 16.7041 159.914 16.7358 160.011 16.7358C160.109 16.7358 160.202 16.7041 160.287 16.6406C160.37 16.5771 160.414 16.477 160.414 16.3426V13.1629C160.414 13.0286 160.444 12.9089 160.5 12.8039C160.556 12.6965 160.627 12.6061 160.717 12.5328C160.805 12.4596 160.908 12.4034 161.025 12.3692C161.14 12.3326 161.259 12.3155 161.379 12.3155C161.491 12.3155 161.604 12.3326 161.718 12.3692C161.831 12.4034 161.933 12.4596 162.026 12.5328C162.116 12.6061 162.19 12.7013 162.243 12.8137C162.295 12.926 162.322 13.0604 162.322 13.2167V16.3426C162.322 16.477 162.363 16.5771 162.449 16.6406C162.534 16.7041 162.627 16.7358 162.725 16.7358C162.822 16.7358 162.915 16.7041 163 16.6406C163.084 16.5771 163.127 16.477 163.127 16.3426V13.2167ZM157.786 14.7162C157.701 14.6478 157.608 14.616 157.51 14.616C157.41 14.616 157.32 14.6478 157.239 14.7162C157.159 14.7821 157.115 14.8871 157.107 15.0288C157.093 15.2754 157 15.4879 156.832 15.6637C156.661 15.842 156.455 15.9299 156.206 15.9299H156.111C155.857 15.9299 155.642 15.842 155.464 15.6662C155.288 15.4903 155.2 15.2779 155.2 15.0312V13.2142C155.2 12.9675 155.288 12.7551 155.464 12.5792C155.642 12.4034 155.852 12.3155 156.099 12.3155H156.206C156.455 12.3155 156.661 12.401 156.832 12.5695C157 12.7404 157.093 12.9578 157.107 13.2264C157.115 13.3607 157.159 13.4609 157.239 13.5244C157.32 13.5879 157.41 13.6196 157.51 13.6196C157.608 13.6196 157.701 13.5854 157.786 13.5195C157.869 13.4511 157.913 13.351 157.913 13.2167C157.913 12.9822 157.867 12.7624 157.774 12.5548C157.681 12.3448 157.562 12.1641 157.41 12.0078C157.256 11.8515 157.076 11.7318 156.868 11.6414C156.661 11.5535 156.438 11.5096 156.206 11.5096H156.099C155.867 11.5096 155.645 11.5535 155.439 11.6414C155.229 11.7318 155.049 11.8515 154.897 12.0029C154.746 12.1543 154.624 12.335 154.531 12.5426C154.438 12.7526 154.394 12.9773 154.394 13.2167V15.0385C154.394 15.2803 154.438 15.5025 154.526 15.7077C154.614 15.9128 154.736 16.0911 154.892 16.2425C155.049 16.3939 155.229 16.5136 155.439 16.6015C155.645 16.6919 155.867 16.7358 156.099 16.7358H156.206C156.438 16.7358 156.661 16.6894 156.868 16.6015C157.076 16.5112 157.259 16.389 157.415 16.2352C157.569 16.0813 157.691 15.9031 157.782 15.6979C157.869 15.4928 157.913 15.2681 157.913 15.0288C157.913 14.8871 157.869 14.7821 157.786 14.7162ZM152.768 15.2119C152.768 14.8676 152.699 14.5965 152.563 14.3987C152.423 14.2009 152.255 14.047 152.052 13.9395C151.852 13.8296 151.63 13.749 151.39 13.6953C151.151 13.6416 150.929 13.5903 150.729 13.5366C150.526 13.4828 150.357 13.412 150.218 13.3241C150.081 13.2362 150.013 13.1019 150.013 12.9187V12.887C150.02 12.7307 150.101 12.5963 150.257 12.484C150.411 12.3717 150.638 12.3155 150.934 12.3155H150.978C151.217 12.3155 151.405 12.3497 151.537 12.4156C151.674 12.484 151.796 12.545 151.911 12.6012C151.994 12.6427 152.072 12.6647 152.143 12.6647C152.255 12.6647 152.348 12.6256 152.419 12.5475C152.489 12.4718 152.524 12.3814 152.524 12.2837C152.524 12.1543 152.475 12.0517 152.377 11.9711C152.333 11.9369 152.272 11.8905 152.191 11.8368C152.108 11.7831 152.011 11.7342 151.893 11.6878C151.776 11.6414 151.642 11.5999 151.49 11.5633C151.339 11.5267 151.171 11.5096 150.987 11.5096H150.946C150.775 11.5096 150.589 11.5315 150.389 11.5779C150.186 11.6243 150.001 11.7001 149.827 11.8051C149.654 11.9125 149.507 12.0517 149.388 12.2227C149.266 12.3961 149.207 12.6085 149.207 12.8625C149.207 13.1947 149.275 13.4511 149.412 13.6294C149.551 13.8101 149.72 13.9493 149.923 14.047C150.123 14.1471 150.345 14.2179 150.584 14.2643C150.824 14.3107 151.046 14.3645 151.246 14.428C151.449 14.4915 151.617 14.5769 151.757 14.6868C151.893 14.7967 151.964 14.9628 151.964 15.1899V15.2217C151.957 15.3975 151.864 15.5587 151.693 15.7077C151.52 15.8567 151.271 15.9299 150.946 15.9299H150.892C150.694 15.9299 150.492 15.8615 150.289 15.7272C150.084 15.5953 149.913 15.439 149.779 15.2608C149.73 15.1924 149.673 15.1435 149.61 15.1191C149.546 15.0947 149.483 15.0825 149.42 15.0825C149.312 15.0825 149.217 15.1167 149.131 15.1875C149.048 15.2583 149.004 15.3536 149.004 15.4732C149.004 15.5025 149.024 15.5685 149.058 15.6759C149.144 15.8371 149.253 15.9861 149.388 16.118C149.522 16.2498 149.669 16.3622 149.832 16.4501C149.993 16.5405 150.167 16.6088 150.345 16.6601C150.526 16.709 150.702 16.7358 150.87 16.7358H150.934C151.153 16.7358 151.373 16.7041 151.591 16.6406C151.81 16.5771 152.008 16.4843 152.184 16.3597C152.362 16.2376 152.504 16.0838 152.609 15.9006C152.714 15.7174 152.768 15.5025 152.768 15.2559V15.2119ZM147.534 16.0594C147.471 15.9714 147.368 15.9299 147.226 15.9299C147.063 15.9226 146.926 15.8615 146.811 15.7492C146.699 15.6369 146.643 15.5001 146.643 15.3365V9.69746C146.643 9.56314 146.601 9.46301 146.516 9.39463C146.43 9.32869 146.34 9.2945 146.24 9.2945C146.142 9.2945 146.049 9.32869 145.964 9.39463C145.881 9.46301 145.837 9.56314 145.837 9.69746V15.3462C145.837 15.5367 145.873 15.7174 145.944 15.8884C146.013 16.0569 146.113 16.2059 146.24 16.3329C146.367 16.4599 146.516 16.5576 146.684 16.6284C146.855 16.6992 147.036 16.7358 147.226 16.7358C147.368 16.7358 147.471 16.6943 147.534 16.6113C147.598 16.5283 147.629 16.4379 147.629 16.3378C147.629 16.2376 147.598 16.1448 147.534 16.0594ZM144.205 16.0594C144.142 15.9714 144.039 15.9299 143.898 15.9299C143.734 15.9226 143.597 15.8615 143.485 15.7492C143.37 15.6369 143.314 15.5001 143.314 15.3365V9.69746C143.314 9.56314 143.273 9.46301 143.187 9.39463C143.104 9.32869 143.011 9.2945 142.911 9.2945C142.813 9.2945 142.721 9.32869 142.638 9.39463C142.552 9.46301 142.511 9.56314 142.511 9.69746V15.3462C142.511 15.5367 142.545 15.7174 142.616 15.8884C142.686 16.0569 142.784 16.2059 142.911 16.3329C143.041 16.4599 143.187 16.5576 143.358 16.6284C143.527 16.6992 143.707 16.7358 143.898 16.7358C144.039 16.7358 144.142 16.6943 144.205 16.6113C144.269 16.5283 144.301 16.4379 144.301 16.3378C144.301 16.2376 144.269 16.1448 144.205 16.0594ZM139.9 13.7564H137.993V13.224C137.993 12.9675 138.083 12.7502 138.264 12.5768C138.442 12.4034 138.657 12.3155 138.903 12.3155H139.011C139.243 12.3155 139.451 12.4034 139.629 12.5768C139.81 12.7502 139.9 12.97 139.9 13.2337V13.7564ZM140.706 13.2264C140.706 12.9798 140.662 12.7526 140.574 12.5426C140.484 12.335 140.364 12.1519 140.208 11.998C140.051 11.8417 139.871 11.722 139.661 11.6366C139.453 11.5511 139.233 11.5096 138.999 11.5096H138.894C138.659 11.5096 138.439 11.5535 138.232 11.6414C138.022 11.7318 137.841 11.8515 137.685 12.0078C137.528 12.1641 137.406 12.3448 137.318 12.5548C137.231 12.7624 137.187 12.9822 137.187 13.2167V15.0385C137.187 15.2803 137.231 15.5025 137.318 15.7077C137.406 15.9128 137.528 16.0911 137.685 16.2425C137.841 16.3939 138.022 16.5136 138.232 16.6015C138.439 16.6919 138.659 16.7358 138.894 16.7358H138.999C139.36 16.7358 139.675 16.643 139.949 16.455C140.22 16.2694 140.42 16.0276 140.547 15.7272C140.574 15.6784 140.589 15.6198 140.589 15.5489C140.589 15.4268 140.547 15.3291 140.462 15.251C140.376 15.1728 140.281 15.1338 140.176 15.1338C140.105 15.1338 140.037 15.1533 139.973 15.1924C139.91 15.2315 139.861 15.2974 139.827 15.3902C139.756 15.5367 139.651 15.6637 139.514 15.7712C139.375 15.8762 139.204 15.9299 138.999 15.9299H138.894C138.645 15.9299 138.435 15.842 138.256 15.6662C138.08 15.4903 137.993 15.2803 137.993 15.0361V14.4988H140.303C140.415 14.4988 140.51 14.4573 140.589 14.3767C140.667 14.2961 140.706 14.2009 140.706 14.0958V13.2264ZM135.565 15.2119C135.565 14.8676 135.497 14.5965 135.36 14.3987C135.221 14.2009 135.052 14.047 134.852 13.9395C134.649 13.8296 134.429 13.749 134.188 13.6953C133.948 13.6416 133.726 13.5903 133.526 13.5366C133.326 13.4828 133.155 13.412 133.018 13.3241C132.879 13.2362 132.81 13.1019 132.81 12.9187V12.887C132.818 12.7307 132.898 12.5963 133.054 12.484C133.211 12.3717 133.435 12.3155 133.733 12.3155H133.775C134.014 12.3155 134.202 12.3497 134.337 12.4156C134.471 12.484 134.595 12.545 134.708 12.6012C134.793 12.6427 134.869 12.6647 134.94 12.6647C135.055 12.6647 135.145 12.6256 135.216 12.5475C135.287 12.4718 135.323 12.3814 135.323 12.2837C135.323 12.1543 135.272 12.0517 135.174 11.9711C135.133 11.9369 135.069 11.8905 134.989 11.8368C134.908 11.7831 134.808 11.7342 134.691 11.6878C134.576 11.6414 134.442 11.5999 134.29 11.5633C134.136 11.5267 133.97 11.5096 133.785 11.5096H133.743C133.575 11.5096 133.389 11.5315 133.186 11.5779C132.986 11.6243 132.798 11.7001 132.625 11.8051C132.451 11.9125 132.305 12.0517 132.185 12.2227C132.065 12.3961 132.004 12.6085 132.004 12.8625C132.004 13.1947 132.073 13.4511 132.212 13.6294C132.349 13.8101 132.52 13.9493 132.72 14.047C132.923 14.1471 133.142 14.2179 133.382 14.2643C133.623 14.3107 133.843 14.3645 134.046 14.428C134.246 14.4915 134.417 14.5769 134.554 14.6868C134.691 14.7967 134.762 14.9628 134.762 15.1899V15.2217C134.754 15.3975 134.664 15.5587 134.49 15.7077C134.317 15.8567 134.068 15.9299 133.743 15.9299H133.689C133.492 15.9299 133.291 15.8615 133.086 15.7272C132.881 15.5953 132.71 15.439 132.578 15.2608C132.527 15.1924 132.471 15.1435 132.407 15.1191C132.344 15.0947 132.28 15.0825 132.217 15.0825C132.112 15.0825 132.016 15.1167 131.931 15.1875C131.846 15.2583 131.804 15.3536 131.804 15.4732C131.804 15.5025 131.821 15.5685 131.858 15.6759C131.941 15.8371 132.051 15.9861 132.185 16.118C132.319 16.2498 132.468 16.3622 132.629 16.4501C132.793 16.5405 132.964 16.6088 133.145 16.6601C133.326 16.709 133.499 16.7358 133.67 16.7358H133.733C133.951 16.7358 134.17 16.7041 134.39 16.6406C134.608 16.5771 134.805 16.4843 134.984 16.3597C135.16 16.2376 135.301 16.0838 135.406 15.9006C135.514 15.7174 135.565 15.5025 135.565 15.2559V15.2119ZM129.477 13.7564H127.569V13.224C127.569 12.9675 127.66 12.7502 127.84 12.5768C128.019 12.4034 128.234 12.3155 128.48 12.3155H128.588C128.82 12.3155 129.027 12.4034 129.206 12.5768C129.386 12.7502 129.477 12.97 129.477 13.2337V13.7564ZM130.283 13.2264C130.283 12.9798 130.239 12.7526 130.151 12.5426C130.063 12.335 129.941 12.1519 129.784 11.998C129.628 11.8417 129.447 11.722 129.24 11.6366C129.03 11.5511 128.81 11.5096 128.575 11.5096H128.47C128.236 11.5096 128.016 11.5535 127.809 11.6414C127.599 11.7318 127.418 11.8515 127.262 12.0078C127.105 12.1641 126.983 12.3448 126.895 12.5548C126.807 12.7624 126.763 12.9822 126.763 13.2167V15.0385C126.763 15.2803 126.807 15.5025 126.895 15.7077C126.983 15.9128 127.105 16.0911 127.262 16.2425C127.418 16.3939 127.599 16.5136 127.809 16.6015C128.016 16.6919 128.236 16.7358 128.47 16.7358H128.575C128.937 16.7358 129.252 16.643 129.525 16.455C129.797 16.2694 129.997 16.0276 130.124 15.7272C130.151 15.6784 130.165 15.6198 130.165 15.5489C130.165 15.4268 130.124 15.3291 130.038 15.251C129.955 15.1728 129.858 15.1338 129.753 15.1338C129.682 15.1338 129.616 15.1533 129.552 15.1924C129.489 15.2315 129.438 15.2974 129.403 15.3902C129.333 15.5367 129.228 15.6637 129.091 15.7712C128.952 15.8762 128.781 15.9299 128.575 15.9299H128.47C128.224 15.9299 128.011 15.842 127.835 15.6662C127.657 15.4903 127.569 15.2803 127.569 15.0361V14.4988H129.88C129.992 14.4988 130.087 14.4573 130.165 14.3767C130.243 14.2961 130.283 14.2009 130.283 14.0958V13.2264ZM124.902 13.0897C124.902 12.9822 124.863 12.8894 124.783 12.8088C124.7 12.7282 124.607 12.6867 124.502 12.6867H122.985C122.851 12.6867 122.751 12.7282 122.682 12.8137C122.617 12.8992 122.582 12.9895 122.582 13.0897C122.582 13.1873 122.617 13.2801 122.682 13.3656C122.751 13.4487 122.851 13.4926 122.985 13.4926H124.099V14.7259C124.099 14.8944 124.067 15.0532 124.004 15.1973C123.94 15.3414 123.852 15.4683 123.742 15.5758C123.632 15.6857 123.505 15.7712 123.361 15.8347C123.217 15.8982 123.059 15.9299 122.89 15.9299H122.783C122.614 15.9299 122.458 15.8982 122.311 15.8347C122.167 15.7712 122.04 15.6857 121.93 15.5758C121.82 15.4659 121.735 15.3389 121.671 15.1948C121.608 15.0507 121.576 14.892 121.576 14.7235V11.2947C121.576 11.1335 121.608 10.9796 121.671 10.8355C121.735 10.6914 121.82 10.5644 121.93 10.4545C122.04 10.3446 122.167 10.2592 122.311 10.1957C122.458 10.1322 122.614 10.1004 122.783 10.1004H122.89C123.237 10.1004 123.51 10.1981 123.711 10.3959C123.913 10.5937 124.04 10.8428 124.099 11.1384C124.118 11.258 124.17 11.3459 124.245 11.3997C124.324 11.451 124.409 11.4778 124.502 11.4778C124.6 11.4778 124.692 11.4436 124.775 11.3777C124.861 11.3093 124.902 11.2141 124.902 11.0871V11.0211C124.868 10.7745 124.793 10.5449 124.675 10.3324C124.558 10.1224 124.412 9.93924 124.231 9.78782C124.05 9.63641 123.845 9.51674 123.615 9.42638C123.386 9.33846 123.144 9.2945 122.89 9.2945H122.783C122.509 9.2945 122.248 9.34823 121.999 9.45324C121.752 9.5607 121.54 9.70235 121.359 9.88307C121.178 10.0638 121.034 10.2738 120.929 10.518C120.824 10.7623 120.77 11.026 120.77 11.3093V14.7308C120.77 15.0141 120.824 15.2779 120.929 15.5221C121.034 15.7663 121.178 15.9763 121.359 16.157C121.54 16.3378 121.752 16.4794 121.999 16.582C122.248 16.6846 122.509 16.7358 122.783 16.7358H122.89C123.166 16.7358 123.427 16.6846 123.674 16.582C123.921 16.4794 124.136 16.3378 124.316 16.157C124.495 15.9763 124.639 15.7663 124.744 15.5221C124.851 15.2779 124.902 15.0141 124.902 14.7308V13.0897ZM114.718 13.7564H112.811V13.224C112.811 12.9675 112.902 12.7502 113.08 12.5768C113.261 12.4034 113.475 12.3155 113.722 12.3155H113.827C114.062 12.3155 114.267 12.4034 114.447 12.5768C114.628 12.7502 114.718 12.97 114.718 13.2337V13.7564ZM115.524 13.2264C115.524 12.9798 115.48 12.7526 115.39 12.5426C115.302 12.335 115.18 12.1519 115.026 11.998C114.87 11.8417 114.689 11.722 114.479 11.6366C114.272 11.5511 114.049 11.5096 113.817 11.5096H113.712C113.478 11.5096 113.258 11.5535 113.048 11.6414C112.84 11.7318 112.657 11.8515 112.503 12.0078C112.347 12.1641 112.225 12.3448 112.137 12.5548C112.049 12.7624 112.005 12.9822 112.005 13.2167V15.0385C112.005 15.2803 112.049 15.5025 112.137 15.7077C112.225 15.9128 112.347 16.0911 112.503 16.2425C112.657 16.3939 112.84 16.5136 113.048 16.6015C113.258 16.6919 113.478 16.7358 113.712 16.7358H113.817C114.176 16.7358 114.494 16.643 114.765 16.455C115.038 16.2694 115.239 16.0276 115.366 15.7272C115.393 15.6784 115.407 15.6198 115.407 15.5489C115.407 15.4268 115.366 15.3291 115.28 15.251C115.195 15.1728 115.099 15.1338 114.994 15.1338C114.924 15.1338 114.855 15.1533 114.792 15.1924C114.728 15.2315 114.679 15.2974 114.643 15.3902C114.574 15.5367 114.469 15.6637 114.33 15.7712C114.193 15.8762 114.022 15.9299 113.817 15.9299H113.712C113.463 15.9299 113.253 15.842 113.075 15.6662C112.899 15.4903 112.811 15.2803 112.811 15.0361V14.4988H115.121C115.234 14.4988 115.329 14.4573 115.407 14.3767C115.485 14.2961 115.524 14.2009 115.524 14.0958V13.2264ZM110.269 13.2167C110.269 12.9822 110.225 12.7624 110.137 12.5548C110.049 12.3448 109.927 12.1641 109.771 12.0078C109.617 11.8515 109.434 11.7318 109.226 11.6414C109.018 11.5535 108.796 11.5096 108.564 11.5096H108.479C108.296 11.5096 108.117 11.5389 107.949 11.595C107.78 11.6512 107.648 11.7294 107.556 11.827V9.69746C107.556 9.56314 107.514 9.46301 107.429 9.39463C107.346 9.32869 107.253 9.2945 107.153 9.2945C107.055 9.2945 106.962 9.32869 106.879 9.39463C106.794 9.46301 106.75 9.56314 106.75 9.69746V16.3426C106.75 16.477 106.794 16.5771 106.879 16.6406C106.962 16.7041 107.055 16.7358 107.153 16.7358C107.253 16.7358 107.346 16.7041 107.429 16.6406C107.514 16.5771 107.556 16.477 107.556 16.3426V13.1629C107.556 13.0286 107.585 12.9089 107.641 12.8039C107.697 12.6965 107.77 12.6061 107.858 12.5328C107.946 12.4596 108.049 12.4034 108.166 12.3692C108.283 12.3326 108.401 12.3155 108.52 12.3155C108.633 12.3155 108.747 12.3326 108.86 12.3692C108.972 12.4034 109.075 12.4596 109.167 12.5328C109.26 12.6061 109.331 12.7013 109.385 12.8137C109.438 12.926 109.463 13.0604 109.463 13.2167V16.3426C109.463 16.477 109.507 16.5771 109.592 16.6406C109.675 16.7041 109.768 16.7358 109.866 16.7358C109.966 16.7358 110.059 16.7041 110.142 16.6406C110.227 16.5771 110.269 16.477 110.269 16.3426V13.2167ZM104.825 14.7162C104.74 14.6478 104.649 14.616 104.549 14.616C104.452 14.616 104.361 14.6478 104.281 14.7162C104.198 14.7821 104.154 14.8871 104.146 15.0288C104.132 15.2754 104.041 15.4879 103.87 15.6637C103.702 15.842 103.494 15.9299 103.245 15.9299H103.15C102.896 15.9299 102.681 15.842 102.505 15.6662C102.327 15.4903 102.239 15.2779 102.239 15.0312V13.2142C102.239 12.9675 102.327 12.7551 102.505 12.5792C102.681 12.4034 102.893 12.3155 103.14 12.3155H103.245C103.494 12.3155 103.702 12.401 103.87 12.5695C104.041 12.7404 104.132 12.9578 104.146 13.2264C104.154 13.3607 104.198 13.4609 104.281 13.5244C104.361 13.5879 104.452 13.6196 104.549 13.6196C104.649 13.6196 104.74 13.5854 104.825 13.5195C104.911 13.4511 104.952 13.351 104.952 13.2167C104.952 12.9822 104.906 12.7624 104.815 12.5548C104.723 12.3448 104.601 12.1641 104.449 12.0078C104.298 11.8515 104.117 11.7318 103.909 11.6414C103.699 11.5535 103.48 11.5096 103.245 11.5096H103.14C102.906 11.5096 102.686 11.5535 102.478 11.6414C102.268 11.7318 102.088 11.8515 101.936 12.0029C101.785 12.1543 101.663 12.335 101.572 12.5426C101.479 12.7526 101.433 12.9773 101.433 13.2167V15.0385C101.433 15.2803 101.477 15.5025 101.565 15.7077C101.655 15.9128 101.775 16.0911 101.931 16.2425C102.088 16.3939 102.268 16.5136 102.478 16.6015C102.686 16.6919 102.906 16.7358 103.14 16.7358H103.245C103.48 16.7358 103.699 16.6894 103.909 16.6015C104.117 16.5112 104.298 16.389 104.454 16.2352C104.61 16.0813 104.732 15.9031 104.82 15.6979C104.908 15.4928 104.952 15.2681 104.952 15.0288C104.952 14.8871 104.911 14.7821 104.825 14.7162ZM99.8065 15.2119C99.8065 14.8676 99.7381 14.5965 99.6014 14.3987C99.4622 14.2009 99.2936 14.047 99.0909 13.9395C98.8907 13.8296 98.6709 13.749 98.4291 13.6953C98.1898 13.6416 97.9675 13.5903 97.7673 13.5366C97.567 13.4828 97.3961 13.412 97.2593 13.3241C97.1201 13.2362 97.0517 13.1019 97.0517 12.9187V12.887C97.059 12.7307 97.1396 12.5963 97.2959 12.484C97.4498 12.3717 97.6769 12.3155 97.9749 12.3155H98.0164C98.2557 12.3155 98.4438 12.3497 98.5781 12.4156C98.7124 12.484 98.837 12.545 98.9493 12.6012C99.0348 12.6427 99.1105 12.6647 99.1813 12.6647C99.2961 12.6647 99.3864 12.6256 99.4573 12.5475C99.5281 12.4718 99.5647 12.3814 99.5647 12.2837C99.5647 12.1543 99.5134 12.0517 99.4158 11.9711C99.3742 11.9369 99.3107 11.8905 99.2301 11.8368C99.1496 11.7831 99.0494 11.7342 98.9322 11.6878C98.8174 11.6414 98.6831 11.5999 98.5317 11.5633C98.3778 11.5267 98.2118 11.5096 98.0261 11.5096H97.9846C97.8161 11.5096 97.6305 11.5315 97.4278 11.5779C97.2276 11.6243 97.0395 11.7001 96.8661 11.8051C96.6927 11.9125 96.5462 12.0517 96.4265 12.2227C96.3069 12.3961 96.2458 12.6085 96.2458 12.8625C96.2458 13.1947 96.3142 13.4511 96.4534 13.6294C96.5901 13.8101 96.7611 13.9493 96.9614 14.047C97.1641 14.1471 97.3839 14.2179 97.6232 14.2643C97.865 14.3107 98.0848 14.3645 98.2875 14.428C98.4877 14.4915 98.6587 14.5769 98.7954 14.6868C98.9322 14.7967 99.003 14.9628 99.003 15.1899V15.2217C98.9957 15.3975 98.9053 15.5587 98.7319 15.7077C98.5585 15.8567 98.3094 15.9299 97.9846 15.9299H97.9309C97.7331 15.9299 97.5328 15.8615 97.3277 15.7272C97.1225 15.5953 96.954 15.439 96.8197 15.2608C96.7684 15.1924 96.7123 15.1435 96.6488 15.1191C96.5853 15.0947 96.5218 15.0825 96.4583 15.0825C96.3533 15.0825 96.258 15.1167 96.1725 15.1875C96.0871 15.2583 96.0455 15.3536 96.0455 15.4732C96.0455 15.5025 96.0626 15.5685 96.0968 15.6759C96.1823 15.8371 96.2922 15.9861 96.4265 16.118C96.5608 16.2498 96.7098 16.3622 96.871 16.4501C97.0346 16.5405 97.2056 16.6088 97.3863 16.6601C97.567 16.709 97.7404 16.7358 97.9114 16.7358H97.9749C98.1922 16.7358 98.412 16.7041 98.6318 16.6406C98.8492 16.5771 99.047 16.4843 99.2253 16.3597C99.4011 16.2376 99.5428 16.0838 99.6478 15.9006C99.7552 15.7174 99.8065 15.5025 99.8065 15.2559V15.2119ZM94.5827 16.0691C94.5241 15.991 94.4288 15.9446 94.3018 15.9299C94.1406 15.9153 93.9965 15.8567 93.8744 15.7541C93.7499 15.654 93.6888 15.5099 93.6888 15.3267V12.3472H94.2603C94.3946 12.3472 94.4948 12.3057 94.5631 12.2202C94.6291 12.1348 94.6633 12.0444 94.6633 11.9443C94.6633 11.8466 94.6291 11.7538 94.5631 11.6683C94.4948 11.5828 94.3946 11.5413 94.2603 11.5413H93.6888V9.69746C93.6888 9.56314 93.6449 9.46301 93.5618 9.39463C93.4764 9.32869 93.3836 9.2945 93.2859 9.2945C93.1857 9.2945 93.0954 9.32869 93.0099 9.39463C92.9244 9.46301 92.8829 9.56314 92.8829 9.69746V11.5413H92.5117C92.3774 11.5413 92.2773 11.5828 92.2089 11.6683C92.1429 11.7538 92.1087 11.8466 92.1087 11.9443C92.1087 12.0444 92.1429 12.1348 92.2089 12.2202C92.2773 12.3057 92.3774 12.3472 92.5117 12.3472H92.8829V15.3462C92.8829 15.5367 92.9171 15.7174 92.9879 15.8884C93.0588 16.0569 93.1589 16.2059 93.2859 16.3329C93.4129 16.4599 93.5618 16.5576 93.7303 16.6284C93.8989 16.6992 94.0796 16.7358 94.2701 16.7358C94.4117 16.7358 94.5143 16.6943 94.5778 16.6113C94.6413 16.5283 94.673 16.4379 94.673 16.3378C94.673 16.2376 94.6437 16.1473 94.5827 16.0691ZM90.4725 11.9125C90.4725 11.7782 90.4285 11.6781 90.3455 11.6097C90.26 11.5438 90.1672 11.5096 90.0695 11.5096C89.9694 11.5096 89.879 11.5438 89.7935 11.6097C89.7081 11.6781 89.6666 11.7782 89.6666 11.9125V15.0312C89.6666 15.2779 89.5786 15.4879 89.4028 15.6662C89.2245 15.842 89.0096 15.9299 88.7556 15.9299H88.6604C88.4113 15.9299 88.2012 15.842 88.023 15.6662C87.8471 15.4879 87.7592 15.2779 87.7592 15.0312V11.9125C87.7592 11.7782 87.7152 11.6781 87.6322 11.6097C87.5467 11.5438 87.4539 11.5096 87.3562 11.5096C87.2561 11.5096 87.1658 11.5438 87.0803 11.6097C86.9948 11.6781 86.9533 11.7782 86.9533 11.9125V15.0385C86.9533 15.3365 86.9997 15.5905 87.09 15.8029C87.1828 16.0154 87.3074 16.1888 87.4613 16.328C87.6176 16.4648 87.7983 16.5673 88.0083 16.6333C88.2159 16.7016 88.4332 16.7358 88.6604 16.7358H88.7556C88.9388 16.7358 89.1122 16.709 89.2734 16.6552C89.437 16.6015 89.5664 16.5234 89.6666 16.4232C89.6885 16.5307 89.7374 16.6088 89.8155 16.6601C89.8937 16.709 89.9767 16.7358 90.0695 16.7358C90.1672 16.7358 90.26 16.7016 90.3455 16.6333C90.4285 16.5673 90.4725 16.4696 90.4725 16.3426V11.9125ZM84.4525 13.7564H82.5451V13.224C82.5451 12.9675 82.6355 12.7502 82.8162 12.5768C82.9945 12.4034 83.2094 12.3155 83.4561 12.3155H83.5635C83.7955 12.3155 84.0031 12.4034 84.1839 12.5768C84.3621 12.7502 84.4525 12.97 84.4525 13.2337V13.7564ZM85.2584 13.2264C85.2584 12.9798 85.2144 12.7526 85.1265 12.5426C85.0386 12.335 84.9165 12.1519 84.7602 11.998C84.6039 11.8417 84.4232 11.722 84.2156 11.6366C84.0056 11.5511 83.7858 11.5096 83.5513 11.5096H83.4463C83.2119 11.5096 82.9921 11.5535 82.7845 11.6414C82.5744 11.7318 82.3937 11.8515 82.2374 12.0078C82.0836 12.1641 81.9615 12.3448 81.8711 12.5548C81.7832 12.7624 81.7392 12.9822 81.7392 13.2167V15.0385C81.7392 15.2803 81.7832 15.5025 81.8711 15.7077C81.9615 15.9128 82.0836 16.0911 82.2374 16.2425C82.3937 16.3939 82.5744 16.5136 82.7845 16.6015C82.9921 16.6919 83.2119 16.7358 83.4463 16.7358H83.5513C83.9128 16.7358 84.2278 16.643 84.5013 16.455C84.7724 16.2694 84.9727 16.0276 85.0997 15.7272C85.129 15.6784 85.1412 15.6198 85.1412 15.5489C85.1412 15.4268 85.0997 15.3291 85.0142 15.251C84.9311 15.1728 84.8335 15.1338 84.7285 15.1338C84.6576 15.1338 84.5917 15.1533 84.5282 15.1924C84.4647 15.2315 84.4134 15.2974 84.3792 15.3902C84.3084 15.5367 84.2034 15.6637 84.0666 15.7712C83.9274 15.8762 83.7565 15.9299 83.5513 15.9299H83.4463C83.1996 15.9299 82.9872 15.842 82.8089 15.6662C82.6331 15.4903 82.5451 15.2803 82.5451 15.0361V14.4988H84.8554C84.9678 14.4988 85.063 14.4573 85.1412 14.3767C85.2193 14.2961 85.2584 14.2009 85.2584 14.0958V13.2264ZM79.0699 14.6673C79.0699 14.8383 79.0382 14.9946 78.9747 15.1411C78.9112 15.2852 78.8232 15.4122 78.7158 15.5221C78.6059 15.632 78.4789 15.7174 78.3348 15.7809C78.1907 15.8444 78.0344 15.8762 77.8659 15.8762H76.5569V10.1639H77.8757C78.0442 10.1639 78.2005 10.1957 78.3446 10.2592C78.4911 10.3227 78.6157 10.4081 78.7207 10.518C78.8257 10.6279 78.9112 10.7549 78.9747 10.9015C79.0382 11.0455 79.0699 11.2018 79.0699 11.3728V14.6673ZM79.8734 11.3606C79.8734 11.0871 79.8221 10.8258 79.7146 10.5815C79.6096 10.3398 79.4655 10.1273 79.2873 9.94656C79.1065 9.76584 78.8941 9.6242 78.6499 9.51674C78.4056 9.41173 78.1468 9.358 77.8708 9.358H76.1539C76.0489 9.358 75.9537 9.39952 75.8731 9.48011C75.7925 9.5607 75.751 9.65594 75.751 9.76096V16.2792C75.751 16.3842 75.7925 16.4794 75.8731 16.56C75.9537 16.6406 76.0489 16.6821 76.1539 16.6821H77.8708C78.1468 16.6821 78.4056 16.6284 78.6499 16.5234C78.8941 16.4184 79.1065 16.2743 79.2873 16.0935C79.4655 15.9128 79.6096 15.7004 79.7146 15.4537C79.8221 15.2046 79.8734 14.9433 79.8734 14.6673V11.3606Z" fill="#8F8F8F"/>
</svg>
