<svg width="177" height="35" viewBox="0 0 177 35" fill="none" xmlns="http://www.w3.org/2000/svg">
<path d="M89.4015 1.26053C89.1204 1.54156 89.0803 3.28791 89.0803 17.6V33.6383L89.5219 33.9394C89.8631 34.1802 90.5055 34.2605 92.2318 34.2605C93.4562 34.2605 94.7007 34.1802 94.9617 34.0799C95.2226 33.9795 95.5639 33.5981 95.7044 33.2167C95.8449 32.8554 96.0055 32.5142 96.0255 32.474C96.0657 32.454 96.3869 32.6547 96.7482 32.9357C98.4142 34.2003 100.984 34.943 103.633 34.9229C108.551 34.8828 112.706 32.3937 114.754 28.2386C115.757 26.1912 116.179 24.3445 116.179 21.8956C116.179 18.443 115.035 15.3317 112.907 13.0434C110.779 10.7751 108.491 9.6109 105.259 9.12915C102.67 8.76783 100.743 9.10907 97.5712 10.5142C97.3704 10.5945 97.3102 9.63097 97.3102 6.09813C97.3102 2.24411 97.2701 1.52148 96.9891 1.26053C96.5274 0.778782 89.8631 0.778782 89.4015 1.26053ZM104.476 16.9175C105.48 17.339 106.524 18.3627 107.086 19.4868C108.17 21.6145 107.568 24.7459 105.781 26.2313C103.714 27.9375 100.321 27.797 98.4343 25.9102C96.5876 24.0635 96.3869 20.6109 98.0328 18.4631C99.3777 16.6967 102.268 16.0142 104.476 16.9175Z" fill="#8F8F8F"/>
<path d="M137.797 1.30076C137.496 1.62193 137.456 2.26426 137.456 6.11828V10.5544L136.332 10.0526C132.558 8.38653 127.661 8.74784 124.288 10.9358C120.755 13.2442 118.849 16.777 118.648 21.3135C118.467 25.3281 119.672 28.7004 122.201 31.2697C124.268 33.3573 126.476 34.4413 129.688 34.8829C132.538 35.2843 135.449 34.642 137.697 33.1365C138.259 32.7551 138.741 32.4741 138.761 32.4942C138.781 32.5343 138.922 32.8555 139.062 33.2168C139.203 33.5982 139.544 33.9796 139.805 34.08C140.066 34.1803 141.31 34.2606 142.535 34.2606C144.261 34.2606 144.903 34.1803 145.245 33.9394L145.686 33.6384V17.6C145.686 3.28798 145.646 1.54164 145.365 1.26061C145.104 0.999664 144.482 0.939445 141.591 0.939445C138.48 0.939445 138.078 0.979591 137.797 1.30076ZM134.686 16.8573C135.65 17.2588 136.593 18.1219 137.195 19.1456C137.617 19.8683 137.737 20.4102 137.818 21.6347C137.898 23.1 137.858 23.3208 137.276 24.5051C136.292 26.5124 134.746 27.4358 132.358 27.4358C129.367 27.4358 127.159 25.1475 127.159 22.0161C127.159 18.684 129.728 16.1949 132.88 16.496C133.522 16.5362 134.345 16.7168 134.686 16.8573Z" fill="#8F8F8F"/>
<path d="M8.78832 1.62191C5.91789 2.4449 3.20803 4.63286 2.08395 7.04162C1.0803 9.16936 0.899639 10.1529 0.879566 13.4248C0.859493 16.2351 0.83942 16.3756 0.377741 16.8774C-0.0437918 17.319 -0.0839378 17.4595 0.116792 17.9011C0.43796 18.5836 1.34124 18.6438 2.0438 18.0416C2.84672 17.2989 2.96716 16.7369 3.0073 13.0434C3.06752 9.59089 3.0876 9.43031 3.62957 8.32629C4.47263 6.60001 5.77738 5.2752 7.44343 4.4522C10.9361 2.72593 14.6898 3.20768 17.4799 5.75695C18.7044 6.88104 19.4471 8.14563 19.9489 9.9522C20.3504 11.3975 20.9325 11.9595 21.615 11.5982C22.2774 11.2369 22.2974 10.6548 21.7354 8.90841C21.0931 6.92118 20.511 5.87739 19.3869 4.71315C17.2391 2.5252 14.9507 1.52155 11.7993 1.42118C10.4544 1.38104 9.37044 1.44126 8.78832 1.62191Z" fill="#8F8F8F"/>
<path d="M9.12956 4.95354C7.08212 5.59587 5.35584 7.26193 4.55292 9.32945C4.15146 10.3732 4.11132 10.7948 4.15146 13.9061C4.19161 18.0612 4.09124 18.282 1.86314 19.4061C0.739054 19.9681 0.437959 20.209 0.397813 20.6105C0.37774 20.8915 0.437959 21.2327 0.538324 21.3933C0.97993 22.0959 3.32847 21.313 4.63321 20.0484C5.99818 18.7437 6.0584 18.5229 6.17883 14.1871C6.2792 10.7145 6.33942 10.1926 6.72081 9.46996C7.66424 7.70354 9.49088 6.57945 11.3978 6.55938C14.2482 6.55938 15.9142 7.94441 16.8376 11.0557C17.3394 12.7619 18.0219 14.0065 18.7044 14.4481C20.6314 15.7127 23.5018 15.1305 22.5383 13.6652C22.2774 13.2638 22.0566 13.1835 21.3139 13.1835C20.0091 13.1835 19.427 12.5211 18.7445 10.3331C18.1223 8.28565 17.2591 6.92069 15.9544 5.93711C14.1277 4.57215 11.4982 4.19076 9.12956 4.95354Z" fill="#8F8F8F"/>
<path d="M10.1934 7.9648C8.84855 8.40641 7.74453 9.55057 7.38322 10.8553C7.20256 11.5378 7.18249 12.1199 7.36315 13.4447C8.00548 18.2422 10.1332 21.1126 14.3887 22.8991C15.9544 23.5615 20.3303 24.8462 21.1131 24.8663C21.4544 24.8863 21.7956 24.7458 21.9562 24.525C22.6788 23.5414 22.1369 23.1199 19.0256 22.2969C15.9343 21.494 13.5055 20.4101 12.1807 19.2458C10.5347 17.7805 9.39052 14.9502 9.39052 12.2403C9.39052 11.1363 9.45074 10.9557 10.0128 10.3936C10.5146 9.89181 10.7956 9.77137 11.4982 9.77137C12.823 9.77137 13.3248 10.3133 13.8668 12.4009C14.6697 15.4119 16.2756 17.2185 18.8449 18.0214C20.2299 18.4429 22.438 18.5232 22.7993 18.1619C23.1606 17.8006 23.1004 17.0378 22.6989 16.817C22.4982 16.7166 21.5748 16.4958 20.6515 16.3152C17.7208 15.7732 16.5767 14.7294 15.8139 11.8188C15.6131 11.0761 15.3723 10.2331 15.2518 9.95203C14.9106 9.06882 13.8467 8.18561 12.7628 7.86444C11.4982 7.50312 11.5383 7.48305 10.1934 7.9648Z" fill="#8F8F8F"/>
<path d="M41.9288 9.1695C40.4635 9.49067 38.5566 10.4943 37.4124 11.5783L36.3285 12.602L36.188 11.5381C35.927 9.55089 35.9872 9.57096 32.073 9.57096C28.7609 9.57096 28.6606 9.59104 28.4197 10.0126C28.219 10.3739 28.1788 12.9031 28.2591 22.0764C28.3595 33.2772 28.3796 33.6987 28.7409 33.9797C29.042 34.2005 29.9453 34.2607 32.7956 34.2607C35.9872 34.2607 36.489 34.2206 36.8704 33.9195C37.2719 33.5582 37.292 33.3775 37.3321 26.2315C37.3923 19.2461 37.4124 18.8648 37.8139 18.102C38.4161 16.9578 39.3193 16.3958 40.604 16.3958C41.8686 16.3958 42.5912 16.8775 43.1332 18.0819C43.4745 18.8246 43.5146 19.5272 43.5146 25.9706C43.5146 33.3775 43.5748 33.9195 44.3978 34.1403C44.6186 34.2005 46.4252 34.2607 48.3923 34.2607C51.6843 34.2607 51.9653 34.2407 52.3467 33.8593C52.7281 33.4779 52.7482 33.1969 52.7482 25.8702C52.7281 20.3903 52.6679 17.8812 52.4672 16.7972C51.5639 11.8392 48.9142 9.28994 44.438 9.06914C43.5347 9.02899 42.4106 9.06914 41.9288 9.1695Z" fill="#8F8F8F"/>
<path d="M66.9599 9.1692C63.0055 9.83161 59.5328 12.3207 57.927 15.5926C56.8431 17.8006 56.5018 19.3462 56.4818 21.9156C56.4818 25.9302 57.5858 28.7203 60.2354 31.3298C62.8248 33.8991 65.4142 34.9229 69.3084 34.9229C71.6369 34.9229 73.7044 34.3407 75.5511 33.1564L76.635 32.4539L76.7555 32.9557C76.8157 33.2367 77.1168 33.6382 77.3777 33.859C77.8193 34.2002 78.2007 34.2604 80.2883 34.2604C82.5766 34.2604 83.3595 34.0999 83.7007 33.578C83.781 33.4575 83.8613 28.2385 83.8613 21.9958C83.8613 11.4575 83.8412 10.5944 83.5201 10.1929C83.1788 9.77139 83.0182 9.75132 80.3485 9.81154L77.5383 9.87176L77.0766 10.7148L76.615 11.578L75.9526 11.0761C73.7847 9.43015 70.0912 8.64731 66.9599 9.1692ZM72.5401 16.8973C73.5036 17.2988 74.6077 18.3827 75.1697 19.4867C76.3139 21.7349 75.6314 24.8663 73.6642 26.3718C71.5766 27.9575 68.365 27.7568 66.5182 25.9101C64.6715 24.0634 64.4507 20.671 66.0566 18.5634C67.5018 16.6765 70.2719 15.9739 72.5401 16.8973Z" fill="#8F8F8F"/>
<path d="M160.641 9.08917C160.42 9.12931 159.737 9.26982 159.135 9.39026C155.903 10.0125 152.491 12.6421 151.046 15.5928C149.962 17.8209 149.62 19.3264 149.62 22.0162C149.6 24.6457 150.022 26.3519 151.246 28.6804C154.378 34.6622 162.608 36.81 168.63 33.1768L169.754 32.4943L169.974 33.1567C170.276 34.08 170.858 34.2607 173.608 34.2607C175.896 34.2607 176.037 34.2406 176.498 33.7589L177 33.2771V21.956C177 11.4578 176.98 10.5946 176.659 10.1932C176.318 9.77165 176.157 9.75158 173.487 9.81179L170.677 9.87201L170.215 10.7151L169.754 11.5782L169.091 11.0764C167.104 9.57092 163.069 8.60741 160.641 9.08917ZM165.679 16.9176C166.04 17.0782 166.682 17.4998 167.084 17.841C169.412 19.8884 169.352 24.2844 167.004 26.2315C164.936 27.9377 161.504 27.7972 159.637 25.9304C158.653 24.9468 158.252 23.9231 158.172 22.1968C158.111 20.9925 158.172 20.4706 158.473 19.7881C159.235 18.0819 160.6 16.9377 162.347 16.5764C163.23 16.3957 164.816 16.5563 165.679 16.9176Z" fill="#8F8F8F"/>
<path d="M10.7956 11.2772C10.2336 11.9396 10.7555 14.8703 11.6989 16.5162C12.4416 17.7808 14.3285 19.3867 15.9544 20.1495C18.1022 21.133 21.7555 21.936 22.3777 21.5546C22.7391 21.3338 22.7993 20.6513 22.5183 20.2498C22.2573 19.8684 21.9161 19.748 19.146 19.1057C15.2719 18.2024 13.1642 16.0947 12.6223 12.6221C12.5018 11.9396 12.3613 11.2772 12.3011 11.1768C12.1004 10.8557 11.0767 10.936 10.7956 11.2772Z" fill="#8F8F8F"/>
<path d="M5.99817 20.9321C5.17518 21.5544 4.13138 22.0763 2.90693 22.4978C1.20073 23.0598 1.06022 23.1602 0.999997 23.6821C0.839413 25.0671 1.92335 25.1274 4.81387 23.923C6.58029 23.1803 8.24635 21.9358 8.48722 21.2131C8.66788 20.6511 8.24635 20.0087 7.72445 20.0087C7.4635 20.0087 6.70073 20.4303 5.99817 20.9321Z" fill="#8F8F8F"/>
<path d="M8.54745 23.6216C7.96533 23.8023 6.74088 24.3242 5.85767 24.7859C4.95438 25.2475 3.79015 25.7092 3.26825 25.8497C2.16423 26.1307 1.60219 26.7731 1.94343 27.4154C2.06387 27.6362 2.34489 27.857 2.54562 27.9373C3.06752 28.0979 5.55657 27.2548 7.58394 26.2311C9.57117 25.2275 10.1131 25.2275 13.0438 26.1508C14.2883 26.5322 16.4161 27.1344 17.781 27.4556C20.3905 28.0778 20.8723 28.0578 21.1332 27.2147C21.354 26.5121 20.7318 26.0906 18.7445 25.6289C17.7409 25.388 15.7537 24.8461 14.3285 24.4045C10.7956 23.3205 9.89234 23.2001 8.54745 23.6216Z" fill="#8F8F8F"/>
<path d="M8.58758 27.0142C7.98539 27.215 7.04196 27.5964 6.47992 27.8774C5.93795 28.1584 5.25547 28.4595 4.97445 28.5398C3.46897 28.9814 3.30839 30.6475 4.79379 30.6475C5.07481 30.6475 6.25912 30.2259 7.40328 29.7241C8.80839 29.1018 9.75182 28.8007 10.2938 28.8007C10.7354 28.8007 12.4015 29.1821 13.9872 29.6438C15.573 30.1055 17.2993 30.527 17.8212 30.5872C18.6442 30.6876 18.8047 30.6274 19.0657 30.2661C19.3869 29.8044 19.3467 29.142 18.9854 28.9212C18.865 28.8409 18.1423 28.6402 17.3595 28.4394C16.5566 28.2387 14.6496 27.7369 13.104 27.3555C11.5584 26.954 10.1533 26.6329 9.99269 26.6529C9.83211 26.6529 9.18977 26.8135 8.58758 27.0142Z" fill="#8F8F8F"/>
<path d="M8.18614 30.5671C6.74088 31.1091 6.15876 31.631 6.31935 32.2532C6.54015 33.0562 7.08212 33.1164 8.78833 32.5142L10.3741 31.9521L13.0839 32.5142C15.9745 33.1164 16.4562 33.0762 16.7172 32.2332C16.958 31.4905 16.2956 31.1091 13.7464 30.547C10.8157 29.9248 9.85219 29.9248 8.18614 30.5671Z" fill="#8F8F8F"/>
</svg>
