<svg width="278" height="33" viewBox="0 0 278 33" fill="none" xmlns="http://www.w3.org/2000/svg">
<path d="M6.75577 3.78128V7.32807H3.37789H0V20.164V33H12.836H25.6719V29.6221V26.2442H29.0498H32.4277V13.2394V0.234505H19.5917H6.75577V3.78128ZM25.6719 16.7861V26.2442H16.2139H6.75577V16.7861V7.32807H16.2139H25.6719V16.7861Z" fill="#8F8F8F"/>
<path d="M51.5803 1.11265C48.3375 2.12602 46.277 5.30123 46.7499 8.64534C47.1553 11.6854 48.878 13.273 54.4515 15.9078C58.505 17.7994 59.2819 18.6101 59.2819 21.0084C59.2819 22.5284 59.1468 22.9676 58.3361 23.812C56.6809 25.5348 53.4044 25.9401 50.9723 24.6903C49.79 24.1161 48.6416 22.6973 47.8309 20.9071C46.8175 18.6777 46.277 19.0492 46.277 22.0218V24.5214L48.7429 25.2983C51.5465 26.1766 57.0863 26.3455 59.1806 25.6361C62.2882 24.5214 64.4838 21.8529 64.5176 19.1168C64.5176 15.2998 63.2002 13.7459 57.593 11.0436C52.695 8.67912 51.6817 7.73331 51.6817 5.33501C51.6817 4.42298 51.9181 3.44339 52.2221 2.97049C53.3706 1.3491 56.6134 0.774862 58.9441 1.72067C59.7886 2.09224 60.4304 2.80159 61.3424 4.42298C63.0314 7.32796 63.5043 7.32796 63.5043 4.42298V2.22735L61.9167 1.48422C59.7886 0.53841 54.0124 0.335737 51.5803 1.11265Z" fill="#8F8F8F"/>
<path d="M165.82 1.21428C162.071 2.39654 159.065 5.30152 157.882 8.8483C157.105 11.0777 157.139 15.7054 157.916 17.9686C159.132 21.4478 161.497 23.8461 165.179 25.2986C167.881 26.3457 173.218 26.3795 176.596 25.2986L179.028 24.5217V21.8532C179.028 20.3669 178.927 19.1509 178.792 19.1509C178.623 19.1509 178.15 20.0291 177.711 21.0762C176.495 23.8123 175.583 24.7581 173.657 25.231C172.374 25.5351 171.529 25.5351 170.077 25.231C166.395 24.4541 164.435 21.6167 163.76 16.077C163.084 10.6048 164.334 5.43663 166.868 3.13967C168.489 1.68718 170.178 1.14672 172.475 1.31561C174.603 1.48451 175.583 2.26142 177.17 4.96373C177.744 5.87576 178.319 6.65267 178.454 6.65267C178.589 6.65267 178.69 5.63931 178.623 4.38949L178.521 2.09253L176.495 1.34939C173.826 0.369804 168.624 0.302248 165.82 1.21428Z" fill="#8F8F8F"/>
<path d="M226.251 1.07874C224.325 2.15966 224.359 5.46999 226.352 6.48335C227.805 7.26027 228.953 7.09137 230.068 6.01045C232.669 3.40948 229.494 -0.745322 226.251 1.07874Z" fill="#8F8F8F"/>
<path d="M269.217 0.943777C269.657 1.14645 270.163 1.45046 270.298 1.68691C270.434 1.92336 270.569 7.12531 270.569 13.3068V24.5214L269.724 25.1632C269.251 25.5348 268.88 25.9401 268.88 26.0415C268.88 26.1428 270.94 26.2441 273.44 26.2441C275.939 26.2441 278 26.1428 278 25.9739C278 25.8388 277.662 25.5686 277.257 25.3997L276.48 25.0619L276.379 12.8002L276.311 0.572208L272.325 0.605988C269.386 0.605988 268.576 0.707325 269.217 0.943777Z" fill="#8F8F8F"/>
<path d="M144.405 4.49055C143.661 5.13235 141.871 6.24706 140.452 6.99019L137.818 8.30757L139.101 8.4089L140.351 8.51024L140.52 15.9416C140.655 21.2449 140.824 23.6094 141.128 24.1499C141.736 25.197 144.033 26.2441 145.756 26.2441C147.242 26.2441 149.539 25.2983 150.282 24.4201C150.958 23.6094 150.586 23.4743 149.404 24.0485C148.087 24.7241 146.735 24.2512 146.262 23.0014C146.06 22.4947 145.958 19.2857 145.992 15.2998L146.094 8.51024L148.391 8.4089C150.046 8.34134 150.654 8.17245 150.654 7.83466C150.654 7.49687 150.046 7.32798 148.391 7.26042L146.094 7.15908L145.925 5.23369L145.756 3.34207L144.405 4.49055Z" fill="#8F8F8F"/>
<path d="M239.492 5.03082C238.276 5.90907 236.486 6.99 235.472 7.39534L233.615 8.17226L234.966 8.34115L236.283 8.51005L236.452 15.9414C236.587 21.2447 236.756 23.6092 237.06 24.1497C237.634 25.163 239.965 26.2439 241.519 26.2102C243.715 26.2102 246.586 24.7915 246.586 23.7105C246.586 23.4065 246.248 23.4403 245.403 23.8794C244.019 24.5888 243.039 24.4199 242.33 23.3727C241.924 22.7647 241.857 21.2785 241.924 15.5698L242.026 8.51005L244.323 8.40871C246.045 8.34115 246.586 8.20604 246.586 7.83447C246.586 7.42912 246.079 7.32779 244.221 7.32779H241.89L241.789 5.36861L241.688 3.40944L239.492 5.03082Z" fill="#8F8F8F"/>
<path d="M69.6858 8.44268C66.8146 9.38849 65.7674 10.0303 67.0173 10.0303C67.2875 10.0303 67.7604 10.3681 68.0306 10.7734C68.4698 11.3814 68.5711 12.665 68.5711 17.7994C68.5711 22.9338 68.4698 24.2174 68.0306 24.8254C67.7604 25.2308 67.2875 25.5686 67.0173 25.5686C66.747 25.5686 66.5444 25.7037 66.5444 25.9064C66.5444 26.109 68.3684 26.2441 71.3747 26.2441L76.1713 26.2104L75.2593 25.5348L74.3135 24.8254V17.8332V10.841L75.6309 10.0978C77.3198 9.15204 79.0763 9.11826 79.9208 10.0641C80.495 10.7059 80.5626 11.449 80.6639 17.3603C80.7653 22.9338 80.6977 24.0485 80.2586 24.7579C79.9546 25.197 79.4817 25.5686 79.2114 25.5686C78.9412 25.5686 78.7048 25.7037 78.7048 25.9064C78.7048 26.109 80.5288 26.2441 83.5013 26.2441H88.2979L87.217 25.2983L86.1361 24.3863L86.1023 17.6305L86.0685 10.8748L87.521 10.0978C89.3113 9.15204 90.9665 9.11826 91.8785 10.0303C92.5203 10.6721 92.5541 11.145 92.5541 17.4954C92.5541 24.2512 92.3514 25.5686 91.3718 25.5686C91.1016 25.5686 90.8651 25.7037 90.8651 25.9064C90.8651 26.109 92.6216 26.2441 95.4253 26.2441C97.9249 26.2441 99.9854 26.1428 99.9854 25.9739C99.9854 25.8388 99.6476 25.5686 99.2423 25.3997C98.4654 25.0619 98.4654 24.9268 98.2965 17.7994C98.1614 11.8206 98.0263 10.3681 97.5534 9.48983C95.9995 6.6524 90.6962 6.58484 86.8117 9.35471L85.8321 10.0641L84.6836 8.81425C83.7378 7.7671 83.2987 7.56443 81.8124 7.39554C79.3803 7.15908 77.9616 7.53065 75.9687 8.84803C75.0229 9.48983 74.1784 10.0303 74.1446 10.0303C74.077 10.0303 73.9757 9.45605 73.9082 8.78047C73.8406 7.936 73.6379 7.49687 73.3001 7.42932C73.0299 7.39554 71.3747 7.86844 69.6858 8.44268Z" fill="#8F8F8F"/>
<path d="M106.234 7.63202C103.498 8.34137 101.674 10.0641 101.674 11.9219C101.674 13.5771 103.431 14.5567 105.221 13.8811C105.93 13.5771 106.741 11.9895 106.741 10.7734C106.741 9.48985 107.923 8.00358 108.937 8.00358C109.342 8.00358 110.052 8.30759 110.491 8.64538C111.234 9.2534 111.301 9.55741 111.301 12.3948V15.5363L108.329 16.1443C104.951 16.8199 102.654 17.8332 101.674 19.0493C99.9516 21.2449 100.729 24.1499 103.363 25.4673C105.829 26.7509 108.059 26.4468 110.457 24.5552L111.707 23.5756L112.146 24.3526C112.754 25.501 114.037 26.0753 116.03 26.0753C117.28 26.0415 118.057 25.8388 118.834 25.2646C120.084 24.3863 119.982 23.8796 118.564 23.8796C118.023 23.8796 117.483 23.677 117.314 23.4405C117.179 23.2378 116.976 20.2991 116.875 16.955C116.706 11.2801 116.638 10.8072 115.929 9.76008C114.713 8.07114 113.396 7.56446 110.119 7.46312C108.531 7.39556 106.809 7.46312 106.234 7.63202ZM111.47 19.4546C111.47 22.3258 111.436 22.5285 110.592 23.1703C110.085 23.5756 109.207 23.8796 108.565 23.8796C106.471 23.8796 105.356 21.1436 106.572 18.8466C107.079 17.7995 109.477 16.4483 110.727 16.4483C111.436 16.4483 111.47 16.5496 111.47 19.4546Z" fill="#8F8F8F"/>
<path d="M123.901 8.4089C122.077 8.98314 120.591 9.55738 120.591 9.65872C120.591 9.79383 121.063 10.0641 121.604 10.2667L122.617 10.6383L122.55 17.8332C122.448 24.9605 122.448 25.0619 121.671 25.4334C121.266 25.6361 120.827 25.9064 120.692 26.0415C120.591 26.1428 122.854 26.2441 125.759 26.2441C129.069 26.2441 131.062 26.109 131.062 25.9064C131.062 25.7037 130.758 25.5686 130.386 25.5686C130.015 25.5686 129.407 25.2646 129.035 24.893C128.427 24.285 128.36 23.7783 128.36 18.6439C128.36 14.3202 128.461 12.8002 128.866 12.057C129.745 10.3681 130.353 10.3005 131.873 11.5841C134.339 13.7122 137.142 12.9015 137.142 10.0641C137.142 8.34134 135.96 7.32798 134.035 7.32798C132.379 7.32798 131.602 7.69954 129.812 9.45605L128.393 10.8072L128.157 9.08448C128.056 8.10489 127.752 7.32798 127.549 7.36176C127.346 7.36176 125.691 7.83466 123.901 8.4089Z" fill="#8F8F8F"/>
<path d="M186.459 7.56494C183.487 8.61208 181.865 10.2672 182.102 12.0237C182.271 13.1384 183.825 14.2194 184.838 13.9829C186.257 13.6114 186.797 12.9358 187.135 11.0779C187.54 8.91609 188.25 8.00406 189.499 8.00406C191.155 8.00406 191.898 9.28766 192.1 12.4629L192.303 15.3003L189.297 15.9083C185.75 16.5839 183.014 17.7999 182.068 19.1511C181.257 20.2996 181.156 22.4614 181.899 23.8463C183.014 26.042 187.236 26.7176 189.972 25.0962C190.817 24.6233 191.594 24.049 191.695 23.8801C191.796 23.6775 192.404 24.0828 193.012 24.7246C194.06 25.8055 194.296 25.9069 196.12 25.9069C197.505 25.9069 198.451 25.7042 199.228 25.2313C200.579 24.4206 200.613 23.8801 199.329 23.8801C198.789 23.8801 198.214 23.6775 198.012 23.441C197.809 23.2046 197.606 20.5698 197.539 17.2932C197.404 10.5375 197.066 9.42278 194.566 8.1054C193.35 7.4636 192.607 7.32849 190.04 7.36226C188.351 7.36226 186.73 7.4636 186.459 7.56494ZM192.134 19.5227C192.033 22.3263 192.033 22.3263 190.851 23.137C189.601 23.9815 188.081 23.9477 187.202 23.0694C186.459 22.3263 186.324 20.0631 186.932 18.8809C187.675 17.4284 191.155 15.7394 191.965 16.4488C192.1 16.5839 192.202 17.9688 192.134 19.5227Z" fill="#8F8F8F"/>
<path d="M203.247 8.40908L200.241 9.42244L201.288 10.0642L202.335 10.706V20.941C202.335 31.6489 202.335 31.784 200.815 32.5947C200.309 32.8988 201.322 32.9663 205.038 32.9663C208.753 32.9663 209.767 32.8988 209.26 32.5947C207.943 31.8854 207.74 31.2774 207.74 28.1697C207.74 26.4132 207.875 25.2647 208.044 25.3998C208.753 25.839 213.145 26.143 214.8 25.8727C217.164 25.5012 218.887 24.2514 220.103 22.0895C221.015 20.4344 221.083 20.0966 221.083 16.4484C221.083 12.7666 221.015 12.4625 220.103 10.7736C218.651 8.17262 217.063 7.32815 213.719 7.32815C211.996 7.32815 210.577 7.53083 209.463 7.96995C207.841 8.57797 207.808 8.57797 207.639 7.96995C207.402 7.12548 206.794 7.19304 203.247 8.40908ZM213.449 9.55756C214.834 10.706 215.306 12.4963 215.306 16.7862C215.34 22.3935 214.023 24.8932 210.983 24.8932C207.875 24.8932 208.078 25.4674 208.078 16.9551V9.42244L209.024 9.08465C210.746 8.44286 212.334 8.61175 213.449 9.55756Z" fill="#8F8F8F"/>
<path d="M253.679 7.63192C250.943 8.47639 249.626 9.79377 249.626 11.7529C249.626 13.1379 250.065 13.6446 251.517 13.9486C253.037 14.2526 254.22 13.1379 254.524 11.1449C254.828 9.08442 255.503 8.00349 256.517 8.00349C258.678 8.00349 259.422 9.28709 259.422 12.8676V15.4011L258.172 15.6037C253.477 16.4144 251.112 17.3602 249.626 19.0154C247.295 21.6839 249.22 25.6361 253.004 25.9063C255.503 26.109 256.348 25.9063 257.868 24.724L259.388 23.5755L260.536 24.724C261.617 25.805 261.887 25.9063 263.745 25.9063C265.265 25.9063 265.975 25.7374 266.65 25.1969C267.765 24.3187 267.765 23.8796 266.718 23.8796C264.995 23.8796 264.826 23.2715 264.826 17.3265C264.826 12.3272 264.759 11.7192 264.083 10.368C262.935 8.13861 261.144 7.32791 257.395 7.36169C255.807 7.36169 254.152 7.49681 253.679 7.63192ZM258.678 22.9337C256.044 24.9267 253.139 22.9337 254.051 19.7248C254.456 18.1709 255.706 17.09 257.631 16.6171L259.253 16.2118L259.354 19.2856C259.455 22.1231 259.388 22.3595 258.678 22.9337Z" fill="#8F8F8F"/>
<path d="M226.656 9.35471C223.582 9.48983 223.244 9.59116 223.988 9.92895C224.494 10.1316 224.967 10.5708 225.102 10.8748C225.204 11.1788 225.305 14.3202 225.305 17.8332C225.305 23.7783 225.271 24.2512 224.629 24.893C224.258 25.2646 223.819 25.5686 223.616 25.5686C223.447 25.5686 223.278 25.7037 223.278 25.9064C223.278 26.109 225.069 26.2441 227.974 26.2441C230.777 26.2441 232.77 26.109 232.905 25.9064C233.007 25.7037 232.871 25.5686 232.601 25.5686C232.297 25.5686 231.824 25.197 231.554 24.7579C231.081 24.0485 231.014 22.8325 231.115 16.4821C231.216 9.99651 231.149 9.01692 230.71 9.08448C230.439 9.11826 228.615 9.2196 226.656 9.35471Z" fill="#8F8F8F"/>
</svg>
