<svg width="222" height="45" viewBox="0 0 222 45" fill="none" xmlns="http://www.w3.org/2000/svg">
<path d="M49.1408 9.86817H60.3196V12.1598H56.2161V23.6608H53.2514V12.1598H49.1408V9.86817ZM64.8526 23.6608V17.6024H70.1019V23.6608H73.0666V9.86817H70.0661V15.3108H64.8526V9.86817H61.8879V23.6608H64.8526ZM75.4728 23.6608H84.9329V21.3692H78.4376V17.6811H84.3242V15.3895H78.4376V12.1598H84.7252V9.86817H75.4728V23.6608ZM96.7634 20.2449H96.7276L94.6078 9.86817H91.5499L94.9157 23.6608H98.2744L100.953 13.1552H100.989L103.473 23.6608H106.753L110.27 9.86817H107.441L105.221 20.2449H105.185L102.779 9.86817H99.4417L96.7634 20.2449ZM111.272 16.7717C111.272 20.8393 113.335 23.9544 117.903 23.9544C122.465 23.9544 124.535 20.8464 124.535 16.7717C124.535 12.704 122.472 9.58888 117.903 9.58888C113.335 9.58172 111.272 12.6969 111.272 16.7717ZM114.423 16.7717C114.423 14.4013 114.982 11.7229 117.903 11.7229C120.825 11.7229 121.384 14.4013 121.384 16.7717C121.384 19.1349 120.825 21.8132 117.903 21.8132C114.982 21.8132 114.423 19.1349 114.423 16.7717ZM129.447 18.1037H132.584C133.558 18.1395 133.744 19.1922 133.823 19.9584C133.952 21.2045 134.088 22.4434 134.339 23.6608H137.604C137.053 22.8946 136.938 21.2761 136.802 20.3953C136.551 18.4832 136.551 17.0868 134.281 16.8433V16.8075C135.986 16.4494 137.146 15.2606 137.146 13.4631C137.146 10.6559 134.718 9.88965 132.348 9.86817H126.483V23.6608H129.447V18.1037ZM129.447 12.1598H131.925C133.229 12.1813 133.988 12.6969 133.988 13.9143C133.988 15.1389 133.221 15.7834 131.925 15.8049H129.447V12.1598ZM148.346 23.6608V21.3692H142.366V9.86817H139.409V23.6608H148.346ZM149.95 23.6608H154.648C158.945 23.6966 161.623 21.5626 161.623 16.7645C161.623 11.9664 158.945 9.8252 154.648 9.86817H149.95V23.6608ZM152.915 12.1598H154.448C157.964 12.124 158.479 14.566 158.479 16.7645C158.479 18.9558 157.964 21.405 154.448 21.3692H152.915V12.1598ZM174.342 23.6608C176.461 23.8112 179.899 22.8229 179.899 20.0873C179.899 18.0678 178.603 16.8647 176.862 16.4995V16.4637C178.237 16.0054 179.29 14.9527 179.29 13.4488C179.29 10.7562 176.769 9.72494 174.306 9.87533H169.128V23.668H174.342V23.6608ZM172.079 21.3692V17.7026H174.392C175.788 17.7026 176.741 17.9533 176.741 19.5359C176.741 21.1257 175.788 21.3692 174.392 21.3692H172.079ZM172.079 15.411V12.1598H174.392C175.631 12.1598 176.318 12.6754 176.318 13.7854C176.318 14.8954 175.631 15.411 174.392 15.411H172.079ZM183.644 23.6608L184.675 20.739H190.139L191.135 23.6608H194.114L189.323 9.86817H185.807L180.815 23.6608H183.644ZM185.442 18.4474L187.461 12.5608H187.504L189.395 18.4474H185.442ZM208.086 23.6608V9.86817H205.314V20.6817L205.278 20.7247L200.022 9.87533H195.632V23.668H198.404V12.2386L198.439 12.1956L203.882 23.6608H208.086ZM213.478 9.86817H210.52V23.6608H213.478V16.6284H213.514L218.312 23.6608H222L216.5 16.0412L221.563 9.86817H218.104L213.521 15.8335H213.485V9.86817H213.478Z" fill="#8F8F8F"/>
<path d="M41.1774 12.9763C40.6546 13.1983 40.4112 13.7998 40.6332 14.3226C41.6787 16.7932 42.2086 19.4286 42.2086 22.1355C42.2086 23.797 42.001 25.4083 41.6143 26.9551C41.3135 27.929 40.7764 28.8314 40.0388 29.6477C40.0531 29.2968 40.0674 28.9459 40.0674 28.5879C40.0746 24.6348 38.9861 20.467 36.9594 16.5426C38.4418 15.2679 39.3871 13.6924 39.7165 11.9307C39.8168 11.3721 39.4515 10.835 38.893 10.7276C38.3344 10.6202 37.7973 10.9926 37.697 11.5512C37.4822 12.7185 36.8735 13.7855 35.9282 14.695C35.6346 14.208 35.3266 13.7282 35.0044 13.2484C33.1997 10.5987 31.0514 8.3071 28.7025 6.48097C31.8033 6.68148 34.6678 7.44058 36.9809 8.72961C37.3461 8.93729 37.8259 8.93013 38.1625 8.64368C38.5994 8.27845 38.6566 7.62677 38.2914 7.18994C34.9757 2.55658 29.2395 0 22.1355 0C9.93271 0 0 9.93271 0 22.1355C0 24.241 0.300774 26.2748 0.852194 28.2012C0.888 28.3301 0.916645 28.459 0.952452 28.5879C0.959613 28.6165 0.973935 28.638 0.981097 28.6595C3.774 37.6827 12.1957 44.2639 22.1284 44.2639C26.7259 44.2639 30.9941 42.8532 34.5389 40.447C34.5747 40.4255 34.6105 40.4112 34.6392 40.3897C34.854 40.2465 35.0545 40.0961 35.255 39.9385C39.3226 36.9308 42.3375 32.5624 43.5979 27.5065C43.6695 27.2774 43.734 27.0339 43.7841 26.7975C43.7985 26.7403 43.7985 26.683 43.8056 26.6257C44.1064 25.1719 44.2639 23.6681 44.2639 22.1284C44.2639 19.1421 43.6767 16.2418 42.5237 13.5134C42.3089 12.9977 41.7002 12.7543 41.1774 12.9763ZM33.3072 14.4157C33.6437 14.917 33.966 15.4183 34.2739 15.9339C32.6268 16.8863 30.5501 17.4521 28.3014 17.6168C28.1081 14.0648 27.6927 10.6417 27.0195 7.79864C29.3613 9.53884 31.5097 11.7875 33.3072 14.4157ZM30.2493 3.51619C31.2805 3.93155 32.3046 4.46148 33.2785 5.12748C31.7245 4.74077 30.0703 4.50445 28.3515 4.41852C29.0534 3.96019 29.705 3.6451 30.2493 3.51619ZM27.528 2.664C26.9551 2.97194 26.3607 3.35864 25.7592 3.81697C25.487 3.20826 25.2006 2.67116 24.8926 2.21284C25.7162 2.30594 26.6042 2.44916 27.528 2.664ZM17.7385 17.6955C19.2137 18.3615 20.825 18.8843 22.5151 19.2495C23.797 19.5217 25.0717 19.6721 26.3321 19.715C26.3535 20.4885 26.3679 21.2834 26.3679 22.0997C26.3679 26.9479 25.9812 30.9726 25.4226 34.1164C23.5821 34.0376 21.6844 33.7941 19.7795 33.3931C17.2301 32.8417 14.8239 32.0396 12.6397 31.0084C13.3558 27.7858 14.6878 23.8757 16.8075 19.5432C17.1012 18.913 17.4163 18.2971 17.7385 17.6955ZM14.1435 12.9405C13.2914 12.1384 12.6468 11.3148 12.21 10.477C14.1364 9.31684 16.2705 8.37155 18.5477 7.68406C19.9012 7.27587 21.269 6.9751 22.6368 6.76742C20.6603 8.9731 18.6981 11.7803 16.8935 14.9528C15.8623 14.3584 14.9385 13.6852 14.1435 12.9405ZM26.2461 17.6454C25.1576 17.6025 24.0405 17.4664 22.9448 17.2301C21.4552 16.915 20.0373 16.4566 18.7339 15.8837C20.6532 12.5251 22.7586 9.60329 24.8282 7.42626C25.4727 9.97568 26.017 13.3988 26.2461 17.6454ZM22.1069 2.06245C22.4578 2.06961 22.8875 2.48497 23.3386 3.30135C23.1095 3.2011 22.8803 3.108 22.6512 3.02206C21.7202 2.664 20.7964 2.39187 19.8869 2.19135C20.6174 2.10542 21.355 2.06245 22.1069 2.06245ZM11.6443 7.12548C11.8734 6.05845 12.5179 5.106 13.5062 4.3111C15.9052 3.59497 18.7053 3.76684 21.6414 4.84103C20.4097 5.05587 19.1708 5.34232 17.9462 5.70755C15.6761 6.38787 13.5348 7.31884 11.5726 8.45748C11.5368 8.00632 11.5583 7.56232 11.6443 7.12548ZM9.71787 6.38071C9.68923 6.48813 9.66058 6.58839 9.6391 6.70297C9.43142 7.6769 9.4529 8.66516 9.69639 9.65342C7.48355 11.1788 5.55716 12.9906 4.01748 15.0172C3.552 15.6331 3.13664 16.2633 2.7571 16.9006C3.89574 12.6826 6.38071 9.01606 9.71787 6.38071ZM10.0473 38.1482C6.60987 35.5486 4.04613 31.8749 2.82871 27.6283C2.65684 26.9551 2.54226 26.2748 2.49929 25.5873C3.18677 26.5612 4.02465 27.5208 5.02006 28.4446C6.52394 29.8339 8.31426 31.08 10.3051 32.147C9.90406 34.4243 9.78948 36.4868 10.0473 38.1482ZM6.42368 26.9264C4.67632 25.308 3.47323 23.6036 2.85735 21.8992C3.34432 19.9943 4.28245 18.0823 5.66458 16.2561C6.9751 14.5159 8.60787 12.9548 10.4841 11.6085C11.0212 12.5824 11.7803 13.5348 12.7399 14.4372C13.6566 15.2965 14.7165 16.0699 15.9052 16.7503C15.5758 17.3661 15.2607 17.9963 14.9528 18.6337C13.1266 22.379 11.6371 26.3894 10.7563 30.0344C9.13064 29.125 7.66258 28.0794 6.42368 26.9264ZM22.1499 42.1943C22.0997 42.1943 22.0496 42.2015 22.0066 42.2086C18.9416 42.1872 16.0413 41.4854 13.4417 40.2321C13.3845 40.182 13.3128 40.139 13.2412 40.1032C12.0954 39.5446 11.6371 36.9952 12.2315 33.0995C14.43 34.0877 16.8219 34.8683 19.3355 35.4054C21.2404 35.8136 23.1381 36.0643 25.0001 36.1574C24.0906 40.1175 22.9233 42.1943 22.1499 42.1943ZM34.009 38.3057C31.4452 40.1963 28.416 41.4925 25.129 41.9866C25.9525 40.5615 26.6185 38.5564 27.1198 36.2003C30.0273 36.1645 32.7844 35.742 35.2264 34.9184C35.8423 34.7108 36.4223 34.4816 36.9809 34.231C36.3077 35.8924 35.3123 37.2745 34.009 38.3057ZM37.7615 31.5025C36.8377 32.0683 35.7778 32.5624 34.5747 32.9634C32.4478 33.6795 30.0559 34.0663 27.5137 34.1307C28.1224 30.4713 28.416 26.2246 28.416 22.0926C28.416 21.2905 28.4088 20.4813 28.3802 19.6792C30.9439 19.5074 33.3143 18.8414 35.255 17.7242C37.0525 21.2834 38.0193 25.0359 38.0121 28.5735C38.0121 29.6048 37.9262 30.5859 37.7615 31.5025Z" fill="#8F8F8F"/>
</svg>
