<svg width="3845" height="3500" viewBox="0 0 3845 3500" fill="none" xmlns="http://www.w3.org/2000/svg">
<path d="M861.031 84.7012H861.032C1094.27 84.7012 1283.35 273.778 1283.35 507.017V993.992H438.716V507.017C438.716 273.778 627.793 84.7012 861.031 84.7012Z" fill="#EDEEEF"/>
<path d="M438.716 993.991V507.017C438.716 273.778 627.793 84.7012 861.031 84.7012" stroke="black" stroke-width="14" stroke-linecap="round" stroke-linejoin="round"/>
<path d="M861.032 7.0791V1071.61" stroke="black" stroke-width="14" stroke-linecap="round" stroke-linejoin="round"/>
<path d="M1393.3 539.347H328.764" stroke="black" stroke-width="14" stroke-linecap="round" stroke-linejoin="round"/>
<path d="M444.75 3492.64H3830.85" stroke="black" stroke-width="14"/>
<path d="M3742.83 668.367C3507.62 668.367 3306.32 567.788 3223.56 425.316C3140.79 567.788 2939.5 668.367 2704.28 668.367C2670.41 668.379 2636.58 666.256 2602.98 662.013V1439.74C2602.98 1623.73 2701.13 1793.74 2860.47 1885.73L3223.56 2095.36L3586.65 1885.73C3745.98 1793.74 3844.14 1623.73 3844.14 1439.74V662.013C3810.54 666.256 3776.7 668.379 3742.83 668.367Z" fill="#EDEEEF"/>
<path d="M3586.65 1885.73C3745.98 1793.74 3844.14 1623.73 3844.14 1439.74V662.013C3810.54 666.257 3776.7 668.379 3742.83 668.368C3507.62 668.368 3306.32 567.788 3223.56 425.316V2095.36L3586.65 1885.73Z" fill="#D6D6D6"/>
<path d="M2968.58 1295.04L3005.74 1257.88L3195.34 1447.48L3158.18 1484.64L2968.58 1295.04Z" fill="#4DA1FF"/>
<path d="M3532.46 1036.04L3569.62 1073.2L3158.18 1484.65L3121.02 1447.48L3532.46 1036.04Z" fill="#4DA1FF"/>
<path d="M2004.68 1023.64C2004.68 1023.64 1882.49 1120.13 1837.54 1262.11" stroke="black" stroke-width="14" stroke-linecap="round" stroke-linejoin="round"/>
<path d="M1880.79 1749.47L2254.89 1583.82V2133.53V3489.31H1893.11L1935.24 3413.8L1880.79 1749.47Z" fill="#E2E2E2"/>
<path d="M1975.02 1613.21L2482.07 1583.82V2133.53V3489.31H2120.3L2162.43 3413.8L1975.02 1613.21Z" fill="#EDEEEF"/>
<path d="M1911.1 2675.61L2482.07 2659.42L2480 2490.86" fill="black"/>
<path d="M2482.07 1197.76V1622.2L1880.79 1769.98V1297.27C1880.79 1129.65 1995.22 983.694 2157.99 943.688H2158C2236.06 924.502 2318.6 942.264 2381.86 991.859C2445.12 1041.45 2482.07 1117.37 2482.07 1197.76V1197.76Z" fill="#4DA1FF"/>
<path d="M2061.84 712.118V779.84C2061.84 832.206 2097.59 877.807 2148.44 890.305L2256.21 916.793V652.011L2166.6 629.986C2141.37 623.784 2114.68 629.526 2094.23 645.558C2073.78 661.59 2061.84 686.133 2061.84 712.117V712.118Z" fill="#EDEEEF"/>
<path d="M2061.84 779.846C2061.84 832.212 2097.59 877.812 2148.44 890.311L2256.21 916.798" stroke="black" stroke-width="14" stroke-linecap="round" stroke-linejoin="round"/>
<path d="M2171.64 766.406C2174.51 766.406 2176.84 764.079 2176.84 761.209C2176.84 758.339 2174.51 756.012 2171.64 756.012C2168.77 756.012 2166.45 758.339 2166.45 761.209C2166.45 764.079 2168.77 766.406 2171.64 766.406Z" fill="black"/>
<path d="M2091.82 766.406C2094.69 766.406 2097.01 764.079 2097.01 761.209C2097.01 758.339 2094.69 756.012 2091.82 756.012C2088.94 756.012 2086.62 758.339 2086.62 761.209C2086.62 764.079 2088.94 766.406 2091.82 766.406Z" fill="black"/>
<path d="M2115.24 792.208V712.114H2075.11" stroke="black" stroke-width="14" stroke-linecap="round" stroke-linejoin="round"/>
<path d="M2181.43 712.122H2141.31" stroke="black" stroke-width="14" stroke-linecap="round" stroke-linejoin="round"/>
<path d="M2243.41 753.154V780.967C2258.42 780.967 2270.58 768.805 2270.58 753.802C2270.58 752.969 2270.54 752.145 2270.47 751.33C2268.95 734.461 2243.41 736.217 2243.41 753.154Z" fill="#EDEEEF"/>
<path d="M2243.41 780.972C2258.42 780.972 2270.58 768.81 2270.58 753.807" stroke="black" stroke-width="14" stroke-linecap="round" stroke-linejoin="round"/>
<path d="M2137.17 801.566C2140.55 804.94 2145.12 806.835 2149.89 806.835C2154.66 806.835 2159.24 804.94 2162.61 801.566" stroke="#4DA1FF" stroke-width="14" stroke-linecap="round" stroke-linejoin="round"/>
<path d="M2115.24 792.278L2132.78 796.592" stroke="black" stroke-width="14" stroke-linecap="round" stroke-linejoin="round"/>
<path d="M2061.84 725.91C2061.84 725.91 2118.22 705.594 2129.17 666.671C2151.71 708.504 2190.29 739.367 2236.05 752.16" stroke="black" stroke-width="14" stroke-linecap="round" stroke-linejoin="round"/>
<path d="M2061.84 767.386C2061.84 767.386 1992.38 669.729 2055.28 620.872C2118.18 572.015 2187.19 595.222 2195.74 602.55C2195.74 602.55 2300.48 592.092 2344.45 699.004C2388.42 805.917 2527.18 780.574 2565.22 811.281C2567.07 812.759 2568.73 814.452 2570.17 816.324C2588.96 839.878 2614.55 857.071 2643.46 865.564C2697.11 882.352 2758.78 916.178 2739.28 981.191C2706.3 1091.12 2239.32 1021.87 2251.12 779.841" stroke="black" stroke-width="14" stroke-linecap="round" stroke-linejoin="round"/>
<path d="M1880.79 1769.98V2682.04L2785.54 2490.01L2482.07 1622.2" fill="#4DA1FF"/>
<path d="M2120.29 3489.31L2162.43 3413.8L2040.43 2241.73" stroke="black" stroke-width="14" stroke-linecap="round" stroke-linejoin="round"/>
<path d="M2415.74 1023.64C2415.74 1023.64 2670.54 1303.18 2589.93 1622.2C2509.31 1941.22 1793.56 1503.95 1791.12 1420.9C1788.67 1337.84 1905.93 1391.58 1905.93 1391.58C1905.93 1391.58 1893.72 1338.83 1918.14 1353C1942.57 1367.16 1954.79 1396.47 1954.79 1396.47L2313.88 1442.88L2254.89 1269.44" stroke="black" stroke-width="14" stroke-linecap="round" stroke-linejoin="round"/>
<path d="M1677.33 1384.66C1677.33 1384.66 1620.22 1332.08 1633.11 1381.43C1646 1430.78 1710.72 1654.5 1882.65 1678.52" stroke="black" stroke-width="14" stroke-linecap="round" stroke-linejoin="round"/>
<path d="M1854.67 1332.47H1877.65L1763.93 1072.31H1742.55L1854.67 1332.47Z" fill="black"/>
<path d="M1448.37 1350.46H2073.86V1318.64H1435.59L1448.37 1350.46Z" fill="black"/>
<path d="M1448.37 1350.46H2073.86V1318.64H1435.59L1448.37 1350.46Z" fill="black"/>
<path d="M1447.46 1350.46H1862.13L1742.55 1072.31H1327.88L1447.46 1350.46Z" fill="#E2E2E2"/>
<path d="M2053.32 1350.46H1355.72" stroke="black" stroke-width="1.5" stroke-linecap="round" stroke-linejoin="round"/>
<rect x="700.008" y="2393.79" width="785.45" height="132.98" fill="black"/>
<path d="M1142.65 2526.77H588.786L428.751 1757.08H982.619L1142.65 2526.77Z" fill="#4DA1FF"/>
<path d="M1142.65 2526.77V3492.99" stroke="black" stroke-width="14" stroke-linecap="round" stroke-linejoin="round"/>
<path d="M1485.46 2526.77V3492.99" stroke="black" stroke-width="14" stroke-linecap="round" stroke-linejoin="round"/>
<path d="M592.596 2526.77V3492.99" stroke="black" stroke-width="14" stroke-linecap="round" stroke-linejoin="round"/>
<path d="M935.401 2526.77V3492.99" stroke="black" stroke-width="14" stroke-linecap="round" stroke-linejoin="round"/>
<path d="M1485.46 2393.79V2526.77H700.008" stroke="black" stroke-width="14" stroke-linecap="round" stroke-linejoin="round"/>
<path d="M7.43701 3492.99H1906.77" stroke="black" stroke-width="14" stroke-linecap="round" stroke-linejoin="round"/>
<path d="M3097.68 2847.11H3097.68C3076.15 2814.63 3042.77 2791.7 3004.56 2783.17L3002.27 2782.66C3002.27 2782.66 3016.02 2878.35 3116.51 2890.63L3120.09 3149.63V2921.4C3120.09 2895 3112.3 2869.17 3097.68 2847.11Z" fill="#EDEEEF"/>
<path d="M3237.9 2813.37L3235.61 2813.88C3197.41 2822.41 3164.03 2845.34 3142.5 2877.82L3142.5 2877.82C3127.88 2899.88 3120.09 2925.71 3120.09 2952.11V3180.34L3125.8 2913.36C3226.29 2901.08 3237.9 2813.37 3237.9 2813.37Z" fill="#EDEEEF"/>
<rect x="3042.77" y="3119.04" width="154.624" height="370.61" fill="#4DA1FF"/>
<path d="M3120.09 3149.63V2921.4C3120.09 2895 3112.3 2869.17 3097.68 2847.11V2847.11C3076.15 2814.63 3042.77 2791.7 3004.56 2783.17L3002.27 2782.66C3002.27 2782.66 2996.09 2874.78 3096.58 2887.07" stroke="black" stroke-width="14" stroke-linecap="round" stroke-linejoin="round"/>
<path d="M3120.09 3180.34V2952.11C3120.09 2925.71 3127.88 2899.88 3142.5 2877.82V2877.82C3164.03 2845.34 3197.41 2822.41 3235.61 2813.88L3237.9 2813.37C3237.9 2813.37 3244.08 2905.49 3143.59 2917.78" stroke="black" stroke-width="14" stroke-linecap="round" stroke-linejoin="round"/>
<path d="M3120.09 3133.75V3001.19C3120.09 2985.85 3115.56 2970.85 3107.07 2958.04V2958.04C3094.56 2939.17 3075.18 2925.85 3052.99 2920.89L3051.66 2920.6C3051.66 2920.6 3048.07 2974.11 3106.43 2981.24" stroke="black" stroke-width="14" stroke-linecap="round" stroke-linejoin="round"/>
</svg>
