<svg width="4301" height="3630" viewBox="0 0 4301 3630" fill="none" xmlns="http://www.w3.org/2000/svg">
<path d="M782.946 234.416C354.862 234.416 7.83196 581.446 7.83203 1009.53C7.8321 1437.61 354.862 1784.64 782.946 1784.64C1211.03 1784.64 1558.06 1437.61 1558.06 1009.53H782.946V234.416Z" fill="#EDEEEF"/>
<path d="M7.83203 1009.53C7.83203 1437.61 354.862 1784.65 782.946 1784.65C1211.03 1784.65 1558.06 1437.61 1558.06 1009.53" stroke="black" stroke-width="14"/>
<path d="M1558.07 1009.53H782.959L1406.79 1469.58C1505.28 1336.44 1558.32 1175.14 1558.07 1009.53Z" fill="black"/>
<path d="M782.959 0V1009.53H1792.49C1792.49 741.787 1686.13 485.009 1496.81 295.685C1307.48 106.361 1050.7 -8.08392e-05 782.959 0Z" fill="#4DA1FF"/>
<path d="M3427.25 3365.35H3120.79V3218.79H2807.68V3045.57L2574.5 2812.39H2221.41V2139.52H1761.72V1306.76L1182.12 1886.36V2992.27H875.662V3482.15H749.084V3345.36H522.57V3618.94H3580.48V3518.58L3427.25 3365.35Z" fill="#F7F7F7"/>
<rect x="1797.17" y="2308.1" width="41.8679" height="41.8679" fill="white"/>
<rect x="1899.03" y="2308.1" width="41.8679" height="41.8679" fill="white"/>
<rect x="2000.91" y="2308.1" width="41.8679" height="41.8679" fill="white"/>
<rect x="1797.17" y="2420.98" width="41.8679" height="41.8679" fill="white"/>
<rect x="1899.03" y="2420.98" width="41.8679" height="41.8679" fill="white"/>
<rect x="2000.91" y="2420.98" width="41.8679" height="41.8679" fill="white"/>
<rect x="1797.17" y="2533.87" width="41.8679" height="41.8679" fill="white"/>
<rect x="1899.03" y="2533.87" width="41.8679" height="41.8679" fill="white"/>
<rect x="2000.91" y="2533.87" width="41.8679" height="41.8679" fill="white"/>
<rect x="1797.17" y="2646.75" width="41.8679" height="41.8679" fill="white"/>
<rect x="1899.03" y="2646.75" width="41.8679" height="41.8679" fill="white"/>
<rect x="2000.91" y="2646.75" width="41.8679" height="41.8679" fill="white"/>
<rect x="1797.17" y="2759.64" width="41.8679" height="41.8679" fill="white"/>
<rect x="1899.03" y="2759.64" width="41.8679" height="41.8679" fill="white"/>
<rect x="2000.91" y="2759.64" width="41.8679" height="41.8679" fill="white"/>
<rect x="1797.17" y="2872.52" width="41.8679" height="41.8679" fill="white"/>
<rect x="1899.03" y="2872.52" width="41.8679" height="41.8679" fill="white"/>
<rect x="2000.91" y="2872.52" width="41.8679" height="41.8679" fill="white"/>
<rect x="1797.17" y="2985.41" width="41.8679" height="41.8679" fill="white"/>
<rect x="1899.03" y="2985.41" width="41.8679" height="41.8679" fill="white"/>
<rect x="2000.91" y="2985.41" width="41.8679" height="41.8679" fill="white"/>
<rect x="1797.17" y="3098.3" width="41.8679" height="41.8679" fill="white"/>
<rect x="1899.03" y="3098.3" width="41.8679" height="41.8679" fill="white"/>
<rect x="2000.91" y="3098.3" width="41.8679" height="41.8679" fill="white"/>
<rect x="1797.17" y="3211.18" width="41.8679" height="41.8679" fill="white"/>
<rect x="1899.03" y="3211.18" width="41.8679" height="41.8679" fill="white"/>
<rect x="2000.91" y="3211.18" width="41.8679" height="41.8679" fill="white"/>
<path d="M3542.48 317.356C3446.38 317.185 3368.33 394.955 3368.16 491.06L3716.19 491.679C3716.36 395.574 3638.59 317.527 3542.48 317.356Z" fill="#EDEEEF"/>
<path d="M3905 392.808C3850.21 392.71 3805.71 437.049 3805.61 491.841L4004.03 492.194C4004.13 437.402 3959.79 392.905 3905 392.808Z" fill="#EDEEEF"/>
<path d="M3716.51 309.712C3616.01 309.534 3534.4 390.859 3534.22 491.357L3898.16 492.005C3898.34 391.506 3817.01 309.891 3716.51 309.712Z" fill="#EDEEEF"/>
<path d="M3336.2 491.003L4051.51 492.276" stroke="black" stroke-width="14"/>
<path d="M3785.58 766.742C3829.64 766.664 3865.41 802.315 3865.49 846.372L3705.95 846.656C3705.87 802.599 3741.52 766.821 3785.58 766.742Z" fill="#EDEEEF"/>
<path d="M3619.41 801.33C3644.52 801.286 3664.92 821.611 3664.97 846.729L3574.01 846.891C3573.96 821.773 3594.29 801.375 3619.41 801.33Z" fill="#EDEEEF"/>
<path d="M3705.81 763.235C3751.88 763.153 3789.29 800.434 3789.38 846.504L3622.54 846.801C3622.46 800.73 3659.74 763.316 3705.81 763.235Z" fill="#EDEEEF"/>
<path d="M3880.16 846.341L3552.24 846.924" stroke="black" stroke-width="14"/>
<path d="M199.758 3622.82H4300.24" stroke="black" stroke-width="14"/>
<path d="M1796.64 3183.56C1914.76 2420.7 2606.38 2089.76 2606.38 2089.76L2894.48 2238.59C2904.62 2238.59 2840.48 2511.87 2840.48 2511.87L2413.71 2700.92L2018.53 3312.07L1717.89 3208.17L1796.64 3183.56Z" fill="#E2E2E2"/>
<path d="M2389.69 2228.29C2553.2 2148.91 2747.77 2170.57 2889.82 2283.97C2875.72 2361.65 2840.47 2511.87 2840.47 2511.87L2413.71 2700.91L2243.11 2964.75C2102.26 2805.85 2085.07 2572.38 2201.13 2394.58C2259.86 2334.64 2322.88 2279.06 2389.69 2228.29Z" fill="black"/>
<path d="M2168.62 2534.39C2182.49 2144.26 2647.74 2081.8 2647.74 2081.8L3186.18 1949.46C3186.18 1949.46 3274.98 2537.67 2595.76 2547.52L2916.96 3183.55L2621.75 3312.06L2647.74 3222.93C2647.74 3222.93 2160.33 2767.36 2168.62 2534.39Z" fill="#EDEEEF"/>
<path d="M3186.18 1949.46C3186.18 1949.46 3274.98 2537.67 2595.77 2547.52L2916.96 3183.55" stroke="black" stroke-width="14" stroke-linecap="round" stroke-linejoin="round"/>
<path d="M3186.19 1569.38V1949.46L2647.75 2081.8V1658.49C2647.75 1508.4 2750.22 1377.69 2895.98 1341.87H2895.98C2965.88 1324.68 3039.8 1340.59 3096.45 1385C3153.1 1429.41 3186.19 1497.4 3186.19 1569.38V1569.38Z" fill="#4DA1FF"/>
<path d="M3027.39 1134.49V1195.14C3027.39 1242.03 2995.38 1282.87 2949.84 1294.06L2853.34 1317.78V1080.67L2933.58 1060.95C2956.18 1055.39 2980.07 1060.53 2998.38 1074.89C3016.7 1089.25 3027.39 1111.22 3027.39 1134.49V1134.49Z" fill="#EDEEEF"/>
<path d="M3027.39 1195.14C3027.39 1242.03 2995.38 1282.86 2949.84 1294.06L2853.34 1317.78" stroke="black" stroke-width="14" stroke-linecap="round" stroke-linejoin="round"/>
<path d="M2929.08 1183.1C2926.51 1183.1 2924.43 1181.02 2924.43 1178.45C2924.43 1175.88 2926.51 1173.8 2929.08 1173.8C2931.65 1173.8 2933.74 1175.88 2933.74 1178.45C2933.74 1181.02 2931.65 1183.1 2929.08 1183.1Z" fill="black"/>
<path d="M3000.55 1183.1C2997.98 1183.1 2995.89 1181.02 2995.89 1178.45C2995.89 1175.88 2997.98 1173.8 3000.55 1173.8C3003.12 1173.8 3005.2 1175.88 3005.2 1178.45C3005.2 1181.02 3003.12 1183.1 3000.55 1183.1Z" fill="black"/>
<path d="M2979.58 1206.21V1134.49H3015.51" stroke="black" stroke-width="14" stroke-linecap="round" stroke-linejoin="round"/>
<path d="M2920.31 1134.49H2956.24" stroke="black" stroke-width="14" stroke-linecap="round" stroke-linejoin="round"/>
<path d="M2864.81 1171.24V1196.14C2851.37 1196.14 2840.48 1185.25 2840.48 1171.82C2840.48 1171.07 2840.52 1170.33 2840.58 1169.6C2841.94 1154.5 2864.81 1156.07 2864.81 1171.24Z" fill="#EDEEEF"/>
<path d="M2864.81 1196.15C2851.37 1196.15 2840.48 1185.26 2840.48 1171.82" stroke="black" stroke-width="14" stroke-linecap="round" stroke-linejoin="round"/>
<path d="M2959.94 1214.59C2956.92 1217.61 2952.82 1219.31 2948.55 1219.31C2944.28 1219.31 2940.18 1217.61 2937.16 1214.59" stroke="#4DA1FF" stroke-width="14" stroke-linecap="round" stroke-linejoin="round"/>
<path d="M2979.58 1206.27L2963.86 1210.13" stroke="black" stroke-width="14" stroke-linecap="round" stroke-linejoin="round"/>
<path d="M3031.09 1161.72C3031.09 1161.72 2987.8 1139.18 2980.47 1101.06C2980.38 1100.47 2979.9 1100.03 2979.31 1099.98C2978.72 1099.94 2978.18 1100.3 2978 1100.87C2972.68 1117.39 2950.67 1160.85 2864.81 1171.24" stroke="black" stroke-width="14" stroke-linecap="round" stroke-linejoin="round"/>
<path d="M3027.41 1183.98C3027.41 1183.98 3070.47 1165 3062.81 1114.69C3055.16 1064.37 2907.5 927.281 2807.97 1058.72C2708.43 1190.16 2543.82 1438.44 2543.82 1438.44L2652.44 1455.14C2702.74 1462.87 2753.9 1448.25 2792.51 1415.12C2831.13 1381.98 2853.35 1333.64 2853.35 1282.75V1214.59" stroke="black" stroke-width="14" stroke-linecap="round" stroke-linejoin="round"/>
<path fill-rule="evenodd" clip-rule="evenodd" d="M1653.57 1814.25H2510.32L2451.55 1300.28H1594.81L1653.57 1814.25Z" stroke="black" stroke-width="14" stroke-linecap="round" stroke-linejoin="round"/>
<path d="M2023.32 2009.1L2001.04 1814.25H2138.06L2160.34 2009.1H2023.32Z" fill="black"/>
<path d="M2754.81 2009.1H1582.42" stroke="black" stroke-width="14" stroke-linecap="round" stroke-linejoin="round"/>
<path d="M3113.5 1398.73C3113.5 1398.73 3335.44 1581 3391.22 1875.59C3447.01 2170.18 3004.7 2099.39 2794.03 2012.68" stroke="black" stroke-width="14" stroke-linecap="round" stroke-linejoin="round"/>
<path d="M3156.62 1858.08C3156.62 1858.08 2656.22 1769.62 2621.77 1988.76" stroke="black" stroke-width="14" stroke-linecap="round" stroke-linejoin="round"/>
<path d="M2777.83 1398.73C2777.83 1398.73 2620.79 1560.78 2579.38 1858.09C2579.38 1858.09 2420.09 1863.57 2413.72 1988.77" stroke="black" stroke-width="14" stroke-linecap="round" stroke-linejoin="round"/>
<path d="M3206.15 1494.76C3206.15 1494.76 3277.52 1346.57 3336.58 1474.54C3395.65 1602.51 3653.73 2445.8 3381.38 2586.9C3109.03 2727.99 2710.78 2650.5 2710.78 2650.5" stroke="black" stroke-width="14" stroke-linecap="round" stroke-linejoin="round"/>
<path d="M3011.74 2671.73V3621.42H3336.58" stroke="black" stroke-width="14" stroke-linecap="round" stroke-linejoin="round"/>
<path d="M3647.37 3319.27C3647.37 3319.27 3574.18 3231.44 3612.24 3181.67C3650.3 3131.9 3694.21 3181.67 3694.21 3181.67C3694.21 3181.67 3626.88 3052.85 3770.34 3029.43C3913.8 3006.01 3951.86 3190.45 3951.86 3190.45C3951.86 3190.45 3989.92 3096.77 4057.25 3126.04C4124.59 3155.32 4092.39 3226.23 4092.39 3226.23C4092.39 3226.23 4109.95 3181.67 4139.23 3193.38C4168.51 3205.09 4150.94 3246.08 4150.94 3246.08C4150.94 3246.08 4177.29 3213.86 4171.44 3269.49" fill="#4DA1FF"/>
<path d="M3532.49 3342.7C3532.4 3451.2 3582.12 3553.74 3667.37 3620.86H4106.17C4211.85 3537.4 4261.16 3401.29 4233.45 3269.5H3540.08C3535.03 3293.57 3532.49 3318.1 3532.49 3342.7Z" fill="black"/>
</svg>
