<svg width="4182" height="3497" viewBox="0 0 4182 3497" fill="none" xmlns="http://www.w3.org/2000/svg">
<rect x="571.547" y="7" width="1769.23" height="3388.7" fill="#EDEEEF"/>
<path d="M0 3395.7H2912.32" stroke="black" stroke-width="14"/>
<path d="M1682.83 3496.97L571.545 3395.7V7L1682.83 108.272V3496.97Z" fill="#B366FF"/>
<path d="M571.545 7L1682.83 108.272V3496.97" stroke="black" stroke-width="14"/>
<path d="M1328.77 1812.73C1359.53 1812.73 1384.46 1787.8 1384.46 1757.04C1384.46 1726.29 1359.53 1701.35 1328.77 1701.35C1298.01 1701.35 1273.08 1726.29 1273.08 1757.04C1273.08 1787.8 1298.01 1812.73 1328.77 1812.73Z" fill="#EDEEEF"/>
<path d="M4013.88 3326.58V3220.09L3915.59 3310.19L3882.82 3027.59L3624.8 3211.89L3592.03 3089.03L3501.93 3179.13V3031.69L3391.35 3162.75L3293.05 2867.86L3170.18 3171.14L2989.98 2945.68L2854.82 3252.85V3105.41L2777 3248.76L2723.75 3056.26L2576.31 3285.62L2351.05 3003.02L2281.43 3281.52L2215.9 3203.71L2166.75 3396.61H4058.94L4075.32 3322.48L4013.88 3326.58Z" fill="#F4F4F4"/>
<path d="M2060.08 3396.61H4181.99" stroke="black" stroke-width="14"/>
<path d="M3570.44 1047.62C3839.77 1047.62 4058.11 829.28 4058.11 559.95C4058.11 290.619 3839.77 72.2832 3570.44 72.2832C3301.11 72.2832 3082.78 290.619 3082.78 559.95C3082.78 829.28 3301.11 1047.62 3570.44 1047.62Z" fill="#EDEEEF"/>
<path d="M3570.44 59.5537V1060.34" stroke="black" stroke-width="14"/>
<path d="M4070.84 559.949H3070.05" stroke="black" stroke-width="14"/>
<path d="M3082.78 559.95C3082.78 290.619 3301.11 72.2832 3570.44 72.2832" stroke="black" stroke-width="14"/>
<path d="M3055.16 3309.35V2322.87L2786.27 2070.52L2756.92 3387.05H3116.34L3055.16 3309.35Z" fill="#E2E2E2"/>
<path d="M2986.15 1429.39L2538.45 1398.72L2457.04 1972.33V3387.05H2872.87L2828.91 3308.26L2986.15 1429.39Z" fill="#EDEEEF"/>
<path d="M2777.28 2473.83C2871.42 2458.95 2964.31 2437.02 3055.16 2408.22L2781.65 2277.63L2777.28 2473.83Z" fill="black"/>
<path d="M2457.04 2122.65V2488.21C2612.62 2504.01 2782.04 2476.86 2900.73 2449.99L2910.03 2338.92L2457.04 2122.65Z" fill="black"/>
<path d="M2872.87 3387.05L2828.91 3308.26L2986.15 1429.39" stroke="black" stroke-width="14"/>
<path d="M2472.56 995.885V1438.78L3099.98 1592.99V1099.72C3099.98 924.822 2980.57 772.516 2810.73 730.771H2810.73C2729.27 710.751 2643.14 729.285 2577.13 781.035C2511.12 832.786 2472.56 912.007 2472.56 995.885L2472.56 995.885Z" fill="#B366FF"/>
<path d="M2596.81 489.126V559.793C2596.81 614.436 2634.11 662.018 2687.17 675.06L2799.63 702.7V426.406L2706.12 403.424C2679.79 396.953 2651.95 402.944 2630.61 419.673C2609.27 436.402 2596.81 462.012 2596.81 489.126L2596.81 489.126Z" fill="#EDEEEF"/>
<path d="M2596.81 559.794C2596.81 614.436 2634.11 662.019 2687.17 675.061L2799.63 702.701" stroke="black" stroke-width="14"/>
<path d="M2711.38 545.772C2714.37 545.772 2716.8 543.344 2716.8 540.349C2716.8 537.354 2714.37 534.926 2711.38 534.926C2708.38 534.926 2705.96 537.354 2705.96 540.349C2705.96 543.344 2708.38 545.772 2711.38 545.772Z" fill="black"/>
<path d="M2628.09 545.772C2631.08 545.772 2633.51 543.344 2633.51 540.349C2633.51 537.354 2631.08 534.926 2628.09 534.926C2625.09 534.926 2622.66 537.354 2622.66 540.349C2622.66 543.344 2625.09 545.772 2628.09 545.772Z" fill="black"/>
<path d="M2652.52 572.7V489.127H2610.65" stroke="black" stroke-width="14"/>
<path d="M2721.6 489.127H2679.73" stroke="black" stroke-width="14"/>
<path d="M2604.14 475.442H2604.14" stroke="black" stroke-width="14"/>
<path d="M2786.27 531.947V560.969C2801.93 560.969 2814.62 548.278 2814.62 532.623C2814.62 531.753 2814.58 530.893 2814.5 530.043C2812.91 512.441 2786.27 514.273 2786.27 531.947Z" fill="#EDEEEF"/>
<path d="M2786.27 560.969C2801.93 560.969 2814.62 548.278 2814.62 532.623" stroke="black" stroke-width="14"/>
<path d="M2675.41 582.464C2682.74 589.794 2694.63 589.794 2701.96 582.464" stroke="#B366FF" stroke-width="14" stroke-linecap="round" stroke-linejoin="round"/>
<path d="M2652.52 572.766L2670.83 577.267" stroke="black" stroke-width="14" stroke-linecap="round"/>
<path d="M2596.81 465.897C2596.81 465.897 2656.16 458.311 2670.83 429.573C2670.83 429.573 2689.42 459.524 2716.8 456.975C2716.8 456.975 2732.71 489.476 2760.75 483.74C2760.75 483.74 2758.58 514.253 2786.27 520.701" stroke="black" stroke-width="14"/>
<path d="M2596.81 520.701C2596.81 520.701 2477.81 450.603 2588.69 375.406C2699.57 300.209 2773.49 370.308 2773.49 370.308C2773.49 370.308 2844.87 390.317 2846.14 430.656C2846.14 430.656 2878.01 465.897 2867.81 499.034C2867.81 499.034 2907.69 603.545 2800.44 636.683" stroke="black" stroke-width="14"/>
<path d="M2800.44 651.977C2814.63 650.285 2828.16 645.023 2839.77 636.683" stroke="#B366FF" stroke-width="14" stroke-linecap="round" stroke-linejoin="round"/>
<path d="M2799.63 676.83V770.355C2799.28 805.384 2824.43 835.479 2858.96 841.364C2871.9 844.134 2885.38 840.534 2895.21 831.684C2928.99 799.821 2912.42 723.987 2883.1 705.507C2884.47 684.15 2872.57 664.148 2853.15 655.163" stroke="black" stroke-width="14"/>
<path d="M2472.56 1438.78L1976.92 2280.81C1976.92 2280.81 2578.91 2505.04 3099.98 2408.22V1493.16" fill="#B366FF"/>
<path d="M1976.92 2280.81C1976.92 2280.81 2578.91 2505.04 3099.98 2408.22" stroke="black" stroke-width="14"/>
<path d="M2986.15 828.555C2986.15 828.555 3166.38 984.945 3189.32 1187.59C3189.32 1187.59 3223.4 659.624 3234.87 636.683C3246.34 613.742 3265.46 722.75 3265.46 722.75C3265.46 722.75 3406.93 770.508 3334.28 873.744C3334.28 873.744 3530.98 1485.51 3099.98 1546.69" stroke="black" stroke-width="14"/>
<path d="M2596.81 766.964C2596.81 766.964 2445.94 843.155 2326.14 1118.45C2326.14 1118.45 2127.31 796.825 1987.12 748.617C1846.92 700.409 1818.88 694.795 1813.78 702.7C1808.68 710.605 1885.15 766.684 1885.15 766.684C1885.15 766.684 1846.92 885.824 1964.17 909.098C1964.17 909.098 1982.24 1419.24 2205.17 1490.61C2428.1 1561.98 2628.09 1268.84 2628.09 1268.84" stroke="black" stroke-width="14"/>
<path d="M3782.97 2390.2C3942.21 2390.2 4071.3 2261.12 4071.3 2101.88C4071.3 1942.64 3942.21 1813.55 3782.97 1813.55C3623.73 1813.55 3494.64 1942.64 3494.64 2101.88C3494.64 2261.12 3623.73 2390.2 3782.97 2390.2Z" fill="#B366FF"/>
<path d="M3563.1 2101.88C3563.1 2043.56 3586.27 1987.64 3627.5 1946.41C3668.74 1905.17 3724.66 1882.01 3782.97 1882.01" stroke="white" stroke-width="14"/>
<path d="M3782.97 2390.2V3401.33" stroke="black" stroke-width="14"/>
</svg>
