<svg width="4466" height="3625" viewBox="0 0 4466 3625" fill="none" xmlns="http://www.w3.org/2000/svg">
<path d="M823.429 3221.64C810.673 3185.99 773.305 3233.07 773.305 3233.07C773.305 3233.07 818.327 3137.61 773.305 3115.97C751.097 3105.3 739.41 3117.86 733.265 3133.32C756.301 2994.53 761.272 2726.83 668.294 2717.5C566.732 2707.32 601.482 2964.48 601.482 2964.48C601.482 2964.48 573.419 2890.64 537.706 2923.74C501.992 2956.84 570.868 3173.26 570.868 3173.26C563.215 3150.34 522.397 3132.52 507.09 3173.26C491.784 3214 550.459 3300.57 550.459 3300.57L751.997 3333.67C751.997 3333.67 836.184 3257.28 823.429 3221.64Z" fill="black"/>
<path d="M808.43 3547.56H519.845L456.029 3290.17H872.246L808.43 3547.56Z" fill="#B366FF"/>
<path d="M456.029 3290.17H872.247" stroke="black" stroke-width="14" stroke-linecap="round" stroke-linejoin="round"/>
<path d="M4081.63 2357.81C4222.97 2357.81 4337.55 2243.23 4337.55 2101.89C4337.55 1960.55 4222.97 1845.97 4081.63 1845.97C3940.29 1845.97 3825.71 1960.55 3825.71 2101.89C3825.71 2243.23 3940.29 2357.81 4081.63 2357.81Z" fill="#EDEEEF"/>
<path fill-rule="evenodd" clip-rule="evenodd" d="M4081.63 2357.81C4222.97 2357.81 4337.55 2243.23 4337.55 2101.89C4337.55 1960.55 4222.97 1845.97 4081.63 1845.97C3940.29 1845.97 3825.71 1960.55 3825.71 2101.89C3825.71 2243.23 3940.29 2357.81 4081.63 2357.81Z" stroke="black" stroke-width="14"/>
<rect x="3988.6" y="1781.38" width="186.064" height="641.037" fill="#EDEEEF"/>
<path d="M3757.53 2022.2L3850.57 1861.06L4405.72 2181.58L4312.69 2342.72L3757.53 2022.2Z" fill="#EDEEEF"/>
<path d="M3850.57 2342.72L3757.54 2181.58L4312.69 1861.06L4405.72 2022.2L3850.57 2342.72Z" fill="#EDEEEF"/>
<path d="M4081.63 2165.88C4116.96 2165.88 4145.6 2137.23 4145.6 2101.9C4145.6 2066.56 4116.96 2037.92 4081.63 2037.92C4046.29 2037.92 4017.65 2066.56 4017.65 2101.9C4017.65 2137.23 4046.29 2165.88 4081.63 2165.88Z" fill="#B366FF"/>
<path d="M4017.65 2101.9C4017.65 2066.56 4046.29 2037.92 4081.63 2037.92" stroke="black" stroke-width="14"/>
<rect x="2726.71" width="1353.85" height="1353.85" fill="#EDEEEF"/>
<path d="M4080.56 0.0107422V1353.86H2726.71" stroke="black" stroke-width="14"/>
<path d="M3269.57 695.857H3537.69C3600.56 695.857 3660.84 720.829 3705.3 765.28C3749.75 809.73 3774.72 870.018 3774.72 932.88V1066.94H3032.55V932.88C3032.55 870.018 3057.52 809.73 3101.97 765.28C3146.42 720.829 3206.71 695.857 3269.57 695.857Z" fill="#B366FF"/>
<path d="M3403.63 286.916C3504.77 286.916 3586.75 368.905 3586.75 470.042V605.655H3220.5V470.042C3220.5 421.474 3239.79 374.895 3274.14 340.552C3308.48 306.21 3355.06 286.916 3403.63 286.916V286.916Z" fill="#B366FF"/>
<path d="M1963.84 82.1738V525.037H2303.93V204.161L2181.94 82.1738H1963.84Z" fill="#D6D6D6"/>
<path d="M1963.84 525.042H2303.93V204.167" stroke="black" stroke-width="14"/>
<path d="M1843.14 0V442.863H2183.23V121.988L2061.24 0H1843.14Z" fill="#EDEEEF"/>
<path d="M1843.14 442.869H2183.23V121.994" stroke="black" stroke-width="14"/>
<path d="M2183.23 121.988L2061.25 0V121.988H2183.23Z" fill="#B366FF"/>
<path d="M1942.17 188.341H2084.2" stroke="black" stroke-width="14"/>
<path d="M1942.17 218.251H2084.2" stroke="black" stroke-width="14"/>
<path d="M1942.17 248.149H2084.2" stroke="black" stroke-width="14"/>
<path d="M1942.17 278.059H2013.19" stroke="black" stroke-width="14"/>
<rect x="3078.15" y="2719.95" width="155.096" height="131.644" fill="#B366FF"/>
<rect x="3078.15" y="2797.21" width="155.096" height="54.3747" fill="black"/>
<path d="M3155.7 2785.77C3256.22 2785.77 3337.71 2704.28 3337.71 2603.75C3337.71 2503.23 3256.22 2421.74 3155.7 2421.74C3055.17 2421.74 2973.68 2503.23 2973.68 2603.75C2973.68 2704.28 3055.17 2785.77 3155.7 2785.77Z" fill="#B366FF"/>
<path d="M3155.7 2351.43V2394.92" stroke="black" stroke-width="14"/>
<path d="M3090.39 2360.02L3101.65 2402.03" stroke="black" stroke-width="14"/>
<path d="M3029.53 2385.23L3051.28 2422.9" stroke="black" stroke-width="14"/>
<path d="M2977.27 2425.33L3008.02 2456.08" stroke="black" stroke-width="14"/>
<path d="M2937.17 2477.59L2974.84 2499.34" stroke="black" stroke-width="14"/>
<path d="M2911.96 2538.45L2953.98 2549.7" stroke="black" stroke-width="14"/>
<path d="M3357.42 2549.7L3399.43 2538.45" stroke="black" stroke-width="14"/>
<path d="M3336.56 2499.34L3374.22 2477.59" stroke="black" stroke-width="14"/>
<path d="M3303.36 2456.08L3334.12 2425.33" stroke="black" stroke-width="14"/>
<path d="M3260.11 2422.9L3281.86 2385.23" stroke="black" stroke-width="14"/>
<path d="M3209.75 2402.03L3221.01 2360.02" stroke="black" stroke-width="14"/>
<path d="M1755.12 1706.45L1458.72 1725.46L1800.56 2332.37L1544.07 3040.44L1873.12 3250.07L1869.91 3145.2C1869.91 3145.2 2093.18 2903.16 2262.97 2357.66C2432.76 1812.16 1755.12 1706.45 1755.12 1706.45Z" fill="#E2E2E2"/>
<path d="M2005.28 2260.12L1802.97 2223.99L1751.92 2246.02L1800.56 2332.37L1747.72 2478.26C1747.72 2478.26 1963.97 2566.15 2085.33 2804.8C2095.35 2784.73 2105.48 2763.74 2115.72 2741.81C2083.04 2563.96 2005.28 2260.12 2005.28 2260.12Z" fill="black"/>
<path fill-rule="evenodd" clip-rule="evenodd" d="M2911.66 1557.57H1968.42L2033.12 991.719H2976.36L2911.66 1557.57Z" stroke="black" stroke-width="14" stroke-linecap="round" stroke-linejoin="round"/>
<path d="M2504.58 1772.1L2529.1 1557.57H2378.25L2353.72 1772.1H2504.58Z" fill="black"/>
<path d="M2523.08 3025.99C2523.08 3025.99 2456.94 1745.63 1579.02 1749.72L1162.32 1852.15C1162.32 1852.15 1058.73 2420.32 1925.7 2387.81L2239.98 3200.6L2581.35 3081.39L2523.08 3025.99Z" fill="#EDEEEF"/>
<path d="M2523.08 3025.99C2523.08 3025.99 2456.94 1745.63 1579.02 1749.72" stroke="black" stroke-width="14" stroke-linecap="round" stroke-linejoin="round"/>
<path d="M1162.32 1852.15C1162.32 1852.15 1058.73 2420.32 1925.7 2387.81L2239.98 3200.6" stroke="black" stroke-width="14" stroke-linecap="round" stroke-linejoin="round"/>
<path d="M1554.54 809.197V963.887L1362.91 1010.99V749.94L1554.54 702.839V809.197Z" fill="#EDEEEF"/>
<path d="M1446.29 862.718C1449.12 862.718 1451.41 860.424 1451.41 857.594C1451.41 854.765 1449.12 852.471 1446.29 852.471C1443.46 852.471 1441.16 854.765 1441.16 857.594C1441.16 860.424 1443.46 862.718 1446.29 862.718Z" fill="black"/>
<path d="M1524.99 862.718C1527.81 862.718 1530.11 860.424 1530.11 857.594C1530.11 854.765 1527.81 852.471 1524.99 852.471C1522.16 852.471 1519.86 854.765 1519.86 857.594C1519.86 860.424 1522.16 862.718 1524.99 862.718Z" fill="black"/>
<path d="M1501.89 888.161V809.197H1541.45" stroke="black" stroke-width="14" stroke-linecap="round" stroke-linejoin="round"/>
<path d="M1436.63 809.199H1476.19" stroke="black" stroke-width="14" stroke-linecap="round" stroke-linejoin="round"/>
<path d="M1375.53 849.657V877.077C1360.74 877.077 1348.75 865.086 1348.75 850.295C1348.75 849.473 1348.78 848.661 1348.86 847.857C1350.36 831.227 1375.53 832.958 1375.53 849.657Z" fill="#EDEEEF"/>
<path d="M1375.53 877.077C1360.74 877.077 1348.75 865.086 1348.75 850.295" stroke="black" stroke-width="14" stroke-linecap="round" stroke-linejoin="round"/>
<path d="M1484.59 907.625C1469.62 907.625 1457.49 895.489 1457.49 880.519" stroke="#B366FF" stroke-width="14" stroke-linecap="round" stroke-linejoin="round"/>
<path d="M1554.54 963.888L1362.91 1010.99" stroke="black" stroke-width="14" stroke-linecap="round" stroke-linejoin="round"/>
<path d="M1501.9 888.223L1484.6 892.475" stroke="black" stroke-width="14" stroke-linecap="round" stroke-linejoin="round"/>
<path d="M1755.12 1287.99V1706.45L1162.32 1852.15V1386.1C1162.32 1220.85 1275.14 1076.95 1435.62 1037.51H1435.62C1512.57 1018.59 1593.96 1036.11 1656.32 1085C1718.69 1133.89 1755.12 1208.75 1755.12 1287.99V1287.99Z" fill="#B366FF"/>
<path d="M1375.53 836.224C1390.23 818.179 1400.7 797.071 1406.17 774.45C1406.17 774.45 1519.86 811.93 1566.48 749.162C1587.61 720.711 1577.78 692.949 1567.87 676.549C1566.37 673.949 1563.62 672.322 1560.62 672.262C1557.62 672.206 1554.81 673.724 1553.21 676.264C1548.6 684.341 1537.73 690.965 1512.29 681.426C1469.42 665.349 1380.2 670.588 1365.98 724.777C1365.98 724.777 1302.76 742.388 1357.07 836.997" stroke="black" stroke-width="14" stroke-linecap="round" stroke-linejoin="round"/>
<path d="M1699.23 1772.1H2989.98" stroke="black" stroke-width="14" stroke-linecap="round" stroke-linejoin="round"/>
<path d="M1304.33 1100.11C1304.33 1100.11 1059.99 1300.77 998.572 1625.11C937.158 1949.44 1424.12 1871.5 1656.06 1776.04" stroke="black" stroke-width="14" stroke-linecap="round" stroke-linejoin="round"/>
<path d="M1256.87 1605.84C1256.87 1605.84 1807.79 1508.46 1845.72 1749.72" stroke="black" stroke-width="14" stroke-linecap="round" stroke-linejoin="round"/>
<path d="M1673.9 1100.11C1673.9 1100.11 1846.79 1278.51 1892.39 1605.84C1892.39 1605.84 2067.75 1611.87 2074.77 1749.72" stroke="black" stroke-width="14" stroke-linecap="round" stroke-linejoin="round"/>
<path d="M1202.33 1205.84C1202.33 1205.84 1123.75 1042.68 1058.73 1183.57C993.702 1324.46 709.566 2252.89 1009.41 2408.24C1309.25 2563.58 1747.72 2478.26 1747.72 2478.26" stroke="black" stroke-width="14" stroke-linecap="round" stroke-linejoin="round"/>
<path d="M1416.36 2501.64V3547.21H1058.73" stroke="black" stroke-width="14" stroke-linecap="round" stroke-linejoin="round"/>
<path d="M428.208 907.14C455.911 907.14 478.369 884.629 478.369 856.861C478.369 829.093 455.911 806.583 428.208 806.583C400.504 806.583 378.046 829.093 378.046 856.861C378.046 884.629 400.504 907.14 428.208 907.14Z" fill="#B366FF"/>
<path d="M428.208 77.8359V713.141" stroke="black" stroke-width="14" stroke-linecap="round" stroke-linejoin="round"/>
<path d="M428.209 573.792L158.588 844.039H697.828L428.209 573.792Z" fill="#EDEEEF"/>
<path d="M158.588 844.039H697.828L428.209 573.792" stroke="black" stroke-width="14" stroke-linecap="round" stroke-linejoin="round"/>
<path d="M0 3546.14H4465.33" stroke="black" stroke-width="14"/>
</svg>
