<svg width="3891" height="3593" viewBox="0 0 3891 3593" fill="none" xmlns="http://www.w3.org/2000/svg">
<path d="M2813.74 3284.02H2531.44V3148.82H2243.01V2989.03L2028.22 2773.94H1702.97V2153.24H1279.53V1385.05L745.624 1919.71V2939.87H463.329V3391.77H346.731V3265.58H138.077V3517.95H2954.88V3425.37L2813.74 3284.02Z" fill="#EDEEEF"/>
<rect x="1312.17" y="2308.75" width="38.5668" height="38.6215" fill="white"/>
<rect x="1406.02" y="2308.75" width="38.5668" height="38.6215" fill="white"/>
<rect x="1499.86" y="2308.75" width="38.5668" height="38.6215" fill="white"/>
<rect x="1312.17" y="2412.88" width="38.5668" height="38.6215" fill="white"/>
<rect x="1406.02" y="2412.88" width="38.5668" height="38.6215" fill="white"/>
<rect x="1499.86" y="2412.88" width="38.5668" height="38.6215" fill="white"/>
<rect x="1312.17" y="2517.01" width="38.5668" height="38.6215" fill="white"/>
<rect x="1406.02" y="2517.01" width="38.5668" height="38.6215" fill="white"/>
<rect x="1499.86" y="2517.01" width="38.5668" height="38.6215" fill="white"/>
<rect x="1312.17" y="2621.14" width="38.5668" height="38.6215" fill="white"/>
<rect x="1406.02" y="2621.14" width="38.5668" height="38.6215" fill="white"/>
<rect x="1499.86" y="2621.14" width="38.5668" height="38.6215" fill="white"/>
<rect x="1312.17" y="2725.28" width="38.5668" height="38.6216" fill="white"/>
<rect x="1406.02" y="2725.28" width="38.5668" height="38.6216" fill="white"/>
<rect x="1499.86" y="2725.28" width="38.5668" height="38.6216" fill="white"/>
<rect x="1312.17" y="2829.41" width="38.5668" height="38.6215" fill="white"/>
<rect x="1406.02" y="2829.41" width="38.5668" height="38.6215" fill="white"/>
<rect x="1499.86" y="2829.41" width="38.5668" height="38.6215" fill="white"/>
<rect x="1312.17" y="2933.54" width="38.5668" height="38.6215" fill="white"/>
<rect x="1406.02" y="2933.54" width="38.5668" height="38.6215" fill="white"/>
<rect x="1499.86" y="2933.54" width="38.5668" height="38.6215" fill="white"/>
<rect x="1312.17" y="3037.67" width="38.5668" height="38.6216" fill="white"/>
<rect x="1406.02" y="3037.67" width="38.5668" height="38.6216" fill="white"/>
<rect x="1499.86" y="3037.67" width="38.5668" height="38.6216" fill="white"/>
<rect x="1312.17" y="3141.81" width="38.5668" height="38.6215" fill="white"/>
<rect x="1406.02" y="3141.81" width="38.5668" height="38.6215" fill="white"/>
<rect x="1499.86" y="3141.81" width="38.5668" height="38.6215" fill="white"/>
<path d="M3202.16 213.634C3261.15 213.634 3308.98 165.81 3308.98 106.817C3308.98 47.8236 3261.15 0 3202.16 0C3143.17 0 3095.34 47.8236 3095.34 106.817C3095.34 165.81 3143.17 213.634 3202.16 213.634Z" fill="#EDEEEF"/>
<path d="M3205.23 1507.35C3315.64 1507.35 3405.15 1417.84 3405.15 1307.42C3405.15 1197.01 3315.64 1107.5 3205.23 1107.5C3094.81 1107.5 3005.3 1197.01 3005.3 1307.42C3005.3 1417.84 3094.81 1507.35 3205.23 1507.35Z" fill="black"/>
<path d="M3205.23 109.132H3205.23C3343.04 109.132 3475.21 163.878 3572.66 261.327C3670.11 358.777 3724.86 490.946 3724.86 628.76V1206.53H2685.6V628.76C2685.6 490.946 2740.34 358.777 2837.79 261.327C2935.24 163.878 3067.41 109.132 3205.23 109.132Z" fill="#D7E8F7"/>
<path d="M3828.05 1206.53C3771.06 1206.53 3724.85 1160.33 3724.85 1103.33V628.76C3724.85 490.946 3670.11 358.777 3572.66 261.327C3475.21 163.878 3343.04 109.132 3205.23 109.132H3205.22C3067.41 109.132 2935.24 163.878 2837.79 261.328C2740.34 358.777 2685.6 490.946 2685.6 628.76V1103.33C2685.6 1160.33 2639.39 1206.53 2582.4 1206.53H2582.4C2548.21 1206.53 2520.5 1234.24 2520.5 1268.43V1275.75C2520.5 1309.94 2548.21 1337.65 2582.4 1337.65H3828.06C3862.24 1337.65 3889.95 1309.94 3889.95 1275.75V1268.43C3889.95 1252.01 3883.43 1236.27 3871.82 1224.66C3860.22 1213.05 3844.47 1206.53 3828.05 1206.53Z" fill="#E2E2E2"/>
<path d="M3828.05 1206.53C3771.06 1206.53 3724.85 1160.33 3724.85 1103.33V628.762" stroke="black" stroke-width="14"/>
<rect x="2520.5" y="1206.54" width="1369.46" height="131.12" rx="13.3133" fill="#FFAB65"/>
<path d="M3828.05 1337.66H2582.39" stroke="black" stroke-width="14"/>
<path d="M886.325 157.097L886.325 157.097C973.086 70.336 1113.75 70.3361 1200.51 157.097L1529.5 486.078L1215.31 800.267L886.325 471.286C844.661 429.622 821.254 373.113 821.254 314.191C821.254 255.27 844.661 198.761 886.325 157.097Z" fill="#FFAB65"/>
<path d="M1215.89 800.26L901.701 486.071L1230.68 157.09C1272.35 115.426 1328.85 92.0189 1387.78 92.0189C1446.7 92.0189 1503.21 115.425 1544.87 157.089L1544.87 157.09C1586.54 198.754 1609.94 255.262 1609.94 314.184C1609.94 373.106 1586.54 429.614 1544.87 471.278L1215.89 800.26L1215.89 800.26Z" fill="#FFAB65"/>
<path d="M1213.75 802.473L1544.71 472.029C1586.63 430.18 1610.18 373.42 1610.18 314.236C1610.18 255.052 1586.63 198.293 1544.71 156.443" stroke="black" stroke-width="14"/>
<rect x="3815.39" y="2233.86" width="274.941" height="274.941" transform="rotate(180 3815.39 2233.86)" fill="#FFAB65"/>
<path d="M3890.78 1979.65L3677.92 1766.79L3465.07 1979.65H3890.78Z" fill="#FFAB65"/>
<rect x="3815.39" y="2913.28" width="274.941" height="274.941" transform="rotate(180 3815.39 2913.28)" fill="#EDEEEF"/>
<path d="M3890.78 2659.06L3677.92 2446.21L3465.07 2659.06H3890.78Z" fill="#EDEEEF"/>
<path d="M1621.26 3420.79L1686.29 1653.3L2125.68 1710.12L1946.58 3515.82H1566.43L1621.26 3420.79Z" fill="#E2E2E2"/>
<path d="M1775.3 1644.33L2281.12 1615.01V2163.37V3515.82H1883.59L1925.62 3440.5L1775.3 1644.33Z" fill="#EDEEEF"/>
<path d="M1883.59 3515.82L1925.62 3440.5L1775.3 1644.33" stroke="black" stroke-width="14" stroke-linecap="round" stroke-linejoin="round"/>
<path d="M1686.29 1229.9V1653.3L2286.09 1800.72V1329.17C2286.09 1161.97 2171.94 1016.36 2009.57 976.456H2009.57C1931.7 957.317 1849.36 975.035 1786.25 1024.51C1723.15 1073.98 1686.29 1149.72 1686.29 1229.9V1229.9Z" fill="#FFAB65"/>
<path d="M2214.08 1702.81C2217.44 1705.9 2248.76 1790 2283.84 1886.2L2281.12 2117.69C2251.96 1896.54 2053.59 1466.97 2053.59 1466.97C2111.54 1553.46 2208.5 1697.71 2214.08 1702.81Z" fill="black"/>
<path d="M2130.15 745.446V813.003C2130.15 865.24 2094.48 910.729 2043.76 923.197L1936.25 949.62V685.487L2025.64 663.516C2050.81 657.329 2077.43 663.057 2097.83 679.05C2118.23 695.043 2130.15 719.525 2130.15 745.446V745.446Z" fill="#EDEEEF"/>
<path d="M2130.15 813.003C2130.15 865.24 2094.48 910.729 2043.76 923.197L1936.25 949.62" stroke="black" stroke-width="14" stroke-linecap="round" stroke-linejoin="round"/>
<path d="M2020.62 799.599C2017.75 799.599 2015.43 797.278 2015.43 794.415C2015.43 791.552 2017.75 789.23 2020.62 789.23C2023.48 789.23 2025.8 791.552 2025.8 794.415C2025.8 797.278 2023.48 799.599 2020.62 799.599Z" fill="black"/>
<path d="M2100.25 799.599C2097.38 799.599 2095.06 797.278 2095.06 794.415C2095.06 791.552 2097.38 789.23 2100.25 789.23C2103.11 789.23 2105.43 791.552 2105.43 794.415C2105.43 797.278 2103.11 799.599 2100.25 799.599Z" fill="black"/>
<path d="M2076.89 825.341V745.447H2116.91" stroke="black" stroke-width="14" stroke-linecap="round" stroke-linejoin="round"/>
<path d="M2010.85 745.447H2050.88" stroke="black" stroke-width="14" stroke-linecap="round" stroke-linejoin="round"/>
<path d="M1949.02 786.383V814.128C1934.06 814.128 1921.92 801.995 1921.92 787.029C1921.92 786.197 1921.96 785.375 1922.03 784.562C1923.55 767.735 1949.02 769.487 1949.02 786.383Z" fill="#EDEEEF"/>
<path d="M1949.02 814.128C1934.06 814.128 1921.92 801.995 1921.92 787.029" stroke="black" stroke-width="14" stroke-linecap="round" stroke-linejoin="round"/>
<path d="M2055 834.676C2051.63 838.041 2047.07 839.931 2042.31 839.931C2037.55 839.931 2032.99 838.041 2029.62 834.676" stroke="#FFAB65" stroke-width="14" stroke-linecap="round" stroke-linejoin="round"/>
<path d="M2076.88 825.404L2059.38 829.707" stroke="black" stroke-width="14" stroke-linecap="round" stroke-linejoin="round"/>
<path d="M1949.02 789.23C1949.02 789.23 2066.02 771.327 2086.12 687.256C2086.12 687.256 2081.57 741.476 2130.15 749.396" stroke="black" stroke-width="14" stroke-linecap="round" stroke-linejoin="round"/>
<path d="M1935.47 873.066C1935.47 873.066 1848.53 762.798 1896.66 684.21C1944.79 605.622 2081.25 578.816 2140.34 670.807C2199.44 762.798 2246.96 790.822 2275.59 809.708C2298.5 824.821 2365.89 869.585 2381.29 927.452C2388.89 955.364 2404.03 980.646 2425.04 1000.53C2442.47 1017.26 2455.89 1041.7 2443.73 1074.11C2418.15 1142.34 2100.7 1082.82 2068.13 914.133" stroke="black" stroke-width="14" stroke-linecap="round" stroke-linejoin="round"/>
<path d="M2214.08 1112.1C2214.08 1112.1 2491.21 1472.53 2549.7 1911.16C2608.18 2349.8 2484.51 2340.66 2458.92 2344.31C2433.34 2347.97 2396.78 2249.28 2396.78 2249.28C2396.78 2249.28 2349.87 2250.49 2362.06 2231C2374.24 2211.5 2387.04 2172.52 2387.04 2172.52C2387.04 2172.52 2222.05 1710.12 2214.08 1702.81C2206.1 1695.5 2010.85 1403.08 2010.85 1403.08" stroke="black" stroke-width="14" stroke-linecap="round" stroke-linejoin="round"/>
<path d="M2805.56 2441.18L2717.84 2806.7H2143.96L2052.58 2441.18H2805.56Z" fill="#FFAB65"/>
<path d="M2717.84 2806.71H2143.96" stroke="black" stroke-width="14" stroke-linecap="round" stroke-linejoin="round"/>
<path d="M2620.36 2441.18C2620.36 2441.18 2644.76 2252.31 2558.24 2215.15" stroke="black" stroke-width="14" stroke-linecap="round" stroke-linejoin="round"/>
<path d="M2367.18 2245.12C2367.18 2245.12 2313.32 2290.09 2320.63 2441.18" stroke="black" stroke-width="14" stroke-linecap="round" stroke-linejoin="round"/>
<path d="M2639.86 2545.96L2608.18 2682.43" stroke="#FDFEFF" stroke-width="14"/>
<path d="M2535.65 2545.96L2503.97 2682.43" stroke="#FDFEFF" stroke-width="14"/>
<path d="M2431.44 2545.96L2399.76 2682.43" stroke="#FDFEFF" stroke-width="14"/>
<path d="M1748.5 1060.73C1748.5 1060.73 1619.06 1176.06 1538.65 1318.61C1538.65 1318.61 1537.19 1070.45 1544.5 1035.73C1544.5 1035.73 1581.05 1002.83 1582.88 979.069C1584.7 955.309 1559.12 968.787 1559.12 968.787C1559.12 968.787 1597.5 909.618 1577.39 896.825C1557.29 884.032 1473.22 934.432 1394.63 1112.1C1316.04 1289.77 1270.66 1806.99 1686.29 1622.4" stroke="black" stroke-width="14" stroke-linecap="round" stroke-linejoin="round"/>
<path d="M29.3667 3521.35H3890.86" stroke="black" stroke-width="14"/>
</svg>
